<svg xmlns="http://www.w3.org/2000/svg" xmlns:xlink="http://www.w3.org/1999/xlink" width="394" height="428.433" viewBox="0 0 394 428.433"><defs><style>.a{fill:#464646;font-size:68px;font-family:Arial-BoldMT, Arial;font-weight:700;}.b,.f{fill:#6c63ff;}.b,.k,.l,.r{opacity:0.1;}.c{fill:url(#a);}.d{fill:#ffc5d3;}.e{fill:#3a3768;}.g{fill:#e6e8ec;}.h{fill:#5f5570;}.i{opacity:0.15;}.j{fill:#bc8487;}.l{stroke:#000;stroke-miterlimit:10;}.m{fill:#433a59;}.n{fill:#7b728f;}.o{fill:#e5e8ef;}.p{fill:#8f7080;}.q{fill:#c3bbc8;}.s{fill:#ffd037;}.t{fill:#a8a8a8;}.u{opacity:0.2;}</style><linearGradient id="a" x1="1.07" y1="-0.013" x2="1.07" y2="0.987" gradientUnits="objectBoundingBox"><stop offset="0" stop-color="gray" stop-opacity="0.251"/><stop offset="0.54" stop-color="gray" stop-opacity="0.122"/><stop offset="1" stop-color="gray" stop-opacity="0.102"/></linearGradient></defs><g transform="translate(-1470 -2741.511)"><text class="a" transform="translate(1470 3154.944)"><tspan x="0" y="0">55 years old</tspan></text><g transform="translate(1472.916 2741.511)"><path class="b" d="M249.829,79.863c-21.451-.744-41.88-7.665-61.377-15.232S149.61,48.669,128.674,44.637c-13.467-2.581-28.865-2.948-39.716,4.27C78.52,55.855,75.142,67.848,73.332,78.976,71.988,87.35,71.164,96.162,74.9,104c2.594,5.443,7.2,10.017,10.389,15.232,11.093,18.135,3.253,40.5-8.767,58.21C70.89,185.745,64.349,193.671,60,202.528s-6.366,18.973-2.558,28c3.772,8.96,12.764,15.653,22.5,20.38,19.784,9.592,43.094,12.338,65.826,13.888,50.32,3.441,100.9,1.953,151.359.448,18.668-.556,37.422-1.116,55.79-4,10.2-1.6,20.734-4.149,28.139-10.3,9.408-7.8,11.729-21,5.43-30.783-10.568-16.4-39.778-20.478-47.166-38.081-4.063-9.69.112-20.483,6.017-29.465,12.674-19.264,33.914-36.19,35.034-58.241.771-15.129-9.444-30.285-25.232-37.449-16.549-7.5-39.5-6.559-51.709,5.864C290.862,75.6,268.766,80.522,249.829,79.863Z" transform="translate(-55.429 -23.716)"/><ellipse class="b" cx="136.181" cy="18.422" rx="136.181" ry="18.422" transform="translate(15.613 322.196)"/><path class="c" d="M311.477,93.915s-4.216-8.319-3.647-10.792-2.966-7.755-2.966-7.755l.228-8.763s-.488.9-3.033,1.68c-.215-.282-.448-.56-.69-.824a18.069,18.069,0,0,0-3.055-2.549l-4.48-9.668L289.5,48.608S282.67,34.72,275.614,31.655L274.5,29.483a.17.17,0,0,0,.067-.22l-1.129-2.209a.175.175,0,0,0-.22-.081l-1.08-2.115a16.984,16.984,0,0,0-3.136-7.567c-.112-.157-.233-.3-.349-.448l1.756-.063c1.541-.058,3.261-.193,4.3-1.344a3.926,3.926,0,0,0,.8-1.478,6.264,6.264,0,0,0,.26-1.313v-1.29a3.608,3.608,0,0,0-.076-.448.308.308,0,0,0-.036-.175,5.2,5.2,0,0,0-.139-.52.7.7,0,0,1-.031-.1c-.063-.179-.13-.358-.206-.533a.464.464,0,0,1-.031-.072c-.081-.175-.17-.345-.264-.511l-.027-.054h0a1.8,1.8,0,0,0-.112-.2c-1.214-1.909-3.347-3.024-5.376-4.032a62.191,62.191,0,0,0-5.824-2.688,31.362,31.362,0,0,0-22.848.323,9.052,9.052,0,0,0-2.034,1.084,10.511,10.511,0,0,0-2.218,2.607l-3.472,5.13a7.245,7.245,0,0,0-1.125,2.07c-.65,2.437,1.389,4.879,1.16,7.392-.116,1.25-.788,2.4-.918,3.647a8.678,8.678,0,0,0,1.313,4.623l4.968,9.856c-.264,1.295-.556,2.621-.874,3.9h0c-2.289,2.365-3.06,3.656-3.27,4.355l-.067.036h0a4.034,4.034,0,0,0-1.147,1.12l-4.722,4.588s-8.208,2.133-9.914,4.834c0,0-12.88-.564-12.768,17.423,0,0-.569,6.747-.9,7.647s0,10,0,10l-.152,18.44s-.493,9.78,0,13.265,1.062,16.751,1.062,16.751,3.078,12.929,1.94,17.539c-1.093,4.413,0,14.063,1.792,14.1.34.7.73,1.048,1.156.851a4.923,4.923,0,0,1,.569-.206v11.016s-2.218,15.434.269,18.368a60.06,60.06,0,0,0-4.077,7.406l-17.427-.936-2.218.623h0l-2.034.569L184.463,238.8l.493.036-.036.865,1.165.085-1.622,28.547,24.125,1.985c-1.062,2.379-2.294,4.928-2.773,5.174-.9.448-2.849-.9-3.306-.34a3.71,3.71,0,0,1-3.418.9c-1.595-.34-2.621,1.46-2.621,1.46s.233.206.582.587c-2.589-.314-5.864,1.075-7.643,1.971-.8.4-1.295.7-1.295.7h-4.7L186,297.256l1.823,1.245.448,12.992s7.294,22.485,10.636,22.338a1.51,1.51,0,0,0,1.125-.564c1.792-2.07.551-9.18.551-9.18V312.251s2.733-1.2,2.428-2.1,4.408-10.752,4.829-11.648a.076.076,0,0,0,.036-.072c0-1.013,2.052-2.137,1.935-2.585s5.018-3.262,5.376-5.734,3.759-1.125,3.759-1.125l4.328-4.973c.13,6.061.376,10.3.8,11.379,2.052,5.174,2.849,13.27,2.849,13.27s-1.254,6.182,0,8.207c.771,1.237,2.563,2.563,3.808,3.66-1.295,3.925-1.111,12.266-1.111,12.266v4.794l9.574,2.688s.3-2.4.757-2.4,6.536,4.646,6.536,4.646,23.4.3,29.326,0c2.24-.112,2.849-1.075,2.5-2.24-.569-1.94-3.763-4.453-6.6-4.646-4.561-.3-10.336-5.094-10.336-5.094s.448-1.053-1.976-2.549c-1.676-1.03-6.312-5.2-9.18-7.643.134-.184.273-.367.4-.564,0,0-3.875-5.376-3.073-7.76s-.345-5.824-.345-5.824-2.164-6.635-2.164-10.008c0-2.137-.323-14.291-.556-22.911l2,.166.04-.86.9.081,8.472.78-.26-9.054a56.669,56.669,0,0,0,8.884-4.516,18.124,18.124,0,0,1,8.888-3.822s9.686-5.17,11.169-7.307,1.344-17.651,1.344-17.651l-.8-33.251v-.027s-.681-16.074-2.052-19.56c-.5-1.29-1.743-5.591-3.1-10.5a8.122,8.122,0,0,1,2.339.1c.049,1.2.081,2.025.081,2.307,0,1.909,2.733,3.53,2.733,3.53l-1.935-43.009V101.432c5.967,1.9,20.4,2.491,20.4,2.491C313.982,103.377,311.477,93.915,311.477,93.915ZM255.19,56.963h-.031a29.893,29.893,0,0,1,.829-3.338ZM216.025,204.479c3.535.582,7.616.412,7.925-.273.031-.067.072-.188.125-.345.112.2.22.4.332.6l-.345,6.487v.148l-11.648-.627C213.229,207,214.77,205.307,216.025,204.479Zm38.829,32.731-.3-10.506c.52-1.935.986-3.692,1.384-5.2.179,1.25.332,2.4.448,3.463C257.488,234.939,255.862,236.883,254.854,237.21ZM288.006,79.7c-.668.255-3.208-1.344-5.618-3,0-.3.022-.6.036-.9.34-6.859-10.828-11.128-14.247-11.917a12.273,12.273,0,0,1-2.4-.9,56.061,56.061,0,0,1-5.3-3l.045-.13s-4.408-2.791-4.5-6.272a59.523,59.523,0,0,1,3.79-9.2c.085-.175.179-.358.269-.533a17.579,17.579,0,0,0,5.734-3.037c.685,8.96,13.651,16.67,13.651,16.67l1.384,2.24.327.529c-.7.412-1.035.744-.8.936.986.788,3.369,5.251,4.355,7.137h0c.269.511.448.829.448.829s2.119,5.766,3.333,10.591A.9.9,0,0,0,288,79.7Z" transform="translate(-126.074 -0.023)"/><path class="d" d="M394.105,96.3l-.152.2-.52.694-9.968,7.043-2.115-3.477-1.344-2.24s-19.869-11.917-11.326-23.4,21.168,14.56,21.168,14.56Z" transform="translate(-227.164 -39.859)"/><path class="e" d="M382.685,63.171h0a.17.17,0,0,1,.228.075l1.108,2.2a.17.17,0,0,1-.076.228h0a.17.17,0,0,1-.229-.076l-1.108-2.2A.17.17,0,0,1,382.685,63.171Z" transform="translate(-236.021 -34.87)"/><rect class="e" width="0.193" height="0.923" rx="0.096" transform="translate(135.43 31.498) rotate(-26.73)"/><path class="e" d="M359.544,73.578h0a.107.107,0,0,1,.144.048l.627,1.244a.108.108,0,0,1-.048.145h0a.108.108,0,0,1-.145-.048l-.626-1.244A.108.108,0,0,1,359.544,73.578Z" transform="translate(-223.266 -40.619)"/><rect class="e" width="0.206" height="1.622" rx="0.103" transform="translate(137.158 34.945) rotate(-26.73)"/><rect class="e" width="11.379" height="23.126" rx="2.24" transform="translate(134.149 28.722) rotate(-26.73)"/><path class="f" d="M364.493,55.707a.4.4,0,0,0-.182.54l0,.006.036.076a.408.408,0,0,1-.176.549l0,0-4.31,2.168a.4.4,0,0,1-.543-.173l0-.006-.04-.076a.408.408,0,0,0-.547-.184h0l-.838.426a.771.771,0,0,0-.351,1.032l.006.012L366.7,78.255a.784.784,0,0,0,1.048.345l7.518-3.786a.784.784,0,0,0,.345-1.048l-9.162-18.185a.78.78,0,0,0-1.047-.346h0Z" transform="translate(-222.148 -30.454)"/><path class="g" d="M364.932,60.011l1.133-.57a.162.162,0,0,1,.216.072h0a.161.161,0,0,1-.072.217l-1.132.57a.162.162,0,0,1-.217-.071h0A.162.162,0,0,1,364.932,60.011Z" transform="translate(-226.224 -32.812)"/><ellipse class="g" cx="0.184" cy="0.184" rx="0.184" ry="0.184" transform="translate(140.244 26.315)"/><path class="h" d="M384.11,212l-2.8,75.14s9.408-3.136,10.864-.784-1.568-37.633-1.568-37.633Z" transform="translate(-235.313 -117.033)"/><path class="i" d="M384.11,212l-2.8,75.14s9.408-3.136,10.864-.784-1.568-37.633-1.568-37.633Z" transform="translate(-235.313 -117.033)"/><path class="j" d="M332.615,735.068c-5.824.3-28.82,0-28.82,0s-5.976-4.628-6.424-4.628-.744,2.388-.744,2.388l-9.408-2.688v-4.776s-.3-13.6,2.536-14.188,15.384,0,15.384,0c.448-.148,8.96,7.916,11.348,9.408s1.94,2.54,1.94,2.54,5.676,4.776,10.156,5.076c2.791.188,5.932,2.688,6.492,4.628C335.415,734,334.81,734.956,332.615,735.068Z" transform="translate(-183.37 -392.43)"/><path class="k" d="M332.627,752.99c-5.824.3-28.82,0-28.82,0s-5.976-4.628-6.424-4.628-.744,2.388-.744,2.388l-9.408-2.688V743.38l8.808,3.19,7.02,4.18h32.028C335.427,751.919,334.822,752.878,332.627,752.99Z" transform="translate(-183.382 -410.351)"/><path class="l" d="M330.19,742.673s7.168-6.868,11.962-4.928" transform="translate(-207.095 -407.05)"/><path class="j" d="M205.154,653.409c.3.9-2.388,2.092-2.388,2.092v11.8s1.219,7.083-.542,9.148a1.473,1.473,0,0,1-1.1.56c-3.284.148-10.452-22.253-10.452-22.253l-.448-12.943-1.792-1.241-2.54-16.428h4.632s.488-.3,1.272-.7c2.24-1.142,6.931-3.136,9.48-1.236l8.66,19.511S204.859,652.513,205.154,653.409Z" transform="translate(-127.443 -343.027)"/><path class="k" d="M202.224,678.938a1.473,1.473,0,0,1-1.1.56c-3.284.148-10.452-22.253-10.452-22.253l-.448-12.943-1.792-1.241-2.54-16.428h4.632s.488-.3,1.272-.7l1.116,16.832.6,14.484S199.133,673.016,202.224,678.938Z" transform="translate(-127.443 -345.519)"/><path class="m" d="M301.137,481.162c-1.456,2.128-10.976,7.28-10.976,7.28a17.529,17.529,0,0,0-8.736,3.808c-2.433,1.855-10.887,5.533-18.48,8.655-7.092,2.917-13.44,5.345-13.44,5.345l-7.311,8.512-5.569,6.483s-3.36-1.344-3.7,1.12-5.376,5.264-5.264,5.712-1.9,1.568-1.9,2.576-7.5-7.28-7.392-12.32-3.808-8.512-3.808-8.512,1.008-1.792,2.576-1.456a3.605,3.605,0,0,0,3.36-.9c.448-.56,2.352.784,3.248.336s4.48-9.3,4.48-9.3l13.964-9.368,27.776-18.619,1.281-.86s3.7,1.693,2.2-12.181c-.291-2.688-.78-5.954-1.523-9.932-4.592-24.528,11.872-27.328,11.872-27.328l14.448,4.816,3.472,5.376v.027l.784,33.126S302.593,479.034,301.137,481.162Z" transform="translate(-143.268 -231.969)"/><path class="k" d="M296.78,558.826s.045,1.59.112,4.063c-7.092,2.916-13.44,5.345-13.44,5.345l-7.311,8.512c-.121-7.056-.094-16.222,0-25.617l27.776-18.619C300.48,545.247,296.78,558.826,296.78,558.826Z" transform="translate(-177.216 -293.952)"/><path class="k" d="M371.356,430.442v.027l-21.728.421s-3.808,14.9-4.368,18.032c-.139.771-.981,4.063-2.173,8.588-.291-2.688-.78-5.954-1.523-9.932-4.592-24.528,11.872-27.328,11.872-27.328l14.448,4.816Z" transform="translate(-212.927 -231.985)"/><path class="m" d="M276.756,342.712l-2.8,53.761s-2.016,78.961,0,84.113,2.8,13.216,2.8,13.216-1.232,6.16,0,8.176,5.152,4.256,5.04,5.376,11.984,7.168,18.256-2.464c0,0-3.808-5.376-3.024-7.728s-.336-5.824-.336-5.824-2.128-6.608-2.128-9.982-.784-31.585-.784-31.585,12.208-44.8,12.768-47.937,4.368-18.032,4.368-18.032l23.072-.448s-.672-16.016-2.016-19.488-7.952-28.9-7.952-28.9Z" transform="translate(-175.56 -184.911)"/><path class="n" d="M192.793,469.89l-2,.573-.081,1.98,60.042.775v-.78Z" transform="translate(-130.103 -259.386)"/><path class="d" d="M322.06,83.268c-8.736,17.719-3.311,21.424-2.446,21.881-1.85-.86-25.9-12.159-22.736-15.026,2.056-1.868,3.817-10,4.852-15.819.614-3.477.972-6.133.972-6.133L327.938,72.8A118.978,118.978,0,0,0,322.06,83.268Z" transform="translate(-188.549 -37.64)"/><path class="k" d="M412.21,125.628l-.52.694-9.986,7.043-2.115-3.477c3.078-1.792,12.307-4.928,12.307-4.928Z" transform="translate(-245.404 -68.987)"/><path class="o" d="M420.762,142.374c-.9,3.136-16.016,0-16.016,0l-1.568-2.464s-.157-.314-.421-.824h0c-.968-1.877-3.311-6.321-4.278-7.11-1.232-1.008,13.216-5.936,13.216-5.936l4.426,9.632a17.856,17.856,0,0,1,3,2.54C420.242,139.426,421.17,140.945,420.762,142.374Z" transform="translate(-244.749 -69.583)"/><path class="h" d="M392.31,165.72s8.96,7.07,10.3,6.559,23.072,14.161,23.072,14.161,2.464,9.408-7.728,9.968c0,0-21.616-.9-22.512-4.032S392.31,165.72,392.31,165.72Z" transform="translate(-241.385 -91.487)"/><path class="k" d="M325.8,133.983l-9.744,10.08,13.664,86.913,5.376-3.136s13.888,6.16,15.008.448.811-28.224.811-28.224l-1.819-40.67s-6.384-14.224-6.384-14.672-9.206-7.392-9.206-7.392l-4.346-3.36Z" transform="translate(-199.296 -73.961)"/><path class="o" d="M325.8,130.983l-9.744,10.08,13.664,86.913,5.376-3.136s13.888,6.16,15.008.448.811-28.224.811-28.224l-1.819-40.67s-6.384-14.224-6.384-14.672-9.206-7.392-9.206-7.392l-4.346-3.36Z" transform="translate(-199.296 -72.305)"/><path class="k" d="M335.748,131.887l-2.688,5.488,2.688,2.836s9.632,19.452,7.728,30.989l2.016,37.969,6.5,6.384,5.152-5.95-2.464-34.5s-6.608-28.448-13.552-37.3l-2.016-7.84Z" transform="translate(-208.68 -71.753)"/><path class="j" d="M335.748,129.887l-2.688,5.488,2.688,2.836s9.632,19.452,7.728,30.989l2.016,37.969,6.5,6.384,5.152-5.95-2.464-34.5s-6.608-28.448-13.552-37.3l-2.016-7.84Z" transform="translate(-208.68 -70.649)"/><path class="k" d="M334.268,72.77c-2.446,3.942-4.373,7.415-5.878,10.47a17.224,17.224,0,0,1-4.883.7c-5.537,0-8.727-3.83-11.863-7.9-.717-.923-3.073-.708-3.584-1.792.614-3.477.972-6.133.972-6.133Z" transform="translate(-194.88 -37.612)"/><path class="d" d="M338.554,42.941a17.172,17.172,0,1,1-3.266-10.076A17.172,17.172,0,0,1,338.554,42.941Z" transform="translate(-192.755 -14.234)"/><path class="k" d="M312.7,122.2l-14.112-17.024s-1.3-.524,3.1-5.134c0,0,16.173,12.607,17.177,14.748S312.7,122.2,312.7,122.2Z" transform="translate(-189.552 -55.232)"/><path class="o" d="M311.7,120.2l-14.112-17.024s-1.3-.524,3.1-5.134c0,0,16.173,12.607,17.177,14.748S311.7,120.2,311.7,120.2Z" transform="translate(-189 -54.128)"/><path class="h" d="M374.555,246.765s-2.688-1.613-2.688-3.517-1.344-28.784-1.344-28.784-1.971-16.043-4.032-28.793h0c-1.21-7.513-2.451-13.888-3.329-15.152l-.036-.054c-2.352-3.024-1.9-17.808-16.576-39.425a81.023,81.023,0,0,0,8.96,5.466,12.282,12.282,0,0,0,2.361.9c3.36.784,14.336,5.04,14,11.872s.784,22.512.784,22.512v32.136Z" transform="translate(-216.126 -72.343)"/><path class="k" d="M426.1,157.372c-.9,3.136-16.016,0-16.016,0l-1.568-2.464s-.157-.314-.421-.824h0a.288.288,0,0,1-.022-.054c8.785.614,13.682-.027,16.388-.82C425.578,154.424,426.506,155.943,426.1,157.372Z" transform="translate(-250.085 -84.581)"/><path class="h" d="M409.06,153.837s4.7,12.992,4.032,16.24,10.864,16.016,10.864,16.016l10.976-7.616s-4.144-8.288-3.584-10.752S428.436,160,428.436,160l.224-8.727S426.644,155.056,409.06,153.837Z" transform="translate(-250.631 -83.51)"/><path class="k" d="M335.312,32.876,326.8,33.2a9.485,9.485,0,0,0-2.464.309c-3.042.936-4.444,4.171-4.556,7.079s-1.792,6.165-5.049,6.42a1.258,1.258,0,0,1-.927-.206,1.534,1.534,0,0,1-.394-.793,17.343,17.343,0,0,0-2.141-4.785,3.752,3.752,0,0,0-2.688,2.854,16.057,16.057,0,0,0-.251,4.126,26.7,26.7,0,0,1-.506,5.237A17.172,17.172,0,1,1,335.03,32.48q.151.2.3.4Z" transform="translate(-192.778 -14.244)"/><path class="p" d="M317.175,20.581a9.485,9.485,0,0,1,2.464-.309l10.335-.385c1.514-.058,3.2-.193,4.22-1.317a3.943,3.943,0,0,0,.789-1.474,6.361,6.361,0,0,0-.667-5.21c-1.2-1.9-3.293-3.011-5.291-4.032A61.461,61.461,0,0,0,323.3,5.165a30.464,30.464,0,0,0-22.445.323,9.07,9.07,0,0,0-2,1.071,10.322,10.322,0,0,0-2.177,2.6l-3.4,5.125a7.059,7.059,0,0,0-1.071,2.07c-.641,2.433,1.344,4.865,1.138,7.37-.116,1.245-.775,2.388-.9,3.633a8.736,8.736,0,0,0,1.295,4.6l5.976,12.056a26.713,26.713,0,0,0,1.447-8.736,15.478,15.478,0,0,1,.251-4.126,3.78,3.78,0,0,1,2.688-2.854,17.278,17.278,0,0,1,2.146,4.785,1.513,1.513,0,0,0,.394.793,1.254,1.254,0,0,0,.927.206c3.275-.255,4.928-3.481,5.049-6.42S314.133,21.517,317.175,20.581Z" transform="translate(-186.061 -1.766)"/><path class="n" d="M190.89,469.7l4.184-1.2,63.093,3.436-6.944.9Z" transform="translate(-130.203 -258.619)"/><path class="k" d="M190.89,469.7l4.184-1.2,63.093,3.436-6.944.9Z" transform="translate(-130.203 -258.619)"/><path class="n" d="M331.035,536.651l-8.324-.775-2.921-.269v-46.3l.771-10.748.17-2.392h8.588Z" transform="translate(-201.355 -262.853)"/><path class="k" d="M328.759,536.845l-6.639-.735-2.33-.255v-43.9l.614-10.188.134-2.271h6.85Z" transform="translate(-201.355 -264.691)"/><path class="n" d="M238.18,459.468s4.144-9.09,5.882-9.372a26.743,26.743,0,0,1,4.928,0l-.282,2.634s-4.256.336-5.6,7.446Z" transform="translate(-156.307 -248.391)"/><path class="k" d="M238.18,459.468s4.144-9.09,5.882-9.372a26.743,26.743,0,0,1,4.928,0l-.282,2.634s-4.256.336-5.6,7.446Z" transform="translate(-156.307 -248.391)"/><path class="n" d="M271.231,448.13s11.142,5.542,9.686,12.038l-6.048-.336s-2.912-9.686-5.206-10.192S271.231,448.13,271.231,448.13Z" transform="translate(-173.283 -247.375)"/><path class="h" d="M293.834,172.289v.327l-.224,37.306s-5.712,31.36-7.28,32.592-35.953-2.128-35.953-2.128L234.809,135.441c-.112-17.92,12.544-17.36,12.544-17.36,1.68-2.688,9.744-4.816,9.744-4.816l4.48-4.368.143-.2a3.978,3.978,0,0,1,1.129-1.116h0c.923-.533,1.51.17,1.846.865a5.2,5.2,0,0,1,.349,1.017C283.194,122.771,293.834,172.289,293.834,172.289Z" transform="translate(-154.445 -59.29)"/><path class="k" d="M320.3,173.52v.327c-5.631-10.3-27.328-49.344-33.264-51.288l2.285-1.568s1.523-.9-1.277-1.792c0,0-4.368.56-4.48-4.7l4.623-4.57,1.129-1.116h0l1.846.865a5.2,5.2,0,0,1,.349,1.017C309.656,124,320.3,173.52,320.3,173.52Z" transform="translate(-181.356 -60.073)"/><path class="m" d="M321.3,172.52v.327c-5.631-10.3-27.328-49.343-33.264-51.288l2.285-1.568s1.523-.9-1.277-1.792c0,0-4.368.56-4.48-4.7l4.623-4.57,1.129-1.116h0l1.846.865a5.193,5.193,0,0,1,.349,1.017C310.656,123,321.3,172.52,321.3,172.52Z" transform="translate(-181.908 -59.521)"/><path class="k" d="M364.172,171.478l-.036-.054c-2.352-3.024-1.9-17.808-16.576-39.425a81.024,81.024,0,0,0,8.96,5.466l-1.035,3.414,2.24,1.2Z" transform="translate(-216.684 -72.873)"/><path class="m" d="M363.172,170.478l-.036-.054c-2.352-3.024-1.9-17.808-16.576-39.425a81.03,81.03,0,0,0,8.96,5.466l-1.035,3.414,2.24,1.2Z" transform="translate(-216.132 -72.321)"/><path class="k" d="M343.989,123.3l-.918,3.88a5.25,5.25,0,0,0,4.7,4.22l.65-1.85S344.074,126.763,343.989,123.3Z" transform="translate(-214.205 -68.071)"/><path class="o" d="M343.989,122.3l-.918,3.88a5.25,5.25,0,0,0,4.7,4.22l.65-1.85S344.074,125.763,343.989,122.3Z" transform="translate(-214.205 -67.519)"/><path class="k" d="M325.345,477.57l-2.634,59.079-2.921-.269v-46.3l.771-10.748Z" transform="translate(-201.355 -263.626)"/><path class="n" d="M190.022,500.387l-1.792,31.956,60.929,5.08,2.67-59.854Z" transform="translate(-128.734 -263.626)"/><path class="k" d="M189.23,501.394l1.192-28.224,62.407,2.867-2.97,29.837Z" transform="translate(-129.286 -261.197)"/><path class="n" d="M188.23,499.394l1.192-28.224,62.407,2.867-2.97,29.837Z" transform="translate(-128.734 -260.093)"/><rect class="q" width="7.504" height="8.736" transform="translate(85.74 239.337)"/><path class="d" d="M246.825,406.5l-1.12,3.024s-2.352,16.576.56,18.592,11.536,2.128,11.984,1.12,3.584-12.432,3.584-12.432,2.8,8.4,4.256,7.728-3.36-16.639-3.36-16.639Z" transform="translate(-159.965 -224.395)"/><path class="k" d="M246.81,371.068v16.016s11.872,2.24,17.024-1.631c0,0-4.816-15.506-3.024-19.426S246.81,371.068,246.81,371.068Z" transform="translate(-161.07 -201.507)"/><path class="o" d="M246.81,370.068v16.016s11.872,2.24,17.024-1.631c0,0-4.816-15.505-3.024-19.426S246.81,370.068,246.81,370.068Z" transform="translate(-161.07 -200.955)"/><path class="k" d="M238.389,159.979l-3.136,1.68s-.56,6.72-.9,7.616,0,9.968,0,9.968l-.152,18.368s-.484,9.744,0,13.216,1.026,16.688,1.026,16.688,3.029,12.88,1.909,17.472.112,14.9,2.016,14,19.488-4.368,20.384-5.04.448-6.944,0-7.728-3.136-11.424-2.912-13.888-.784-24.08-.784-24.08,1.68-23.072,2.352-28.448-1.344-21.168-3.136-21.392S248.022,145.979,238.389,159.979Z" transform="translate(-153.994 -84.612)"/><path class="h" d="M236.389,157.979l-3.136,1.68s-.56,6.72-.9,7.616,0,9.968,0,9.968l-.152,18.368s-.484,9.744,0,13.216,1.026,16.688,1.026,16.688,3.028,12.88,1.909,17.472.112,14.9,2.016,14,19.488-4.368,20.384-5.04.448-6.944,0-7.728-3.136-11.424-2.912-13.888-.784-24.08-.784-24.08,1.68-23.072,2.352-28.448-1.344-21.168-3.136-21.392S246.022,143.979,236.389,157.979Z" transform="translate(-152.89 -83.508)"/><g class="r" transform="translate(106.657 10.312)"><path d="M304.216,55.49a3.752,3.752,0,0,0-2.688,2.854,16.055,16.055,0,0,0-.251,4.126,26.709,26.709,0,0,1-1.443,8.736L293.854,59.15c-.116-.237-.237-.484-.354-.73a16.284,16.284,0,0,0,1.026,2.41l5.981,12.056a26.71,26.71,0,0,0,1.443-8.736,15.662,15.662,0,0,1,.251-4.126,3.773,3.773,0,0,1,2.688-2.854,17.992,17.992,0,0,1,1.16,2.119A17.476,17.476,0,0,0,304.216,55.49Z" transform="translate(-293.5 -40.952)"/><path d="M351.533,23.04a6.343,6.343,0,0,1-.107,3.338,3.96,3.96,0,0,1-.793,1.474c-1.017,1.125-2.688,1.259-4.22,1.317l-10.331.385a9.521,9.521,0,0,0-2.469.309c-3.037.936-4.444,4.171-4.556,7.079s-1.792,6.165-5.049,6.42a1.258,1.258,0,0,1-.927-.206h0c.1.291.2.587.287.9a1.479,1.479,0,0,0,.39.793,1.258,1.258,0,0,0,.927.206c3.279-.255,4.928-3.481,5.049-6.42s1.519-6.142,4.556-7.079a9.521,9.521,0,0,1,2.469-.309l10.331-.385c1.514-.058,3.2-.193,4.22-1.317a3.96,3.96,0,0,0,.793-1.474A6.362,6.362,0,0,0,351.533,23.04Z" transform="translate(-309.828 -23.04)"/></g><path class="k" d="M349.04,430.839s3.88-2.016,5.376-1.9,14.932,17.2,14.932,17.2Z" transform="translate(-217.501 -236.777)"/><path class="k" d="M251.7,175.07s-7.092,3.029-6.9,5.121S251.7,175.07,251.7,175.07Z" transform="translate(-159.956 -96.648)"/><path class="k" d="M245.065,197.17s-7.441,9.516-5.8,9.834S245.065,197.17,245.065,197.17Z" transform="translate(-156.776 -108.847)"/><path class="k" d="M302.176,229s.681,21.28-4.776,23.968Z" transform="translate(-188.996 -126.417)"/><path class="k" d="M244.76,352.791s5.251-2.984,6.456-2.388S244.76,352.791,244.76,352.791Z" transform="translate(-159.939 -193.387)"/><path class="k" d="M246.81,364.217s3.315.237,4.888-.448S246.81,364.217,246.81,364.217Z" transform="translate(-161.07 -200.687)"/><path class="k" d="M423.46,190.13s4.113,11.814,6.483,11.814" transform="translate(-258.58 -104.961)"/><path class="k" d="M292.92,694.024s7.715-2.092,8.853,0S292.92,694.024,292.92,694.024Z" transform="translate(-186.523 -382.594)"/><path class="k" d="M237.321,625.93s-1.922,2.943.618,3.839S237.321,625.93,237.321,625.93Z" transform="translate(-155.448 -345.519)"/><path class="k" d="M352.56,534.25s5.824,5.188,8.575,5.34S352.56,534.25,352.56,534.25Z" transform="translate(-219.443 -294.913)"/><ellipse class="b" cx="12.065" cy="2.038" rx="12.065" ry="2.038" transform="translate(21.832 302.399)"/><path class="f" d="M124.132,567.72s2.464,3.217-1.133,8.064-6.563,8.96-5.376,11.989c0,0,5.43-9.023,9.856-9.148S128.993,573.159,124.132,567.72Z" transform="translate(-89.613 -313.388)"/><path class="k" d="M124.31,567.72a3.868,3.868,0,0,1,.5,1.008c4.31,5.062,6.608,9.789,2.464,9.91-3.857.107-8.485,7.007-9.6,8.75a4.192,4.192,0,0,0,.13.4s5.43-9.023,9.856-9.148S129.171,573.159,124.31,567.72Z" transform="translate(-89.791 -313.388)"/><path class="s" d="M141.994,576c0,1.133-.125,2.052-.282,2.052s-.282-.9-.282-2.052.157-.6.314-.6S141.994,574.863,141.994,576Z" transform="translate(-102.901 -317.551)"/><path class="s" d="M143.809,578.966c-.995.542-1.864.869-1.935.735s.668-.69,1.662-1.232.6-.148.676,0S144.8,578.428,143.809,578.966Z" transform="translate(-103.144 -319.168)"/><path class="t" d="M95,607.019s6.881-.211,8.96-1.689,10.586-3.239,11.1-.869,10.344,11.778,2.576,11.841-18.055-1.21-20.124-2.473S95,607.019,95,607.019Z" transform="translate(-77.272 -333.029)"/><path class="u" d="M117.768,620.047c-7.768.063-18.055-1.21-20.124-2.473-1.573-.959-2.2-4.4-2.415-5.994H95s.448,5.551,2.5,6.81,12.356,2.536,20.124,2.473c2.24,0,3.015-.815,2.975-2C120.29,619.586,119.434,620.034,117.768,620.047Z" transform="translate(-77.272 -337.598)"/></g></g></svg>