<svg xmlns="http://www.w3.org/2000/svg" width="1922.823" height="6483.046" viewBox="0 0 1922.823 6483.046"><defs><style>.a{opacity:0;}.b{opacity:0.45;}.c,.d{fill:none;stroke:#000;stroke-miterlimit:10;}.c{stroke-width:2.835px;}.d{stroke-width:3px;}</style></defs><g class="a" transform="translate(1.396 -1078.583)"><g class="b" transform="translate(0 1080.264)"><rect class="c" width="1919.989" height="1080.211" transform="translate(0.021 -0.264)"/><line class="d" y2="1080" transform="translate(459.5)"/><line class="d" y2="1080" transform="translate(1460.5)"/><line class="d" x1="1920" transform="translate(0 360.5)"/><line class="d" x1="1920" transform="translate(0 720.5)"/></g><g class="b" transform="translate(0 2160.264)"><rect class="c" width="1919.989" height="1080.211" transform="translate(0.021 -0.264)"/><line class="d" y2="1080" transform="translate(459.5)"/><line class="d" y2="1080" transform="translate(1460.5)"/><line class="d" x1="1920" transform="translate(0 360.5)"/><line class="d" x1="1920" transform="translate(0 720.5)"/></g><g class="b" transform="translate(0 3240.264)"><rect class="c" width="1919.989" height="1080.211" transform="translate(0.021 -0.264)"/><line class="d" y2="1080" transform="translate(459.5)"/><line class="d" y2="1080" transform="translate(1460.5)"/><line class="d" x1="1920" transform="translate(0 360.5)"/><line class="d" x1="1920" transform="translate(0 720.5)"/></g><g class="b" transform="translate(0 4320.264)"><rect class="c" width="1919.989" height="1080.211" transform="translate(0.021 -0.264)"/><line class="d" y2="1080" transform="translate(459.5)"/><line class="d" y2="1080" transform="translate(1460.5)"/><line class="d" x1="1920" transform="translate(0 360.5)"/><line class="d" x1="1920" transform="translate(0 720.5)"/></g><g class="b" transform="translate(0 5400.264)"><rect class="c" width="1919.989" height="1080.211" transform="translate(0.021 -0.264)"/><line class="d" y2="1080" transform="translate(459.5)"/><line class="d" y2="1080" transform="translate(1460.5)"/><line class="d" x1="1920" transform="translate(0 360.5)"/><line class="d" x1="1920" transform="translate(0 720.5)"/></g><g class="b" transform="translate(0 6480.264)"><rect class="c" width="1919.989" height="1080.211" transform="translate(0.021 -0.264)"/><line class="d" y2="1080" transform="translate(459.5)"/><line class="d" y2="1080" transform="translate(1460.5)"/><line class="d" x1="1920" transform="translate(0 360.5)"/><line class="d" x1="1920" transform="translate(0 720.5)"/></g></g></svg>