<svg xmlns="http://www.w3.org/2000/svg" width="582.285" height="407.416" viewBox="0 0 582.285 407.416"><defs><style>.a,.l{fill:#6c63ff;}.a,.h,.n{opacity:0.1;}.b{fill:#aaabb0;}.c{fill:#33323d;}.d{fill:#444053;}.e{fill:#4c4981;}.f{fill:#ffb9b9;}.g{fill:#504f60;}.i{fill:#ae6e79;}.j{fill:#767d9f;}.k{fill:#fff;}.m{fill:#b96b6b;}.o{fill:#464a5f;}.p{fill:#9c9ca1;}.q{fill:#939498;}</style></defs><g transform="translate(-681.109 -200.585)"><path class="a" d="M928.829,216.241c-23.669-9-48.681-16.521-74.214-15.576-37.543,1.386-73.581,22.509-91.23,53.526-14.974,26.281-16.821,57.082-23.271,86.246-7.939,35.926-23.171,70.079-39.433,103.47-8.733,17.939-17.949,36.264-19.383,55.927-1.988,27.3,11.961,54.5,33.836,72.663s50.927,27.74,80.086,29.829c15.516,1.111,31.731.081,45.512-6.676,14.583-7.148,25.212-20.066,39.853-27.112,13.566-6.531,29.437-7.443,44.669-6.594a211.955,211.955,0,0,1,58.317,11.6c21.29,7.476,41.087,18.309,62.3,25.893s44.976,11.816,66.685,5.49c20.409-5.946,36.521-20.383,51.051-35a620.457,620.457,0,0,0,65.105-77.013c13.11-18.373,25.312-37.756,31.108-59.17,11.084-40.942-4.169-87.133-38-115.093-28.03-23.165-65.649-33.22-102.47-39.32-33.579-5.565-72.406-5.908-103.314-20.41C986.561,245.072,959.738,228,928.829,216.241Z"/><path class="b" d="M942.471,456.663v19.512h5.548l-1.074-20.946Z" transform="translate(78.388 76.373)"/><path class="b" d="M878.359,453.634v19.512h5.553L882.839,452.2Z" transform="translate(59.16 75.465)"/><rect class="b" width="7.159" height="34.733" rx="2.754" transform="translate(1027.304 496.874)"/><path class="b" d="M880.357,422.589h0a3.58,3.58,0,0,1,3.58,3.581v35.266a3.581,3.581,0,0,1-3.58,3.583h0a3.581,3.581,0,0,1-3.58-3.583V426.17A3.58,3.58,0,0,1,880.357,422.589Z" transform="translate(58.685 66.584)"/><path class="b" d="M959.964,268.929s7.16-3.044,8.234,0,1.612,29.363,1.612,29.363H963Z" transform="translate(83.635 20.092)"/><path class="b" d="M901.915,268.929s-7.165-3.044-8.239,0-1.612,29.363-1.612,29.363h6.805Z" transform="translate(63.27 20.092)"/><path class="b" d="M900.712,248.632l-1.074,21.843h4.834V248.1Z" transform="translate(65.541 14.249)"/><path class="c" d="M897.3,299.685l1.434-31.51s-.537-6.982,16.468-4.834,66.781,6.445,66.781,6.445v29.9Z" transform="translate(64.84 18.699)"/><path class="c" d="M970.371,419.2l-2.686,48.156S928.3,489.2,880.5,468.434l4.3-50.663Z" transform="translate(59.8 65.139)"/><path class="d" d="M920.85,275.334l.891,31.151h55.5l-3.223-41.173Z" transform="translate(71.903 19.413)"/><rect class="e" width="52.28" height="66.239" transform="translate(946.113 463.752)"/><path class="f" d="M910.389,424.86s7.52-5.908,8.771-4.119-4.468,9.491-6.8,8.594S910.389,424.86,910.389,424.86Z" transform="translate(68.76 65.928)"/><rect class="g" width="343.182" height="171.868" transform="translate(844.657 316.59)"/><path class="c" d="M897.71,257.339s-2.684-25.066,0-28.106,47.8-31.872,89.516,1.965c0,0,3.938.182,3.223,9.131a107.382,107.382,0,0,0,.086,17.009S900.756,263.784,897.71,257.339Z" transform="translate(64.606 4.291)"/><path class="h" d="M897.71,257.339s-2.684-25.066,0-28.106,47.8-31.872,89.516,1.965c0,0,3.938.182,3.223,9.131a107.382,107.382,0,0,0,.086,17.009S900.756,263.784,897.71,257.339Z" transform="translate(64.606 4.291)"/><path class="c" d="M897.71,259.818s-2.684-25.066,0-28.106,47.8-31.871,89.516,1.965c0,0,3.938.182,3.223,9.131a107.382,107.382,0,0,0,.086,17.009S900.756,266.263,897.71,259.818Z" transform="translate(64.606 5.035)"/><path class="e" d="M975.713,241.212s2.862,10.741,1.971,12.53-.731,6.805-.731,6.805.194,3.223-1.24,3.577-2.686.537-1.526,1.611,0,2.686,0,2.686a8.373,8.373,0,0,0,0,4.119c.629,1.612-3.674,2.283-3.308,4.3s1.569,7.7,0,7.88.537,7.159-.875,7.159-2.418,12.53-2.418,12.53-9.935-8.41-16.558-6.085c0,0,.538-6.982,2.686-9.491s1.5-8.947,1.5-8.947l10.656-32.048Z" transform="translate(80.954 12.185)"/><path class="i" d="M933.076,363.923c-2.326,2.574-4.833-11.165-4.833-11.165s-6.623,9.131-10.919,3.044c-2.976-4.216-.629-16.161,1.074-23.094.763-3.082,1.408-5.178,1.408-5.178l9.668-1.611s.031,2.1.247,4.661c.29,3.454.918,7.74,2.255,8.765C934.333,341.124,935.407,361.33,933.076,363.923Z" transform="translate(70.419 37.591)"/><path class="h" d="M931.476,232.588s-16.831-.177-20.946,8.771-4.3,12-5.908,13.427,17.541,8.954,17.541,8.954l.9,30.791a10.232,10.232,0,0,1,9.844-2.084c6.085,1.724,13.787,0,13.787,0s-.36-.65,4.656,0,20.947-7.76,20.947-7.76.263-13.471-.091-16.339S983.568,244.4,983.568,244.4s9.131-8.771-.354-11.816c0,0-3.358-5.059-11.993-5.011S931.476,232.588,931.476,232.588Z" transform="translate(67.008 8.095)"/><path class="e" d="M931.476,232.175s-16.831-.177-20.946,8.771-4.3,12-5.908,13.427,17.541,8.954,17.541,8.954l.9,30.791a10.228,10.228,0,0,1,9.844-2.084c6.085,1.724,13.787,0,13.787,0s-.36-.65,4.656,0,20.947-7.762,20.947-7.762,6.263-10.2,5.908-13.067,12.53-24.528,12.53-24.528,1.971-11.456-7.519-14.5c0,0-3.358-5.059-11.993-5.011S931.476,232.175,931.476,232.175Z" transform="translate(67.008 7.972)"/><path class="h" d="M929.176,330.565c-3.691-1.15-9.48,1.386-11.322,2.147.763-3.082,1.408-5.178,1.408-5.178l9.668-1.611S928.945,328.029,929.176,330.565Z" transform="translate(71.005 37.592)"/><path class="e" d="M909.9,248.1H904.71s-1.075,10.925,0,14.147,1.611,2.756,1.252,5.14,2.508,6.037,2.508,6.037.355,9,2.149,12.353-1.972,18.38-1.972,18.38a21.639,21.639,0,0,0,4.474,6.982c3.046,3.039,4.656,14.319,3.759,18.615a5.159,5.159,0,0,0,2.509,5.908s1.434,20.055,1.971,20.055,10.919-5.371,14.142-.72l-2.509-18.438.183-35.624s-3.406-4.48-1.612-8.417-1.434-13.25-1.434-13.25L925.474,258.5Z" transform="translate(66.92 14.249)"/><path class="c" d="M886.385,466s-7.519-1.612-7.7,0-8.953,18.083,1.972,22.918,40.1,15.216,87.545,1.789c0,0,3.039,1.074,2.326-5.548s-.715-13.965-.715-13.965-7.164-1.971-12.535-1.25S905.183,480.147,886.385,466Z" transform="translate(58.208 79.389)"/><path class="h" d="M886.385,466s-7.519-1.612-7.7,0-8.953,18.083,1.972,22.918,40.1,15.216,87.545,1.789c0,0,3.039,1.074,2.326-5.548s-.715-13.965-.715-13.965-7.164-1.971-12.535-1.25S905.183,480.147,886.385,466Z" transform="translate(58.208 79.389)"/><path class="c" d="M886.385,464.347s-7.519-1.611-7.7,0-8.953,18.084,1.972,22.918,40.1,15.216,87.545,1.789c0,0,3.039,1.074,2.326-5.548s-.715-13.964-.715-13.964-7.164-1.972-12.535-1.252S905.183,478.494,886.385,464.347Z" transform="translate(58.208 78.893)"/><path class="d" d="M917.921,253.293c-.461,2.626-1.509,5.15-1.67,7.81s.865,5.682,3.319,6.723a11.217,11.217,0,0,1,1.982.806,4.361,4.361,0,0,1,1.531,2.97,16.26,16.26,0,0,1,.187,4.415c-.134,1.483-.451,3.078.28,4.372,1.283,2.294,4.629,1.955,7.176,1.312l-.876,6.783a1.29,1.29,0,0,0,1.569,1.789,13.685,13.685,0,0,0,6.385-1.612,5.746,5.746,0,0,0,2.95-5.521c-.42-2.535-3.041-4.55-2.686-7.095.274-1.971,2.2-3.223,3.469-4.737a9.111,9.111,0,0,0,.617-10.119,11.514,11.514,0,0,0-8.851-5.436c-1.981-.2-4.044.043-5.908-.643a4.483,4.483,0,0,1-2.739-2.89" transform="translate(70.519 15.486)"/><path class="j" d="M869.481,441.194l1.873-4.082s10.12-9.426,12.445-10.087,11.815-3.538,13.249-3.538,27.574-1.435,27.574-1.435l3.041,7.165-32.8,7.2L883.8,444.475Z" transform="translate(56.497 66.423)"/><path class="f" d="M934.648,355.524l-1.713,13.185-.66,5.075-7.7,1.075s-.832-1.784-2.009-4.522c-3.572-8.314-10.3-25.458-6.4-28.418,5.183-3.943,6.445,9.131,6.445,9.131l5.908-2.868Z" transform="translate(70.147 42.167)"/><rect class="k" width="38.869" height="58.72" transform="translate(964.642 422.219)"/><rect class="h" width="38.869" height="58.72" transform="translate(964.642 422.219)"/><rect class="k" width="58.72" height="38.869" transform="matrix(0.146, -0.989, 0.989, 0.146, 973.942, 477.802)"/><rect class="l" width="30.222" height="20.006" transform="matrix(0.146, -0.989, 0.989, 0.146, 981.729, 455.151)"/><rect class="l" width="6.563" height="24.239" transform="matrix(0.146, -0.989, 0.989, 0.146, 978.647, 470.151)"/><circle class="h" cx="22.466" cy="22.466" r="22.466" transform="translate(991.233 229.137)"/><circle class="i" cx="22.466" cy="22.466" r="22.466" transform="translate(991.233 228.6)"/><path class="d" d="M925.66,265.015a2.563,2.563,0,0,1,.156-1.735c.854-1.777,3.286-1.933,5.258-1.842,4.634.216,9.721.242,13.346-2.686,1.5-1.2,3.185-4.226,5.371-3.651,1.943.51,2.755,3.147,4.78,3.732,1.466.425,2.986-.252,4.48-.537,2.147-.424,4.349-.069,6.531-.053s4.548-.4,6.037-1.993c2.008-2.149,1.681-5.505,1.5-8.448a45.436,45.436,0,0,1,.768-11.354c.729-3.718,1.852-7.874-.2-11.06-1.955-3.034-6.006-3.866-8.771-6.192-2.589-2.149-3.958-5.591-6.692-7.584-3.443-2.509-8.122-2.149-12.353-1.713l-9.184.978c-2.37.252-4.834.537-6.784,1.949-3.518,2.547-4,7.837-7.332,10.624-1.482,1.235-3.377,1.847-5.07,2.771s-3.324,2.384-3.518,4.3c-.161,1.612.708,3.1,1.134,4.651,1,3.706-.564,7.52-1.569,11.252s-1.2,8.266,1.718,10.741c.592.506,1.279.892,1.854,1.418,1.971,1.8,2.24,4.834,1.784,7.455" transform="translate(69.515 2.7)"/><ellipse class="d" cx="0.537" cy="1.343" rx="0.537" ry="1.343" transform="translate(1014.994 276.443)"/><ellipse class="d" cx="0.537" cy="1.343" rx="0.537" ry="1.343" transform="translate(1014.994 282.04)"/><path class="i" d="M930.414,358.029c.575-.662.957-2.358,1.176-4.6l-6.4-7.982S927.9,360.923,930.414,358.029Z" transform="translate(73.205 43.448)"/><path class="h" d="M955.213,464.892s-10.5,16.241-43.326,14.5c-30.92-1.611-46.012-16.826-45.293-22.2s-1.971-18.443,4.651-22.2c3.841-2.176,8.894-.887,12.461.585a7.035,7.035,0,0,0,7.4-1.326c3.26-2.938,9.34-6.247,18.939-3.642a6.82,6.82,0,0,0,3.759-.069c4-1.219,13.507-3.336,20.409,1.364a6.981,6.981,0,0,0,7.476.285l.1-.058c3.223-1.972,18.26,16.649,18.26,16.649S960.761,463.1,955.213,464.892Z" transform="translate(55.624 68.505)"/><path class="j" d="M955.213,465.3s-10.5,16.241-43.326,14.5c-30.92-1.612-46.012-16.827-45.293-22.2s-1.971-18.443,4.651-22.2c3.841-2.175,8.894-.887,12.461.585a7.035,7.035,0,0,0,7.4-1.326c3.26-2.938,9.34-6.246,18.939-3.641a6.832,6.832,0,0,0,3.759-.07c4-1.219,13.507-3.336,20.409,1.364a6.981,6.981,0,0,0,7.476.285l.1-.059c3.223-1.972,18.26,16.649,18.26,16.649S960.761,463.516,955.213,465.3Z" transform="translate(55.624 68.629)"/><circle class="h" cx="21.398" cy="21.398" r="21.398" transform="translate(946.113 497.497)"/><circle class="f" cx="21.398" cy="21.398" r="21.398" transform="translate(946.113 498.034)"/><path class="m" d="M900.784,431.754c-2.245.607-4.457,1.767-5.553,3.674-.66,1.149-.892,2.53-1.847,3.486-1.353,1.358-3.636,1.386-5.468,2.148s-3.04,3.449-1.247,4.3a4,4,0,0,0-3.485,3.533,10.5,10.5,0,0,0,1.048,5.054c2.051,5.285,4.259,10.8,8.781,14.56,7.369,6.133,18.476,5.848,28.375,5.2a4.645,4.645,0,0,0,2.326-.538c1.074-.708,1.208-2.067,1.386-3.26.746-5.091,3.507-9.716,5.312-14.576s2.545-10.57-.494-14.872C925.442,434.08,908.314,429.713,900.784,431.754Z" transform="translate(60.592 69.181)"/><path class="h" d="M931.187,362.425l-.66,5.075-7.7,1.075s-.832-1.784-2.009-4.522l10.242-1.923Z" transform="translate(71.895 48.451)"/><path class="j" d="M939.61,474.439l4.479-5.193-.9-28.643a46.521,46.521,0,0,0,.9-6.268c.177-3.046-2.24-9.844-2.24-9.844a21.317,21.317,0,0,1,1.52-3.943c1.074-2.149-1.514-6.982-1.514-6.982s-3.857-12.53-2.245-18.8-.393-9.844-.393-9.844-1.573-6.983-1.4-9.846-3.583-5.553-3.583-5.553l-2.862-6.982-11.456,2.149V388.86s.715,23.094,0,27.574a16.382,16.382,0,0,0,1.429,8.771s-1.252,6.623-.177,9.131,3.223,8.594,3.223,8.594a13.956,13.956,0,0,0,.36,6.531c1.074,3.137,0,4.925,0,4.925Z" transform="translate(71.581 48.575)"/><g class="n" transform="translate(982.422 231.666)"><path d="M960.017,230.209a45.471,45.471,0,0,0-.811,9.544,45.734,45.734,0,0,1,.833-7.927,30.732,30.732,0,0,0,.945-7.332A44.718,44.718,0,0,1,960.017,230.209Z" transform="translate(-899.017 -224.495)"/><path d="M917.137,247.515c-.574-.537-1.262-.914-1.852-1.423a7.368,7.368,0,0,1-2.358-5.371c-.156,2.686.393,5.285,2.358,6.982.59.511,1.278.9,1.852,1.423a6.569,6.569,0,0,1,1.945,4.485C919.238,251.355,918.782,249.007,917.137,247.515Z" transform="translate(-912.902 -219.629)"/><path d="M915.175,232.089a10.134,10.134,0,0,0-.29-3.379c-.311-1.149-.87-2.271-1.074-3.427a3.446,3.446,0,0,1-.06.387c-.155,1.611.715,3.1,1.134,4.651A9.049,9.049,0,0,1,915.175,232.089Z" transform="translate(-912.653 -224.258)"/><path d="M970.236,245.216c-1.487,1.611-3.855,2.008-6.037,1.993s-4.387-.37-6.531.059c-1.492.3-3.013.972-4.479.537-2.024-.585-2.835-3.223-4.775-3.732-2.207-.58-3.888,2.444-5.37,3.646-3.625,2.9-8.712,2.874-13.348,2.686-1.971-.091-4.4.065-5.252,1.847a2.487,2.487,0,0,0-.156,1.735l-6.563,1.031a12.889,12.889,0,0,1-.177,1.612l6.74-1.075a2.483,2.483,0,0,1,.156-1.734c.848-1.784,3.281-1.939,5.252-1.848,4.635.216,9.722.242,13.348-2.684,1.5-1.2,3.185-4.227,5.37-3.648,1.939.506,2.751,3.147,4.775,3.733,1.466.419,2.987-.252,4.479-.537,2.149-.43,4.351-.075,6.531-.06s4.55-.4,6.037-1.993,1.7-3.974,1.612-6.294A7.011,7.011,0,0,1,970.236,245.216Z" transform="translate(-911.508 -219.698)"/></g><g class="n" transform="translate(986.856 278.076)"><path d="M920.889,264.767a10.884,10.884,0,0,0-1.981-.806,5.123,5.123,0,0,1-2.595-2.653,5.747,5.747,0,0,0,3.131,4.265,10.874,10.874,0,0,1,1.981.806,2.976,2.976,0,0,1,.952,1.111A4.143,4.143,0,0,0,920.889,264.767Z" transform="translate(-916.313 -259.864)"/><path d="M928.521,274.286c-2.475.628-5.709.955-7.068-1.144a3.687,3.687,0,0,0,.429,1.444c1.161,2.068,4,2,6.409,1.487Z" transform="translate(-914.771 -256.314)"/><path d="M937.029,275.154a5.762,5.762,0,0,1-2.953,5.5,14.04,14.04,0,0,1-6.386,1.611,2.186,2.186,0,0,1-1.041-.118,1.279,1.279,0,0,0,1.578,1.73,13.691,13.691,0,0,0,6.387-1.612c1.9-1.166,3.313-3.336,2.948-5.521A6.079,6.079,0,0,0,937.029,275.154Z" transform="translate(-913.247 -255.711)"/><path d="M937.621,260.2a8.841,8.841,0,0,1-1.612,7.6c-1.267,1.537-3.2,2.766-3.469,4.737a4.481,4.481,0,0,0,.537,2.617,3.517,3.517,0,0,1,0-1c.274-1.971,2.2-3.222,3.469-4.737A9.036,9.036,0,0,0,937.621,260.2Z" transform="translate(-911.453 -260.197)"/></g><g class="n" transform="translate(943.727 500.19)"><path d="M887.306,441.943c1.826-.757,4.109-.784,5.468-2.148.957-.957,1.187-2.336,1.847-3.481,1.075-1.911,3.3-3.067,5.548-3.674,7.52-2.041,24.663,2.32,29.133,8.642a11.745,11.745,0,0,1,2.051,6.488,12.131,12.131,0,0,0-2.046-7.556c-4.469-6.322-21.6-10.683-29.131-8.642-2.245.607-4.459,1.761-5.548,3.674-.662,1.144-.892,2.524-1.849,3.481-1.358,1.358-3.641,1.386-5.467,2.147-1.391.575-2.422,2.272-2.046,3.411A3.7,3.7,0,0,1,887.306,441.943Z" transform="translate(-882.52 -431.064)"/><path d="M883.195,446.464a3.987,3.987,0,0,1,3.486-3.534,1.432,1.432,0,0,1-.823-.918,4.172,4.172,0,0,0-2.684,3.377,5.577,5.577,0,0,0,0,1.317A.948.948,0,0,0,883.195,446.464Z" transform="translate(-883.135 -427.781)"/></g><rect class="k" width="48.875" height="63.736" transform="translate(1008.683 324.238)"/><rect class="h" width="48.875" height="63.736" transform="translate(1008.683 324.238)"/><rect class="k" width="48.875" height="63.736" transform="matrix(0.986, -0.17, 0.17, 0.986, 1028.064, 336.263)"/><rect class="l" width="11.483" height="14.974" transform="matrix(0.986, -0.17, 0.17, 0.986, 1039.738, 379.083)"/><rect class="l" width="11.483" height="14.974" transform="matrix(0.986, -0.17, 0.17, 0.986, 1055.398, 376.387)"/><rect class="l" width="40.268" height="15.041" transform="translate(1038.094 359.634) rotate(-9.744)"/><rect class="l" width="40.268" height="3.356" transform="translate(1034.786 341.941) rotate(-9.744)"/><rect class="l" width="40.268" height="3.356" transform="translate(1036.087 348.025) rotate(-9.744)"/><path class="i" d="M957.558,282.388s-22.467,22.558-11.187,28.289,18.62-19.067,18.62-19.067l1.783-5.639Z" transform="translate(78.608 24.535)"/><path class="h" d="M953.375,281.6l-2.777,6.134s13.7,1.923,16.558,6.063l-1.7-10.822-2.014-4.619Z" transform="translate(80.826 23.326)"/><path class="e" d="M953.788,281.19l-2.777,6.134s13.7,1.923,16.558,6.063l-1.7-10.822-2.014-4.619Z" transform="translate(80.95 23.203)"/><path class="o" d="M1016.992,367.2l-.3.2.408.183.44-.038.054-.306Z" transform="translate(100.65 49.97)"/><path class="h" d="M1016.992,367.2l-.3.2.408.183.44-.038.054-.306Z" transform="translate(100.65 49.97)"/><path class="p" d="M1017.048,367.282l-.3.193-.236-.29.145-.236.134-.043Z" transform="translate(100.594 49.883)"/><path class="h" d="M1017.048,367.282l-.3.193-.236-.29.145-.236.134-.043Z" transform="translate(100.594 49.883)"/><path class="p" d="M1075.077,346.23l-21.988-31.758a2.616,2.616,0,0,0-3.637-.673l-.005,0-49.013,33.643a2.626,2.626,0,0,0-.682,3.646l21.93,32.161Z" transform="translate(95.43 33.817)"/><path class="h" d="M1075.077,346.23l-21.988-31.758a2.616,2.616,0,0,0-3.637-.673l-.005,0-49.013,33.643a2.626,2.626,0,0,0-.682,3.646l21.93,32.161Z" transform="translate(95.43 33.817)"/><path class="p" d="M1075.491,346.288,1053.5,314.53a2.621,2.621,0,0,0-3.645-.672h0l-49.01,33.664a2.633,2.633,0,0,0-.688,3.648l21.93,32.177Z" transform="translate(95.554 33.834)"/><path class="o" d="M1088.68,344.882l-18.261-5.865-53.409,37.022,18.551,6.069a2.808,2.808,0,0,0,2.487-.377l50.782-35.856a.537.537,0,0,0-.15-.993Z" transform="translate(100.744 41.519)"/><path class="h" d="M1088.68,344.882l-18.261-5.865-53.409,37.022,18.551,6.069a2.808,2.808,0,0,0,2.487-.377l50.782-35.856a.537.537,0,0,0-.15-.993Z" transform="translate(100.744 41.519)"/><path class="o" d="M1088.593,344.6l-18.261-5.87-53.407,37.022,18.551,6.058a2.785,2.785,0,0,0,2.486-.37l50.783-35.856a.537.537,0,0,0-.151-.983Z" transform="translate(100.718 41.432)"/><g class="n" transform="translate(1109.487 365.401)"><path d="M1052.364,338.105l-1.349-1.933a.537.537,0,0,0-.729-.135l-2,1.338a.538.538,0,0,0-.144.725l1.24,1.907a.539.539,0,0,0,.725.156l2.111-1.327A.539.539,0,0,0,1052.364,338.105Z" transform="translate(-999.432 -324.802)"/><path d="M1049.6,340.021l-1.353-1.928a.537.537,0,0,0-.731-.134l-2,1.348a.536.536,0,0,0-.15.725l1.24,1.906a.537.537,0,0,0,.725.161l2.116-1.326a.538.538,0,0,0,.156-.744Z" transform="translate(-1000.263 -324.226)"/><path d="M1046.689,342.033l-1.354-1.928a.535.535,0,0,0-.729-.134l-2,1.348a.537.537,0,0,0-.144.731l1.24,1.907a.537.537,0,0,0,.725.155l2.111-1.326a.538.538,0,0,0,.162-.742Z" transform="translate(-1001.136 -323.622)"/><path d="M1043.741,344.075l-1.353-1.933a.537.537,0,0,0-.725-.134l-2,1.353a.537.537,0,0,0-.146.725l1.24,1.906a.537.537,0,0,0,.72.161l2.116-1.331a.538.538,0,0,0,.152-.745Z" transform="translate(-1002.018 -323.011)"/><path d="M1040.8,346.111l-1.353-1.928a.537.537,0,0,0-.731-.134l-2,1.348a.538.538,0,0,0-.151.725l1.242,1.906a.535.535,0,0,0,.724.161l2.116-1.331a.537.537,0,0,0,.152-.745Z" transform="translate(-1002.901 -322.399)"/><path d="M1038.05,348.415l-1.681-2.394a.241.241,0,0,0-.335-.068l0,0-2.461,1.66a.241.241,0,0,0-.072.334l0,0,1.542,2.368a.247.247,0,0,0,.338.075l2.6-1.612a.246.246,0,0,0,.092-.337A.193.193,0,0,0,1038.05,348.415Z" transform="translate(-1003.809 -321.814)"/><path d="M1035.112,350.453l-1.693-2.4a.246.246,0,0,0-.343-.064h0l-2.461,1.66a.246.246,0,0,0-.064.338l1.541,2.368a.236.236,0,0,0,.323.085l.016-.009,2.594-1.612a.241.241,0,0,0,.117-.321A.293.293,0,0,0,1035.112,350.453Z" transform="translate(-1004.693 -321.203)"/><path d="M1032.5,352.252l-1.681-2.375a.248.248,0,0,0-.338-.059l-2.46,1.655a.251.251,0,0,0-.07.343l1.542,2.368a.252.252,0,0,0,.338.075l2.6-1.612a.246.246,0,0,0,.117-.329A.225.225,0,0,0,1032.5,352.252Z" transform="translate(-1005.473 -320.655)"/><path d="M1029.584,354.273l-1.681-2.4a.246.246,0,0,0-.338-.059l-2.46,1.654a.248.248,0,0,0-.071.343h0l1.542,2.368a.253.253,0,0,0,.338.075l2.6-1.612a.253.253,0,0,0,.091-.344A.194.194,0,0,0,1029.584,354.273Z" transform="translate(-1006.348 -320.055)"/><path d="M1026.758,356.216l-1.681-2.4a.242.242,0,0,0-.335-.066l0,0-2.459,1.659a.241.241,0,0,0-.073.334l0,.005,1.542,2.368a.246.246,0,0,0,.338.074l2.6-1.611a.247.247,0,0,0,.092-.337A.192.192,0,0,0,1026.758,356.216Z" transform="translate(-1007.196 -319.474)"/><path d="M1023.928,358.191l-1.665-2.4a.247.247,0,0,0-.338-.06l-2.459,1.655a.247.247,0,0,0-.072.342h0l1.542,2.37a.252.252,0,0,0,.338.074l2.6-1.611a.245.245,0,0,0,.075-.341Z" transform="translate(-1008.039 -318.882)"/><path d="M1021.106,360.145l-1.681-2.4a.242.242,0,0,0-.335-.066l0,0-2.461,1.648a.243.243,0,0,0-.073.334l0,0,1.54,2.37a.248.248,0,0,0,.339.074l2.6-1.611a.248.248,0,0,0,.083-.339Z" transform="translate(-1008.891 -318.296)"/><path d="M1050.5,335.415l-1.353-1.933a.537.537,0,0,0-.73-.134l-1.981,1.353a.538.538,0,0,0-.151.725l1.24,1.906a.536.536,0,0,0,.725.156l2.116-1.326A.537.537,0,0,0,1050.5,335.415Z" transform="translate(-999.986 -325.609)"/><path d="M1046.436,329.538l-1.354-1.945a.537.537,0,0,0-.724-.134l-2,1.348a.537.537,0,0,0-.151.725l1.24,1.907a.538.538,0,0,0,.725.161l2.116-1.327A.538.538,0,0,0,1046.436,329.538Z" transform="translate(-1001.211 -327.374)"/><path d="M1047.732,337.332l-1.353-1.929a.538.538,0,0,0-.725-.134l-2,1.348a.537.537,0,0,0-.146.725l1.236,1.907a.536.536,0,0,0,.724.161l2.116-1.327a.537.537,0,0,0,.156-.744Z" transform="translate(-1000.821 -325.032)"/><path d="M1044.825,339.344l-1.353-1.929a.538.538,0,0,0-.73-.134l-2,1.332a.538.538,0,0,0-.151.731l1.241,1.906a.536.536,0,0,0,.725.156l2.115-1.326A.537.537,0,0,0,1044.825,339.344Z" transform="translate(-1001.695 -324.429)"/><path d="M1041.877,341.387l-1.348-1.934a.538.538,0,0,0-.73-.134l-2,1.37a.536.536,0,0,0-.145.724l1.24,1.907a.537.537,0,0,0,.725.156l2.111-1.327a.536.536,0,0,0,.164-.741Z" transform="translate(-1002.577 -323.818)"/><path d="M1043.729,331.547l-1.353-1.928a.537.537,0,0,0-.725-.134l-2,1.348a.535.535,0,0,0-.15.724l1.24,1.907a.537.537,0,0,0,.725.161l2.116-1.326a.538.538,0,0,0,.156-.744Z" transform="translate(-1002.022 -326.767)"/><path d="M1040.821,333.564l-1.354-1.933a.535.535,0,0,0-.729-.134l-2,1.331a.537.537,0,0,0-.151.725l1.24,1.907a.539.539,0,0,0,.725.156l2.116-1.327A.538.538,0,0,0,1040.821,333.564Z" transform="translate(-1002.895 -326.164)"/><path d="M1037.874,335.6l-1.353-1.928a.537.537,0,0,0-.725-.139l-2,1.369a.537.537,0,0,0-.146.725l1.241,1.907a.536.536,0,0,0,.724.161l2.111-1.332a.537.537,0,0,0,.165-.741Z" transform="translate(-1003.777 -325.552)"/><path d="M1038.933,343.423l-1.354-1.929a.536.536,0,0,0-.724-.139l-1.988,1.353a.537.537,0,0,0-.146.725l1.219,1.907a.538.538,0,0,0,.72.161l2.116-1.332a.537.537,0,0,0,.157-.744Z" transform="translate(-1003.455 -323.206)"/><path d="M1036,345.459l-1.353-1.929a.538.538,0,0,0-.731-.134l-2,1.348a.538.538,0,0,0-.151.725l1.24,1.907a.538.538,0,0,0,.725.161l2.116-1.327a.537.537,0,0,0,.156-.744Z" transform="translate(-1004.342 -322.595)"/><path d="M1033.245,347.762l-1.681-2.394a.24.24,0,0,0-.335-.066h0l-2.461,1.66a.243.243,0,0,0-.073.334l0,0,1.54,2.369a.242.242,0,0,0,.333.079l.007,0,2.6-1.611a.247.247,0,0,0,.094-.338A.267.267,0,0,0,1033.245,347.762Z" transform="translate(-1005.25 -322.009)"/><path d="M1030.636,349.568l-1.681-2.4a.246.246,0,0,0-.338-.059l-2.456,1.654a.253.253,0,0,0-.069.344l1.541,2.368a.255.255,0,0,0,.339.075l2.6-1.612a.236.236,0,0,0,.1-.318A.21.21,0,0,0,1030.636,349.568Z" transform="translate(-1006.03 -321.468)"/><path d="M1027.721,351.583l-1.681-2.394a.247.247,0,0,0-.338-.06l-2.461,1.655a.243.243,0,0,0-.073.334l0,0,1.54,2.374a.253.253,0,0,0,.339.075l2.6-1.612a.251.251,0,0,0,.091-.344A.235.235,0,0,0,1027.721,351.583Z" transform="translate(-1006.907 -320.862)"/><path d="M1024.9,353.543l-1.681-2.4a.242.242,0,0,0-.335-.066h0l-2.459,1.639a.241.241,0,0,0-.073.333l0,.005,1.542,2.368a.248.248,0,0,0,.339.075l2.6-1.612a.245.245,0,0,0,.075-.341Z" transform="translate(-1007.754 -320.276)"/><path d="M1042.885,336.547l-1.353-1.929a.538.538,0,0,0-.725-.134l-2,1.353a.538.538,0,0,0-.144.725l1.24,1.907a.539.539,0,0,0,.72.156l2.116-1.327a.537.537,0,0,0,.156-.744Z" transform="translate(-1002.274 -325.267)"/><path d="M1039.941,338.59l-1.354-1.934a.537.537,0,0,0-.731-.134l-2,1.353a.538.538,0,0,0-.15.725l1.24,1.907a.538.538,0,0,0,.725.161l2.116-1.332a.538.538,0,0,0,.152-.745Z" transform="translate(-1003.159 -324.657)"/><path d="M1037,340.625l-1.353-1.929a.537.537,0,0,0-.73-.134l-2,1.348a.537.537,0,0,0-.146.725l1.241,1.907a.536.536,0,0,0,.724.16l2.111-1.331a.537.537,0,0,0,.159-.744Z" transform="translate(-1004.04 -324.045)"/><path d="M1034.056,342.661l-1.353-1.928a.537.537,0,0,0-.725-.134l-2,1.348a.537.537,0,0,0-.146.725l1.241,1.928a.535.535,0,0,0,.719.161l2.116-1.327a.538.538,0,0,0,.174-.74Z" transform="translate(-1004.922 -323.433)"/><path d="M1031.328,344.965l-1.681-2.394a.241.241,0,0,0-.335-.068l0,0-2.461,1.66a.248.248,0,0,0-.07.338l1.542,2.374a.241.241,0,0,0,.334.073l.005,0,2.6-1.612a.246.246,0,0,0,.094-.337A.2.2,0,0,0,1031.328,344.965Z" transform="translate(-1005.824 -322.848)"/><path d="M1028.7,346.771l-1.681-2.4a.252.252,0,0,0-.343-.058l-2.454,1.654a.253.253,0,0,0-.07.344l1.542,2.368a.246.246,0,0,0,.338.074l2.6-1.611a.247.247,0,0,0,.092-.337A.205.205,0,0,0,1028.7,346.771Z" transform="translate(-1006.611 -322.307)"/><path d="M1025.787,348.779l-1.681-2.4a.252.252,0,0,0-.343-.059l-2.461,1.654a.259.259,0,0,0-.069.344l1.547,2.368a.246.246,0,0,0,.338.074l2.595-1.611a.243.243,0,0,0,.105-.325A.292.292,0,0,0,1025.787,348.779Z" transform="translate(-1007.487 -321.704)"/><path d="M1022.961,350.747l-1.681-2.4a.247.247,0,0,0-.343-.065h0l-2.461,1.66a.246.246,0,0,0-.064.338l1.542,2.368a.236.236,0,0,0,.322.086l.016-.01,2.595-1.611a.244.244,0,0,0,.105-.326A.267.267,0,0,0,1022.961,350.747Z" transform="translate(-1008.334 -321.115)"/><path d="M1022.069,355.5l-1.681-2.4a.247.247,0,0,0-.339-.058l-2.459,1.653a.243.243,0,0,0-.073.334l0,.005,1.542,2.374a.253.253,0,0,0,.338.075l2.6-1.612a.251.251,0,0,0,.091-.345A.189.189,0,0,0,1022.069,355.5Z" transform="translate(-1008.602 -319.688)"/><path d="M1019.243,357.455l-1.681-2.394a.241.241,0,0,0-.335-.068l0,0-2.459,1.66a.243.243,0,0,0-.073.334l0,0,1.542,2.368a.247.247,0,0,0,.338.075l2.6-1.612a.248.248,0,0,0,.094-.337Z" transform="translate(-1009.449 -319.102)"/><path d="M1023.667,345.721l-1.611-2.255a.332.332,0,0,0-.456-.081l-2.32,1.563a.327.327,0,0,0-.094.454v0l1.451,2.229a.323.323,0,0,0,.443.108l.008-.005,2.454-1.542a.333.333,0,0,0,.136-.451Z" transform="translate(-1008.106 -322.589)"/><path d="M1020.835,347.682l-1.585-2.257a.328.328,0,0,0-.455-.087h0l-2.32,1.59a.323.323,0,0,0-.095.446l0,.005,1.451,2.235a.332.332,0,0,0,.451.1l2.454-1.54a.334.334,0,0,0,.124-.455A.211.211,0,0,0,1020.835,347.682Z" transform="translate(-1008.947 -322.003)"/><path d="M1018.009,349.639l-1.585-2.261a.331.331,0,0,0-.456-.081l-2.32,1.563a.327.327,0,0,0-.092.454v0l1.451,2.229a.32.32,0,0,0,.442.107l.009-.005,2.454-1.542a.328.328,0,0,0,.108-.45Z" transform="translate(-1009.795 -321.415)"/><path d="M1015.239,351.671l-1.681-2.4a.246.246,0,0,0-.338-.059l-2.461,1.654a.252.252,0,0,0-.069.344l1.542,2.368a.253.253,0,0,0,.338.075l2.6-1.612a.239.239,0,0,0,.107-.317A.219.219,0,0,0,1015.239,351.671Z" transform="translate(-1010.65 -320.837)"/><path d="M1049.489,332.554l-1.456-2.067a.537.537,0,0,0-.73-.13l-5.682,3.98a.536.536,0,0,0-.139.72l1.369,2.116a.539.539,0,0,0,.746.146h0l5.768-4.034A.538.538,0,0,0,1049.489,332.554Z" transform="translate(-1001.428 -326.506)"/><path d="M1021,352.671l-1.783-2.519a.242.242,0,0,0-.335-.065l-.008.007-6.133,4.3a.242.242,0,0,0-.065.333l1.676,2.595a.249.249,0,0,0,.342.075l.008-.005,6.234-4.366A.252.252,0,0,0,1021,352.671Z" transform="translate(-1010.055 -320.574)"/><path d="M1037.7,337.825l-1.643-2.406a.245.245,0,0,0-.338-.065l-13.621,9.194a.248.248,0,0,0-.07.339l1.681,2.578a.249.249,0,0,0,.342.075l.008-.005,13.578-9.367a.247.247,0,0,0,.065-.343Z" transform="translate(-1007.248 -324.993)"/></g><path class="o" d="M1052.641,338.155l-1.353-1.934a.538.538,0,0,0-.73-.134l-2,1.353a.537.537,0,0,0-.149.725l1.24,1.907a.538.538,0,0,0,.725.161l2.116-1.332a.538.538,0,0,0,.152-.744Z" transform="translate(110.137 40.614)"/><path class="o" d="M1049.857,340.071l-1.355-1.928a.537.537,0,0,0-.724-.135l-2,1.348a.537.537,0,0,0-.151.725l1.24,1.907a.538.538,0,0,0,.725.161l2.116-1.327a.537.537,0,0,0,.156-.744Z" transform="translate(109.302 41.191)"/><path class="o" d="M1046.964,342.087l-1.353-1.928a.537.537,0,0,0-.731-.134l-2,1.353a.536.536,0,0,0-.149.725l1.24,1.906a.536.536,0,0,0,.725.156l2.116-1.326a.537.537,0,0,0,.156-.744Z" transform="translate(108.434 41.795)"/><path class="o" d="M1044.015,344.125l-1.353-1.933a.538.538,0,0,0-.725-.135l-2,1.355a.535.535,0,0,0-.143.745l0,.006,1.24,1.907a.538.538,0,0,0,.725.161l2.111-1.332a.537.537,0,0,0,.167-.741Z" transform="translate(107.549 42.405)"/><path class="o" d="M1041.072,346.161l-1.354-1.928a.537.537,0,0,0-.724-.135l-2,1.348a.537.537,0,0,0-.146.725l1.235,1.907a.537.537,0,0,0,.725.161l2.116-1.332a.537.537,0,0,0,.152-.744Z" transform="translate(106.668 43.017)"/><path class="o" d="M1038.323,348.465l-1.681-2.4a.242.242,0,0,0-.335-.066l0,0-2.459,1.659a.243.243,0,0,0-.073.334l0,0,1.542,2.37a.248.248,0,0,0,.339.074l2.6-1.611a.246.246,0,0,0,.094-.337A.2.2,0,0,0,1038.323,348.465Z" transform="translate(105.76 43.602)"/><path class="o" d="M1035.381,350.5l-1.681-2.4a.247.247,0,0,0-.343-.065h0l-2.456,1.66a.243.243,0,0,0-.073.334l0,0,1.541,2.375a.243.243,0,0,0,.334.073l.005,0,2.6-1.611a.254.254,0,0,0,.087-.347Z" transform="translate(104.877 44.213)"/><path class="o" d="M1032.774,352.307l-1.681-2.4a.247.247,0,0,0-.338-.059l-2.461,1.633a.251.251,0,0,0-.069.343l1.541,2.37a.253.253,0,0,0,.339.074l2.6-1.611a.247.247,0,0,0,.075-.342Z" transform="translate(104.096 44.754)"/><path class="o" d="M1029.857,354.324l-1.681-2.38a.246.246,0,0,0-.338-.059l-2.461,1.654a.249.249,0,0,0-.07.343h0l1.541,2.368a.253.253,0,0,0,.339.075l2.6-1.612a.245.245,0,0,0,.07-.391Z" transform="translate(103.22 45.365)"/><path class="o" d="M1027.031,356.282l-1.681-2.4a.242.242,0,0,0-.335-.066l0,0-2.461,1.659a.243.243,0,0,0-.073.334l0,.005,1.54,2.368a.242.242,0,0,0,.333.078l.007,0,2.6-1.612a.246.246,0,0,0,.094-.337A.2.2,0,0,0,1027.031,356.282Z" transform="translate(102.373 45.946)"/><path class="o" d="M1024.2,358.24l-1.681-2.4a.249.249,0,0,0-.339-.06l-2.459,1.655a.252.252,0,0,0-.07.343l1.542,2.368a.254.254,0,0,0,.339.075l2.6-1.612a.246.246,0,0,0,.094-.337A.267.267,0,0,0,1024.2,358.24Z" transform="translate(101.526 46.534)"/><path class="o" d="M1021.379,360.2l-1.681-2.4a.242.242,0,0,0-.335-.066h0l-2.459,1.66a.243.243,0,0,0-.073.334l0,0,1.542,2.368a.241.241,0,0,0,.333.079l.005,0,2.6-1.611a.246.246,0,0,0,.094-.337A.322.322,0,0,0,1021.379,360.2Z" transform="translate(100.678 47.12)"/><path class="o" d="M1050.777,335.477l-1.353-1.933a.537.537,0,0,0-.725-.134l-2,1.353a.537.537,0,0,0-.146.725l1.236,1.906a.535.535,0,0,0,.724.161l2.116-1.331a.537.537,0,0,0,.152-.745Z" transform="translate(109.579 39.811)"/><path class="o" d="M1046.707,329.585l-1.353-1.929a.538.538,0,0,0-.725-.134l-2,1.348a.538.538,0,0,0-.144.725l1.24,1.907a.538.538,0,0,0,.72.161l2.116-1.327a.538.538,0,0,0,.156-.744Z" transform="translate(108.359 38.045)"/><path class="o" d="M1048.005,337.383l-1.354-1.938a.537.537,0,0,0-.724-.135l-2,1.348a.537.537,0,0,0-.146.725l1.24,1.907a.539.539,0,0,0,.72.161l2.116-1.327A.538.538,0,0,0,1048.005,337.383Z" transform="translate(108.748 40.381)"/><path class="o" d="M1045.092,339.393l-1.333-1.928a.537.537,0,0,0-.725-.134l-2,1.348a.537.537,0,0,0-.145.731l1.235,1.906a.536.536,0,0,0,.725.156l2.116-1.326a.538.538,0,0,0,.131-.749Z" transform="translate(107.88 40.987)"/><path class="o" d="M1042.155,341.435,1040.8,339.5a.537.537,0,0,0-.731-.134l-2,1.353a.538.538,0,0,0-.151.725l1.241,1.906a.537.537,0,0,0,.725.161l2.115-1.331a.537.537,0,0,0,.152-.745Z" transform="translate(106.992 41.598)"/><path class="o" d="M1044,331.6l-1.353-1.939a.537.537,0,0,0-.725-.134l-2,1.348a.537.537,0,0,0-.146.725l1.241,1.907a.536.536,0,0,0,.719.16l2.116-1.326A.537.537,0,0,0,1044,331.6Z" transform="translate(107.547 38.646)"/><path class="o" d="M1041.093,333.614l-1.353-1.933a.538.538,0,0,0-.725-.135l-2,1.354a.535.535,0,0,0-.149.724l1.24,1.907a.537.537,0,0,0,.725.161l2.116-1.332a.537.537,0,0,0,.151-.744Z" transform="translate(106.674 39.252)"/><path class="o" d="M1038.152,335.65l-1.354-1.928a.537.537,0,0,0-.731-.135l-2,1.348a.538.538,0,0,0-.15.725l1.24,1.912a.537.537,0,0,0,.725.161L1038,336.4a.536.536,0,0,0,.163-.741Z" transform="translate(105.791 39.864)"/><path class="o" d="M1039.208,343.471l-1.353-1.928a.537.537,0,0,0-.725-.134l-2,1.336a.538.538,0,0,0-.144.725l1.24,1.907a.537.537,0,0,0,.72.161l2.116-1.332A.536.536,0,0,0,1039.208,343.471Z" transform="translate(106.11 42.21)"/><path class="o" d="M1036.267,345.508l-1.353-1.928a.536.536,0,0,0-.724-.134l-2,1.374a.537.537,0,0,0-.15.725l1.24,1.907a.538.538,0,0,0,.726.161l2.116-1.327a.536.536,0,0,0,.177-.738A.321.321,0,0,0,1036.267,345.508Z" transform="translate(105.226 42.821)"/><path class="o" d="M1033.513,347.812l-1.681-2.4a.242.242,0,0,0-.335-.066l0,0-2.437,1.659a.241.241,0,0,0-.073.334l0,.005,1.542,2.368a.24.24,0,0,0,.331.078l.007,0,2.6-1.612a.252.252,0,0,0,.062-.351Z" transform="translate(104.323 43.406)"/><path class="o" d="M1030.916,349.605l-1.681-2.4a.254.254,0,0,0-.344-.059l-2.459,1.654a.259.259,0,0,0-.07.345l1.547,2.368a.247.247,0,0,0,.338.075l2.595-1.612a.241.241,0,0,0,.105-.325A.249.249,0,0,0,1030.916,349.605Z" transform="translate(103.537 43.944)"/><path class="o" d="M1027.994,351.638l-1.681-2.4a.247.247,0,0,0-.339-.058l-2.459,1.654a.254.254,0,0,0-.07.344l1.542,2.368a.253.253,0,0,0,.338.075l2.6-1.612a.236.236,0,0,0,.107-.317A.213.213,0,0,0,1027.994,351.638Z" transform="translate(102.662 44.554)"/><path class="o" d="M1025.168,353.592,1023.5,351.2a.242.242,0,0,0-.335-.068l0,0-2.461,1.66a.247.247,0,0,0-.069.338l1.54,2.368a.249.249,0,0,0,.339.075l2.6-1.612a.241.241,0,0,0,.082-.331A.221.221,0,0,0,1025.168,353.592Z" transform="translate(101.82 45.14)"/><path class="o" d="M1043.158,336.6l-1.348-1.933a.537.537,0,0,0-.731-.134l-2,1.353a.537.537,0,0,0-.146.725l1.241,1.906a.536.536,0,0,0,.726.156l2.11-1.326a.537.537,0,0,0,.152-.745Z" transform="translate(107.294 40.148)"/><path class="o" d="M1040.216,338.637l-1.353-1.928a.539.539,0,0,0-.725-.14l-2,1.355a.536.536,0,0,0-.144.724l1.24,1.907a.537.537,0,0,0,.72.161l2.116-1.332a.538.538,0,0,0,.152-.744Z" transform="translate(106.412 40.76)"/><path class="o" d="M1037.27,340.673l-1.37-1.923a.537.537,0,0,0-.73-.134l-1.955,1.343a.534.534,0,0,0-.149.724l1.24,1.907a.537.537,0,0,0,.725.161l2.116-1.326a.538.538,0,0,0,.125-.75Z" transform="translate(105.535 41.372)"/><path class="o" d="M1034.329,342.711l-1.353-1.928a.539.539,0,0,0-.725-.135l-2,1.349a.535.535,0,0,0-.146.724l1.241,1.907a.535.535,0,0,0,.719.161l2.116-1.327a.535.535,0,0,0,.156-.742Z" transform="translate(104.646 41.982)"/><path class="o" d="M1031.585,345.016l-1.681-2.4a.247.247,0,0,0-.343-.065h0l-2.461,1.659a.249.249,0,0,0-.069.339l1.541,2.374a.247.247,0,0,0,.342.07h0l2.593-1.611a.247.247,0,0,0,.1-.335A.21.21,0,0,0,1031.585,345.016Z" transform="translate(103.738 42.567)"/><path class="o" d="M1028.973,346.82l-1.681-2.394a.242.242,0,0,0-.336-.068l0,0-2.444,1.655a.251.251,0,0,0-.07.343l1.542,2.368a.252.252,0,0,0,.338.075l2.6-1.611a.249.249,0,0,0,.075-.342Z" transform="translate(102.961 43.109)"/><path class="o" d="M1026.06,348.841l-1.681-2.4a.255.255,0,0,0-.344-.06l-2.454,1.655a.251.251,0,0,0-.069.343l1.54,2.37a.248.248,0,0,0,.339.074l2.6-1.611a.246.246,0,0,0,.094-.337A.193.193,0,0,0,1026.06,348.841Z" transform="translate(102.082 43.715)"/><path class="o" d="M1023.234,350.8l-1.681-2.4a.247.247,0,0,0-.343-.064h0l-2.454,1.659a.243.243,0,0,0-.073.334l0,.005,1.54,2.374a.243.243,0,0,0,.334.073l.005,0,2.6-1.612a.252.252,0,0,0,.087-.346Z" transform="translate(101.234 44.301)"/><path class="o" d="M1022.347,355.552l-1.681-2.4a.253.253,0,0,0-.344-.06l-2.459,1.655a.252.252,0,0,0-.07.343l1.542,2.368a.251.251,0,0,0,.338.075l2.6-1.611a.242.242,0,0,0,.105-.325A.181.181,0,0,0,1022.347,355.552Z" transform="translate(100.967 45.727)"/><path class="o" d="M1019.521,357.506l-1.682-2.4a.248.248,0,0,0-.343-.065h0l-2.459,1.659a.248.248,0,0,0-.07.339l1.542,2.368a.248.248,0,0,0,.341.077h0l2.595-1.612a.242.242,0,0,0,.105-.325A.269.269,0,0,0,1019.521,357.506Z" transform="translate(100.119 46.313)"/><path class="o" d="M1023.937,345.777l-1.585-2.262a.334.334,0,0,0-.456-.081L1019.561,345a.334.334,0,0,0-.092.456l1.451,2.235a.333.333,0,0,0,.456.1l2.449-1.542a.327.327,0,0,0,.126-.446Z" transform="translate(101.465 42.827)"/><path class="o" d="M1021.108,347.73l-1.585-2.255a.328.328,0,0,0-.455-.087h0l-2.32,1.568a.327.327,0,0,0-.091.451l1.449,2.235a.338.338,0,0,0,.456.1l2.456-1.542a.34.34,0,0,0,.094-.469Z" transform="translate(100.622 43.413)"/><path class="o" d="M1018.288,349.689l-1.612-2.262a.328.328,0,0,0-.451-.081l-2.326,1.564a.332.332,0,0,0-.091.456l1.451,2.233a.332.332,0,0,0,.456.1l2.454-1.542a.327.327,0,0,0,.131-.445Z" transform="translate(99.768 44)"/><path class="o" d="M1015.516,351.726l-1.681-2.4a.253.253,0,0,0-.344-.06l-2.459,1.655a.25.25,0,0,0-.064.343l1.54,2.369a.247.247,0,0,0,.339.075l2.6-1.611a.246.246,0,0,0,.094-.337A.2.2,0,0,0,1015.516,351.726Z" transform="translate(98.919 44.579)"/><path class="o" d="M1049.768,332.617l-1.434-2.073a.539.539,0,0,0-.731-.129l-5.714,3.98a.536.536,0,0,0-.14.719l1.375,2.116a.536.536,0,0,0,.745.147h0l5.764-4.034A.538.538,0,0,0,1049.768,332.617Z" transform="translate(108.139 38.912)"/><path class="o" d="M1021.271,352.721l-1.784-2.519a.241.241,0,0,0-.335-.065l-.008.005-6.134,4.3a.246.246,0,0,0-.064.338l1.681,2.588a.245.245,0,0,0,.341.075l.008-.005,6.236-4.366A.253.253,0,0,0,1021.271,352.721Z" transform="translate(99.513 44.841)"/><path class="o" d="M1037.969,337.871l-1.611-2.389a.253.253,0,0,0-.344-.07L1022.4,344.6a.243.243,0,0,0-.073.334l0,0,1.675,2.579a.246.246,0,0,0,.341.074l.008-.005,13.578-9.366A.248.248,0,0,0,1037.969,337.871Z" transform="translate(102.327 40.425)"/><path class="h" d="M1041.238,333.543,1034,323.022a1.343,1.343,0,0,0-1.858-.355L1012.2,336.057a1.347,1.347,0,0,0-.361,1.872v0l7.38,10.822a1.343,1.343,0,0,0,1.864.361l.01-.007,19.8-13.7a1.339,1.339,0,0,0,.347-1.86Z" transform="translate(99.123 36.546)"/><path class="q" d="M1041.489,333.593l-7.24-10.522a1.346,1.346,0,0,0-1.858-.355l-19.915,13.4a1.344,1.344,0,0,0-.374,1.863l.009.012,7.358,10.811a1.343,1.343,0,0,0,1.864.363l.01-.008,19.813-13.7a1.338,1.338,0,0,0,.334-1.861Z" transform="translate(99.205 36.562)"/><path class="l" d="M1084.105,345.293l-15.361-5.123-49.267,34.223,15.248,4.968a2.793,2.793,0,0,0,2.465-.365l47.055-32.719a.538.538,0,0,0-.139-.984Z" transform="translate(101.484 41.865)"/></g></svg>