<svg xmlns="http://www.w3.org/2000/svg" xmlns:xlink="http://www.w3.org/1999/xlink" width="1009.544" height="766.624" viewBox="0 0 1009.544 766.624"><defs><style>.a,.q{fill:#6c63ff;}.a,.e,.p{opacity:0.1;}.b{fill:url(#a);}.c{fill:#ff7590;}.d{fill:#8e5362;}.f{fill:#bdd2e8;}.g{fill:#494457;}.h{fill:#007bb7;}.i{fill:#362133;}.j{fill:#ffc1c7;}.k{fill:#ff5374;}.l{fill:#575988;}.m{fill:#c4747b;}.n{fill:#fa7268;}.o{fill:#bb7684;}.r{fill:none;stroke:#535461;stroke-miterlimit:10;stroke-width:2px;}.s{fill:#a8a8a8;}.t{opacity:0.2;}.u{fill:#ffd037;}</style><linearGradient id="a" x1="0.664" y1="-3.853" x2="0.664" y2="-2.853" gradientUnits="objectBoundingBox"><stop offset="0" stop-color="gray" stop-opacity="0.251"/><stop offset="0.54" stop-color="gray" stop-opacity="0.122"/><stop offset="1" stop-color="gray" stop-opacity="0.102"/></linearGradient></defs><g transform="translate(-458.996 -905.997)"><path class="a" d="M698.82,1545.76c-8.5-.86-17.38-1.78-25.43.47s-14.72,8.82-12.33,15.1c5.34,14,36.68,4.25,51.13,13.82,5.16,3.42,7.17,8.8,11.2,13,6.52,6.82,17.73,10,28.55,11.75,65,10.51,139.1-16.54,196.07,9.51,18.45,8.44,33,21.87,53.23,27.5,26.8,7.46,56.15-.51,83.88-5.62a410.262,410.262,0,0,1,104.89-5.5c25.93,2,60.42,2.67,68.72-16.16,5.34-12.11-5.96-25.59-20.96-31.32s-32.56-5.55-49.31-5c-32.33,1.16-64.67,3.5-97,2.36-62.52-2.22-121.58-27-182.46-27.82C838.1,1546.99,770.05,1552.94,698.82,1545.76Z"/><path class="a" d="M633.09,1232.31c-10,10.11-10.61,25.61-10.61,25.61s15.49-.88,25.45-11,10.62-25.61,10.62-25.61S643.05,1222.22,633.09,1232.31Z"/><path class="a" d="M673.34,982.55c3.53,13.75,16.48,22.3,16.48,22.3s7.23-13.73,3.7-27.48-16.48-22.29-16.48-22.29S669.77,968.81,673.34,982.55Z"/><path class="a" d="M1258.18,1020.37c-10,10.11-10.62,25.61-10.62,25.61s15.5-.88,25.46-11,10.61-25.62,10.61-25.62S1268.14,1010.31,1258.18,1020.37Z"/><path class="a" d="M953.39,1162.05c-1.16,14.14,8.27,26.46,8.27,26.46s11.33-10.61,12.49-24.76-8.27-26.44-8.27-26.44S954.55,1147.9,953.39,1162.05Z"/><path class="a" d="M1281.45,1360.36c-1.16,14.14,8.27,26.46,8.27,26.46s11.33-10.61,12.49-24.75-8.27-26.46-8.27-26.46S1282.61,1346.22,1281.45,1360.36Z"/><path class="a" d="M1045.55,1002.38c-64.72-1.95-126.36-20-185.22-39.8S743.17,920.89,680,910.41c-40.63-6.74-87.1-7.69-119.83,11.16-31.51,18.13-41.69,49.44-47.16,78.49-4.12,21.85-6.54,44.85,4.74,65.31,7.84,14.21,21.74,26.15,31.36,39.75,33.47,47.35,9.81,105.73-26.45,152-17,21.69-36.75,42.37-49.88,65.46s-19.2,49.53-7.71,73.07c11.38,23.34,38.51,40.87,67.9,53.2,59.69,25,130,32.21,198.61,36.27,151.83,9,304.46,5.1,456.69,1.2,56.34-1.44,112.92-2.9,168.34-10.44,30.78-4.18,62.55-10.82,84.9-26.86,28.36-20.36,35.39-54.83,16.38-80.36-31.88-42.81-120-53.45-142.31-99.4-12.26-25.29.33-53.46,18.16-76.92,38.24-50.32,102.33-94.47,105.7-152,2.32-39.5-28.49-79.06-76.13-97.75-49.93-19.6-119.18-17.13-156,15.3C1169.36,991.24,1102.7,1004.09,1045.55,1002.38Z"/><path class="b" d="M1260.09,1190.63a9,9,0,0,0-6.14,5.41l-1-.16-3.73-.6s-19.76-1.63-23.45-1.38-6-3.39-6-3.39l-14.69-12.43-1.14-1c1.59-.6,2.58-.91,2.58-.91s-39.42-49-47.92-49.95-22.55-12.39-22.69-12.5l-.15-.78c-.31-1.65-.54-3.32-.71-5l2.09,1.28h0a16.88,16.88,0,0,1,.06-1.74h0a31.643,31.643,0,0,1,5.88-16.8c4.11-5.7,10.19-10.18,12.62-16.75a24.22,24.22,0,0,0,1.29-8.79,29.3,29.3,0,0,0-4.1-15.29,19.1,19.1,0,0,0-12.9-8.9c-1.4-.22-2.83-.25-4.21-.57-8.21-1.93-11.23-12.94-19.21-15.64-3.72-1.26-7.86-.43-11.45,1.13s-6.84,3.8-10.35,5.53-7.49,3-10.68,5.45a11.181,11.181,0,0,0-1,.86h0l-.63.61h0a22.617,22.617,0,0,0-3.41,4.45l-.15.25c-.1.17-.19.35-.28.53s-.15.28-.21.42-.16.32-.23.48l-.21.48-.18.46c-.06.17-.13.34-.18.52s-.1.29-.14.44l-.15.53-.09.43a3.53,3.53,0,0,1-.1.55,1.766,1.766,0,0,0,0,.4v1.85a6.117,6.117,0,0,0,.18.87h0c.54,1.84,2.4,3.72,3.82,5.36-.16.15-.32.29-.48.45a34.859,34.859,0,0,0-10.67,25.11,34.309,34.309,0,0,0,.57,6.21,33.306,33.306,0,0,0-5.83-3.53,50.9,50.9,0,0,0-21.69-5c-12.25-.14-29.46-4.74-29.46-4.74a11.735,11.735,0,0,1,1,2.65c-.75-.43-1.56-.89-2.45-1.37a71.813,71.813,0,0,0-23-7.7s-5.1.71-5.78-10a45.415,45.415,0,0,0-1.8-9.87,168.156,168.156,0,0,1-6.06-30l-1.71-15.72s7.7-41,3.07-58.48c1.49-5.48.65-10.5-4.26-14.11-19.37-14.26-38.91,41.24-38.91,41.24l-7.26,7.05a15.579,15.579,0,0,0-6.16-2.35s-3.91,4-6.63,14.92c-1.44,5.79-11.28,15.46-20.18,23.25-6.32,5.53-12.42,11.28-18.51,17.05-4.5,4.28-14.53,10.4-36.41,13.86-3.43.54-6.55,1.05-9.4,1.52a29.354,29.354,0,0,0,1.1-7.94,29.78,29.78,0,0,0-23.36-28.93,7.455,7.455,0,0,0,0-2.11,8.744,8.744,0,0,0-2.21-4c-4.61-5.7-9.61-11.56-16.47-14.26a21.451,21.451,0,0,0-8.89-1.43h-2.44a22.779,22.779,0,0,0-16.66,8.68c-2.46,3.29-3.94,7.19-6.06,10.7-3.94,6.5-10,11.51-16.57,15.47-3.95,2.39-8.1,4.45-11.83,7.16-13.53,9.83-19.77,28-16.37,44.24,1.5,7.13,4.67,14.15,3.82,21.38-.67,5.61-3.69,10.65-6.77,15.41s-6.34,9.6-7.56,15.11.06,12,4.68,15.34c1.7,1.22,3.76,2,5.21,3.48a16.667,16.667,0,0,1,2.4,3.76,37.418,37.418,0,0,0,23.27,18.08,17.007,17.007,0,0,0,4.76.52h.48c3.67.23,7.43-.75,8.66-4a9.116,9.116,0,0,1,.83-2.12,2.491,2.491,0,0,1,1.45-1,13.31,13.31,0,0,1,3.39,1.28,43.115,43.115,0,0,0,16.48,4.71,23.25,23.25,0,0,0,2.89.05,12.79,12.79,0,0,0,5.89-.84,12.62,12.62,0,0,0,4.53-3.88c.26-.33.5-.68.75-1a82.719,82.719,0,0,1-7.38,23s-6,10-5.57,20.08a20.169,20.169,0,0,0,2.25,10.6s.17-.44.52-1.13c1.72,2.88,7.36,12.09,11.06,15.32.18,9.51.14,21.42-1.05,23.87-2,4.19-8.32,34,18.86,54.33l6.27,13.73-25.81,1.83c-2.61-.36-36.36-4.9-36.53,1.71-.17,6.87,5.1,73.77,22.6,69.24,16.31-4.22,10.93-23.73,10.12-26.35l.58-.16-.64-.18,13.05-12.37a5.782,5.782,0,0,0-1-4.29l.13-.07,31.52,1.41,7.41,16.1s12.57,19.12,2.38,35.21-20.73,41.25-22.43,56.51c-1.39,12.48-10.63,24.74-13.94,28.78-5.91,2-28.58,10.9-19.53,24.37,10.36,15.42,44,44.77,57.6,43.76s8.15-10.9,8.15-10.9l-11.37-11.02s-2-23.48-1.19-30.35c.44-3.57-2.19-6.14-5-7.23,1.07-7.65,3.78-22.15,9.6-30.16,8.15-11.24,34.32-60.7,34.32-60.7s8.32-7.38,6.45-29.34c-.75-8.86-1.17-16.64-1.41-22.79l29.62,1.33s31.77-3.19,10.19-37.23-67.45-67.4-67.45-67.4l-.41-21.07c2.08.52,3.3.78,3.3.78s-.18-.76-.48-2.12l.48.11s-6.63-28.69-8.67-51.5l1.87.86c19.71,22.81,33,3.53,33,3.53s41.63-58.52,37.55-55.84a3.54,3.54,0,0,1-2.74.17l3-9.56s12.29-18.78-5.55-29.34c-14.56-8.62-14.18,18.4-13.55,28.61l-.72-.61s-13.93,21-21.41,32.7-13.76,4-13.76,4l-9.45-10.65a37.422,37.422,0,0,0,2.25-13.32,22.633,22.633,0,0,0-6.39-17.28c-7.21-7.35-9.32-14.47-9.54-19.95a21.127,21.127,0,0,1,1.89-8.22l49.11-26s10.36.16,24.29-21.3a368.46,368.46,0,0,1,29.74-39.23s-.29-.42-.79-1.11c.5-.59.79-.91.79-.91s-.57-.83-1.54-2.11l7.57-8.73a112.053,112.053,0,0,0-.09,11.85l3.92,13.25,2.2,73.77s-2.38,7,12.92,14.09c12.94,6,33.44,16,39.42,18.95-.22.54-.35.83-.35.83l1.78-.12.26.12h0c29.89-2.68,28.87,27.16,28.87,27.16s2,60.7-7.13,81.83-7.82,47.28-7.82,47.28.91-4.46,6,1.37c-.1.51-.21,1.06-.33,1.63-2.92,14.63-9,45.75-10.13,58.37a204.6,204.6,0,0,1-6.63,34l-3,55.83,19.11.93-.21,2a6.28,6.28,0,0,1-3.24,4.87c-6.54,3.55-22,16-20.76,54.42l-.66,6.18a77.639,77.639,0,0,1-9.33,29.81c-.44.78-.83,1.53-1.16,2.25a1.84,1.84,0,0,1,.52-1.07s-9.93,2.06-7.89,28.89,5.1,31.52,9.18,31.85,24,5.2,22.93-4.69-2-31.86-.68-35.21,6.74-12.39,1.6-14.57h0a76.651,76.651,0,0,0,2.15-18.8s10-15.76,17.15-21.63,11-15.84,13.59-28.67c.18-.84,21.07-14.76,18-26.32-.54-2-.93-3.77-1.23-5.37-.13-.71-.24-1.38-.34-2h.37l4.25-25.49v24.82l2.52.33-.09,2-1.07,23.8a39.18,39.18,0,0,1-3,13.48c-4.5,10.65-12.8,34.36-10.54,60l-.24,22.86c-.72.14-11.1,2.59-9.13,28.5,2,26.82,5.09,31.52,9.17,31.85s24,5.2,22.94-4.69-2-31.86-.68-35.21,3.7-12.21-1.44-14.39a19.164,19.164,0,0,1,2.14-8.63c2.24-3.81,9.72-21.92,15.35-35.85a128.3,128.3,0,0,0,9.45-44.33v-.51a41.548,41.548,0,0,1,3.25-14.93,96.3,96.3,0,0,0,5.44-16.41c.14-.67.25-1.32.35-2l4.88.65,16.66-72.1s4.56-39.08,2.33-56.73c-.09-.73-.19-1.4-.31-2.05l1,.09s3.4-8.71,2.38-45.94,6.8-49,6.8-49c4.22-13.38,8.88-17.86,11.6-19.36h0a4.906,4.906,0,0,1,2.33-.76l12.61,14.43h0l2.32,2.66a.855.855,0,0,0,0-.16l1,1.17a10.8,10.8,0,0,1-.08-1.79c6.73,3.91,22.28,13.05,31.56,19.61,12.1,8.55,15.42,7.55,26,6.66,6.42-.53,15.1-4.13,20.92-6.87l.53-.25a25.533,25.533,0,0,0,4.92,2s17.08,14.47,18.73-11.94S1260.09,1190.63,1260.09,1190.63Zm-443,307.56a24.713,24.713,0,0,1-5-2.11Zm-26.74-285.88.06,3.75-.26.12C790.23,1214.86,790.29,1213.56,790.35,1212.31Zm267.14,334.72v1.46A1.069,1.069,0,0,1,1057.49,1547.03Z"/><rect class="c" width="29" height="30.5" transform="translate(1083.01 1107.63)"/><path class="d" d="M1047.77,1459.8c-2.55,12.75-6.33,22.66-13.33,28.5s-16.83,21.5-16.83,21.5c-.17,20.83-5.67,27.16-5.67,27.16l-5.67,1.5h-14s-2.5-7-3-11.16c-.17-1.39.82-3.72,2.2-6.22a77.927,77.927,0,0,0,9.15-29.63l.65-6.15c-1.18-38.17,14-50.56,20.37-54.09a6.241,6.241,0,0,0,3.17-4.84h0l1.13-10.91,37.66,1.85s-.8,3.32.63,11c.29,1.59.68,3.36,1.2,5.33C1068.43,1445.13,1047.93,1458.96,1047.77,1459.8Z"/><path class="d" d="M1111.63,1433.44a97.182,97.182,0,0,1-5.33,16.31,41.882,41.882,0,0,0-3.2,14.84v.51a129.166,129.166,0,0,1-9.27,44.06c-5.53,13.84-12.86,31.85-15.06,35.64-3.66,6.33-1.5,17-1.5,17l-21.2-1.5.37-35.67c-2.21-25.47,5.93-49,10.34-59.63a39.09,39.09,0,0,0,3-13.39l1-23.66.31-7s37.48-5.33,40.64,3.17C1112.6,1426.37,1112.39,1429.72,1111.63,1433.44Z"/><path class="e" d="M1064.23,1428.31l-39.46-1.94,1.13-10.91,37.7,1.85S1062.77,1420.62,1064.23,1428.31Z"/><path class="e" d="M1111.63,1433.44l-40.86-5.49.31-7s37.48-5.33,40.64,3.17C1112.6,1426.37,1112.39,1429.72,1111.63,1433.44Z"/><path class="f" d="M1133.1,1360.46l-16.33,71.67-48.33-6.5v-24.67l-4.18,25.35-58-2.84,3-55.5a205.906,205.906,0,0,0,6.5-33.83c1.13-12.54,7.07-43.47,9.94-58,1-4.79,1.56-7.81,1.56-7.81s99.34,20.66,105.84,28.16c1.11,1.28,1.84,4,2.29,7.61C1137.57,1321.62,1133.1,1360.46,1133.1,1360.46Z"/><path class="e" d="M1017.1,1365.13s39.1-20.5,48.63-16.17Z"/><path class="e" d="M1038.43,1298.13s32.5,24.67,33.5,31.33Z"/><path class="e" d="M1029.6,1383.13s23.5-1,31,5Z"/><path class="e" d="M1071.93,1356.75s11.17,36.56,6.33,46.56-9.83-2.34-9.83-2.34Z"/><path class="g" d="M1056.24,1547.31s-11,1.67-9,28.33,5,31.34,9,31.67,23.5,5.17,22.5-4.67-2-31.66-.67-35,3.63-12.13-1.41-14.3l-1.09,5.14s-10.67-9.84-17-2.67a27.736,27.736,0,0,0-1.31-5.13C1056.63,1549.12,1055.25,1548.31,1056.24,1547.31Z"/><path class="d" d="M1257.55,1220.13s-2.52,1.41-6.22,3.17c-5.71,2.72-14.22,6.3-20.52,6.83-10.38.88-13.63,1.88-25.5-6.62-9.11-6.52-24.36-15.61-31-19.49l-2.89-1.71-.29-.17v-.12l5.51-15.14,19.5-10.37,4.84,4.15,14.41,12.35s2.25,3.62,5.88,3.37,23,1.37,23,1.37l3.66.6,7.71,1.28Z"/><path class="e" d="M1257.55,1220.13s-2.52,1.41-6.22,3.17c-3.91-2-8.77-5.75-6.9-11.92,1.69-5.55,2.15-9.88,3.54-13l7.71,1.28Z"/><path class="d" d="M1254.93,1193.13s21.75-6.25,20.13,20-18.38,11.88-18.38,11.88-14.25-3.75-11.25-13.63S1247.56,1195.51,1254.93,1193.13Z"/><path class="d" d="M1029.43,1108.13l-22.66,9.52-.35.15-.25-.12-1.41-.71c-5.86-2.92-26-12.91-38.67-18.84-15-7-12.67-14-12.67-14l-2.16-73.33-3.84-13.17s-2.71-44.64,19-55.83,7.67,64.66,7.67,64.66l1.68,15.76a168.729,168.729,0,0,0,5.95,29.77,46.224,46.224,0,0,1,1.76,9.81c.67,10.66,5.67,9.95,5.67,9.95a69.606,69.606,0,0,1,22.54,7.66,56.355,56.355,0,0,1,7.46,4.72Z"/><path class="d" d="M1110.1,1143.13l-19.34-2s5.7-8.48,8.21-16.73a28.373,28.373,0,0,0,.85-3.45c.58-3.27.43-6.3-1.06-8.49-5.66-8.33,33.67-20,33.67-20a96.012,96.012,0,0,0-.43,13.88,70.138,70.138,0,0,0,1,9.61c1.19,6.47,3.56,12.56,8.08,15.68C1153.43,1140.13,1110.1,1143.13,1110.1,1143.13Z"/><path class="e" d="M1110.1,1143.13l-19.34-2s5.7-8.48,8.21-16.73c2.23,3.17,3,3.1,6.13,3.73,0,0,19.52,2.89,27.92-12.18,1.19,6.47,3.56,12.56,8.08,15.68C1153.43,1140.13,1110.1,1143.13,1110.1,1143.13Z"/><path class="e" d="M1174.35,1204.02a10.7,10.7,0,0,0,.08,1.78l-3-3.49-.25-.29,5.51-15.14,19.5-10.37,4.84,4.15C1194.1,1183.31,1174.66,1191.72,1174.35,1204.02Z"/><path class="e" d="M1029.43,1108.13l-22.66,9.52h-.6l-1.75.12s.13-.29.34-.83c1.89-4.59,10.66-27,6.87-37.56a56.355,56.355,0,0,1,7.46,4.72Z"/><path class="e" d="M1135.39,1304.07c-8.82-.79-97.06-8.95-105.29-21.94a45.722,45.722,0,0,0-4.4-6c1-4.79,1.56-7.81,1.56-7.81s99.34,20.66,105.84,28.16C1134.21,1297.74,1134.94,1300.45,1135.39,1304.07Z"/><path class="h" d="M1105.1,1129.13s19.73,2.92,28.07-12.41c0,0,13.93,11.44,22.26,12.42s47,49.66,47,49.66-31,10-29,26l-14.67-17s-7.33-.34-13.66,20c0,0-7.67,11.66-6.67,48.66s-2.33,45.67-2.33,45.67-97.34-8.33-106-22-10-7-10-7-1.34-26,7.66-47,7-81.33,7-81.33,1-29.67-28.33-27c0,0,12.33-28.67,6.67-39.67,0,0,16.87,4.58,28.89,4.72a49.416,49.416,0,0,1,21.28,5c3.61,1.77,6.94,4,8.83,6.66,5.66,8,15,4.34,15,4.34a151.44,151.44,0,0,0,8.7,21.33c.39.73.78,1.45,1.18,2.14a32.833,32.833,0,0,0,1.78,2.82C1101.16,1128.57,1101.84,1128.48,1105.1,1129.13Z"/><path class="e" d="M1132,1106.31a34.173,34.173,0,0,1-3.54,4.25,34.892,34.892,0,0,1-25,10.54,35.692,35.692,0,0,1-3.61-.18c.58-3.27.43-6.3-1.06-8.49-5.66-8.33,33.67-20,33.67-20A96.038,96.038,0,0,0,1132,1106.31Z"/><path class="d" d="M1138.43,1085.13a34.87,34.87,0,1,1,0-.26Z"/><path class="e" d="M1155.77,1165.13l.72,23.42s10.45-8.42,10.78-16.42S1155.77,1165.13,1155.77,1165.13Z"/><path class="e" d="M1071.43,1188.55s27.5,37.75,43.5,41.58S1077.43,1200.79,1071.43,1188.55Z"/><path class="e" d="M1100.6,1192.48s15.33,17.32,26.33,19.48Z"/><path class="e" d="M1046.6,1236.13s28,27.5,44,29.17Z"/><path class="e" d="M1138.43,1085.13a34.87,34.87,0,0,1-10,24.46l-3.84-2.39a10.613,10.613,0,0,1-3.74-3.25c-1.27-2.12-.9-4.78-.8-7.25.21-5.23-1.23-10.89-5.32-14.16-6.63-5.31-17.26-2.37-24-7.58a23.637,23.637,0,0,1-4.25-4.73l-6.32-8.47c-.38-.5-.84-1-1.33-1.59a35,35,0,0,1,59.54,25Z"/><path class="i" d="M1082.34,1040.31c3.13-2.39,6.95-3.65,10.47-5.41s6.63-4,10.15-5.5,7.59-2.38,11.24-1.13c7.83,2.69,10.79,13.63,18.84,15.55,1.36.32,2.76.35,4.13.56a18.8,18.8,0,0,1,12.65,8.85,29.455,29.455,0,0,1,4,15.21,24.376,24.376,0,0,1-1.27,8.73c-2.38,6.53-8.35,11-12.38,16.65a31.657,31.657,0,0,0-5.79,18.49l-9.76-6.07a10.511,10.511,0,0,1-3.74-3.25c-1.27-2.12-.9-4.78-.8-7.25.21-5.23-1.23-10.89-5.31-14.16-6.64-5.31-17.27-2.37-24-7.58a23.637,23.637,0,0,1-4.25-4.73l-6.32-8.47c-1.37-1.84-4-4.13-4.6-6.37C1074.27,1049.61,1078.82,1043.02,1082.34,1040.31Z"/><path class="e" d="M1125.71,1105.11a10.512,10.512,0,0,1-3.74-3.25c-1.27-2.12-.9-4.78-.8-7.25.21-5.23-1.23-10.89-5.32-14.16-6.63-5.31-17.26-2.37-24-7.58a23.641,23.641,0,0,1-4.25-4.73l-6.32-8.47c-1.38-1.84-4-4.13-4.6-6.37-1.09-3.86,1.67-8.89,4.62-12.11-3.31,3.06-6.94,8.87-5.71,13.2.64,2.24,3.23,4.53,4.6,6.37l6.32,8.47a23.633,23.633,0,0,0,4.25,4.73c6.71,5.21,17.34,2.27,24,7.58,4.08,3.27,5.52,8.93,5.31,14.16-.1,2.47-.47,5.13.8,7.25a10.509,10.509,0,0,0,3.74,3.25l9.76,6.07a16.555,16.555,0,0,1,.06-1.73Z"/><path class="g" d="M990.84,1522.25s-9.74,2-7.74,28.71,5,31.34,9,31.67,23.5,5.17,22.5-4.67-2-31.66-.67-35,6.61-12.31,1.57-14.48l-4.07,5.32s-10.67-9.84-17-2.67C994.43,1531.13,988.51,1524.58,990.84,1522.25Z"/><path class="e" d="M997,1538.81c2.11,1,4.08,2.22,6.18,3.22a13.874,13.874,0,0,0,6.71,1.58,4.682,4.682,0,0,0,2.74-.95"/><path class="e" d="M1061.1,1564.93c1.25,1.15,2.22,2.62,3.63,3.57,2,1.34,4.56,1.42,7,1.45a2.829,2.829,0,0,0,1.2-.15,2.919,2.919,0,0,0,1.07-1l1.31-1.69"/><path class="j" d="M896.77,1121.46s-4.5-42.66,13-32.16,5.45,29.16,5.45,29.16l-4.11,13.17Z"/><path class="j" d="M924.77,985.13l10-9.82s19.17-55.17,38.17-41-24.08,50-24.08,50l-11.42,13.33Z"/><path class="k" d="M778.43,1203.31l-.5,11.33s9.17,16,13,17.17,3.5-33.84,3.5-33.84Z"/><path class="e" d="M778.43,1203.31l-.5,11.33s9.17,16,13,17.17,3.5-33.84,3.5-33.84Z"/><path class="j" d="M793.76,1190.87l.68,41.76h46.49l-3.5-24.33Z"/><path class="l" d="M804.6,1295.13l2.17,13.33,27.17,60.34s12.33,19,2.33,35-20.33,41-22,56.16-14.83,30-14.83,30l28.67,12.17s2-23.83,10-35,33.66-60.33,33.66-60.33,8.17-7.34,6.34-29.17-1.67-37.17-1.67-37.17l-2.83-34.83Z"/><path class="e" d="M804.6,1295.13l2.17,13.33,27.17,60.34s12.33,19,2.33,35-20.33,41-22,56.16-14.83,30-14.83,30l28.67,12.17s2-23.83,10-35,33.66-60.33,33.66-60.33,8.17-7.34,6.34-29.17-1.67-37.17-1.67-37.17l-2.83-34.83Z"/><path class="m" d="M801.93,1488.13s-30.67,9.33-20.5,24.67,43.17,44.5,56.5,43.5,8-10.84,8-10.84l-11.17-11s-2-23.33-1.16-30.16-9.5-10-10.84-6S801.93,1488.13,801.93,1488.13Z"/><path class="l" d="M821.26,1214.89l-24.31,2.69a8.72,8.72,0,0,0-7.76,8.89c.26,9.72.43,25.18-.93,28-2,4.17-8.16,33.84,18.5,54l36.17,11.5-58,4.17,1.84,32.17,9-5,110,5s31.17-3.17,10-37-66.16-67-66.16-67l-.5-26.34-3.34-7.66Z"/><path class="e" d="M851.43,1319.46a31.238,31.238,0,0,1,25,0Z"/><path class="m" d="M787.77,1323.96s-35.83-5.16-36,1.67,5,73.33,22.17,68.83,9.83-26.5,9.83-26.5l12.84-12.33s1.33-6.83-7.17-6.17Z"/><path class="k" d="M847.1,1137.46l14.16,16.17s6.17,7.67,13.5-4,21-32.5,21-32.5,15.17,13.33,19.17,10.67-36.83,55.51-36.83,55.51-13,19.16-32.34-3.5l-5.66-2.67Z"/><path class="n" d="M847.1,1137.46l14.16,16.17s6.17,7.67,13.5-4,21-32.5,21-32.5,15.17,13.33,19.17,10.67-36.83,55.51-36.83,55.51-13,19.16-32.34-3.5l-5.66-2.67Z"/><circle class="j" cx="29.5" cy="29.5" r="29.5" transform="translate(774.28 1012.75)"/><path class="e" d="M803.77,1058.13s-25.35,12-22.35,33,3.5,47.5,3.5,47.5,11.51,17-3.75,49.5c0,0-9.75,16.5-3.25,28.5,0,0,7.21-19,25.85-5s48.65,20.5,48.65,20.5-15.5-68-6-77.5c0,0,16.5-24.5,1.5-40s-7.5-30-7.5-30l48.17-25.83s10.16.16,23.83-21.17a367.356,367.356,0,0,1,29.17-39s-10.34-15.5-20-16.67c0,0-3.84,4-6.5,14.84-1.42,5.75-11.07,15.36-19.8,23.11-6.2,5.5-12.18,11.21-18.15,17-4.42,4.25-14.26,10.33-35.72,13.77C806.1,1056.31,803.77,1058.13,803.77,1058.13Z"/><path class="n" d="M803.77,1056.13s-25.35,12-22.35,33,3.5,47.5,3.5,47.5,11.51,17-3.75,49.5c0,0-9.75,16.5-3.25,28.5,0,0,7.21-19,25.85-5s48.65,20.5,48.65,20.5-15.5-68-6-77.5c0,0,16.5-24.5,1.5-40s-7.5-30-7.5-30l48.17-25.83s10.16.16,23.83-21.17a367.356,367.356,0,0,1,29.17-39s-10.34-15.5-20-16.67c0,0-3.84,4-6.5,14.84-1.42,5.75-11.07,15.36-19.8,23.11-6.2,5.5-12.18,11.21-18.15,17-4.42,4.25-14.26,10.33-35.72,13.77C806.1,1054.31,803.77,1056.13,803.77,1056.13Z"/><path class="e" d="M825.6,1181.8s19.66,29,20.16,34C845.77,1215.8,842.77,1184.63,825.6,1181.8Z"/><path class="e" d="M799.77,1084.13s13.71,16.5,33.52,2.67A42.493,42.493,0,0,1,799.77,1084.13Z"/><path class="e" d="M810.4,1011.4a8.841,8.841,0,0,0-2.16-4c-4.52-5.67-9.43-11.49-16.16-14.18a22.34,22.34,0,0,0-25.49,7.26c-2.42,3.26-3.86,7.14-5.95,10.63-3.86,6.46-9.83,11.44-16.25,15.38-3.87,2.37-7.95,4.42-11.6,7.11-13.27,9.77-19.4,27.83-16.06,44,1.47,7.08,4.58,14.06,3.74,21.25-.65,5.58-3.62,10.58-6.63,15.32s-6.22,9.54-7.42,15,.06,11.93,4.59,15.24c1.67,1.22,3.68,2,5.11,3.46a16.593,16.593,0,0,1,2.35,3.74,36.77,36.77,0,0,0,22.83,18c4.3,1.13,10.07.72,11.64-3.44a8.954,8.954,0,0,1,.81-2.11c1.42-2,4.55-.88,6.75.27a41.8,41.8,0,0,0,16.13,4.63,13.446,13.446,0,0,0,6.61-.79,12.2,12.2,0,0,0,4.45-3.85c5.26-6.85,6.77-15.8,7.67-24.39.59-5.59,1-11.28-.07-16.8-1.7-8.86-7.09-17.14-6.29-26.12.85-9.6,8.64-17.45,9.83-27a20.592,20.592,0,0,0-3.51-14.19,20.3,20.3,0,0,1-2.67-4.18,4.151,4.151,0,0,1,.8-4.59,7,7,0,0,1,2.08-1c6.43-2.47,9.86-8.91,10.32-15.5.18-2.5,0-4.8.69-7.24C807.64,1019.54,810.97,1015.42,810.4,1011.4Z"/><path class="o" d="M808.4,1011.4a8.841,8.841,0,0,0-2.16-4c-4.52-5.67-9.43-11.49-16.16-14.18a22.34,22.34,0,0,0-25.49,7.26c-2.42,3.26-3.86,7.14-5.95,10.63-3.86,6.46-9.83,11.44-16.25,15.38-3.87,2.37-7.95,4.42-11.6,7.11-13.27,9.77-19.4,27.83-16.06,44,1.47,7.08,4.58,14.06,3.74,21.25-.65,5.58-3.62,10.58-6.63,15.32s-6.22,9.54-7.42,15,.06,11.93,4.59,15.24c1.67,1.22,3.68,2,5.11,3.46a16.593,16.593,0,0,1,2.35,3.74,36.77,36.77,0,0,0,22.83,18c4.3,1.13,10.07.72,11.64-3.44a8.954,8.954,0,0,1,.81-2.11c1.42-2,4.55-.88,6.75.27a41.8,41.8,0,0,0,16.13,4.63,13.446,13.446,0,0,0,6.61-.79,12.2,12.2,0,0,0,4.45-3.85c5.26-6.85,6.77-15.8,7.67-24.39.59-5.59,1-11.28-.07-16.8-1.7-8.86-7.09-17.14-6.29-26.12.85-9.6,8.64-17.45,9.83-27a20.592,20.592,0,0,0-3.51-14.19,20.3,20.3,0,0,1-2.67-4.18,4.151,4.151,0,0,1,.8-4.59,7,7,0,0,1,2.08-1c6.43-2.47,9.86-8.91,10.32-15.5.18-2.5,0-4.8.69-7.24C805.64,1019.54,808.97,1015.42,808.4,1011.4Z"/><g class="p"><path d="M748.77,1164.01a9.448,9.448,0,0,0-.82,2.11c-.93,2.48-3.36,3.62-6.07,3.9,3.77.38,7.8-.53,9.07-3.9a9.448,9.448,0,0,1,.82-2.11,2.5,2.5,0,0,1,1-.85C751.25,1162.72,749.69,1162.74,748.77,1164.01Z"/><path d="M808.45,1011.39a8.63,8.63,0,0,0-2.16-4c-4.52-5.67-9.43-11.49-16.16-14.18a21,21,0,0,0-9.2-1.38,20.412,20.412,0,0,1,6.2,1.38c6.73,2.69,11.64,8.51,16.16,14.18a8.63,8.63,0,0,1,2.16,4c.57,4-2.75,8.15-3.85,11.85-.73,2.44-.52,4.73-.69,7.24-.47,6.58-3.89,13-10.33,15.5a7,7,0,0,0-2.08,1,4.15,4.15,0,0,0-.79,4.6,20.209,20.209,0,0,0,2.66,4.18,20.572,20.572,0,0,1,3.52,14.18c-1.2,9.57-9,17.41-9.84,27-.8,9,4.6,17.26,6.29,26.11,1.06,5.52.66,11.21.07,16.8-.9,8.59-2.4,17.55-7.67,24.39a12.165,12.165,0,0,1-4.44,3.85,9.945,9.945,0,0,1-3.27.81,12.926,12.926,0,0,0,6.27-.81,12.174,12.174,0,0,0,4.47-3.78c5.27-6.84,6.77-15.8,7.67-24.39.59-5.59,1-11.28-.07-16.8-1.69-8.85-7.09-17.14-6.29-26.11.86-9.61,8.64-17.45,9.84-27a20.573,20.573,0,0,0-3.52-14.18,20.208,20.208,0,0,1-2.66-4.18,4.15,4.15,0,0,1,.79-4.6,7,7,0,0,1,2.08-1c6.44-2.48,9.86-8.92,10.33-15.5.17-2.51,0-4.8.69-7.24C805.7,1019.54,809.02,1015.42,808.45,1011.39Z"/></g><path class="e" d="M770.59,1364.31a13.511,13.511,0,0,0,13.83,3.82"/><path class="e" d="M834.67,1535.31a8.493,8.493,0,0,1-6.9,1.74"/><ellipse class="a" cx="26.93" cy="4.55" rx="26.93" ry="4.55" transform="translate(537.22 1557.25)"/><ellipse class="q" cx="26.93" cy="4.55" rx="26.93" ry="4.55" transform="translate(1274.5 1647.85)"/><ellipse class="a" cx="26.93" cy="4.55" rx="26.93" ry="4.55" transform="translate(1274.5 1560.27)"/><ellipse class="a" cx="26.93" cy="4.55" rx="26.93" ry="4.55" transform="translate(613.58 1599.5)"/><ellipse class="q" cx="40.21" cy="6.8" rx="40.21" ry="6.8" transform="translate(1346.39 1597.25)"/><ellipse class="a" cx="90.76" cy="15.34" rx="90.76" ry="15.34" transform="translate(717.7 1641.94)"/><path class="q" d="M1403.22,1592.93a11.735,11.735,0,0,0,3.84-5.79c.49-2.3-.49-5.05-2.68-5.89-2.46-.94-5.09.76-7.08,2.49s-4.28,3.68-6.89,3.32a10.471,10.471,0,0,0,3.24-9.81,4.114,4.114,0,0,0-.9-2c-1.37-1.46-3.84-.83-5.48.32-5.2,3.66-6.65,10.72-6.68,17.08-.52-2.29-.08-4.68-.09-7s-.66-5-2.64-6.23a8.066,8.066,0,0,0-4-1c-2.34-.08-4.94.15-6.54,1.86-2,2.13-1.47,5.69.26,8s4.35,3.8,6.76,5.42a15.006,15.006,0,0,1,4.84,4.61,5.125,5.125,0,0,1,.36.82h14.65A40.741,40.741,0,0,0,1403.22,1592.93Z"/><path class="q" d="M1318.06,1641.52a11.7,11.7,0,0,0,3.83-5.79c.49-2.3-.48-5-2.68-5.89-2.46-.94-5.09.76-7.08,2.49s-4.28,3.68-6.89,3.32a10.471,10.471,0,0,0,3.24-9.81,4.008,4.008,0,0,0-.9-2c-1.36-1.46-3.84-.83-5.47.32-5.2,3.66-6.65,10.72-6.68,17.08-.53-2.29-.09-4.68-.1-7s-.66-5-2.64-6.23a8,8,0,0,0-4-.95c-2.34-.08-4.94.15-6.54,1.86-2,2.13-1.47,5.69.26,8s4.35,3.8,6.77,5.42a15,15,0,0,1,4.83,4.61,5.109,5.109,0,0,1,.36.82h14.65A40.981,40.981,0,0,0,1318.06,1641.52Z"/><path class="r" d="M671.01,1551.31s-14.05-47.71,2.64-82.82a75.358,75.358,0,0,0,6.12-47.3,126.575,126.575,0,0,0-6.69-22.19"/><path class="q" d="M683.43,1376.81c0,5.85-10.59,22.8-10.59,22.8s-10.58-16.95-10.58-22.8a10.59,10.59,0,1,1,21.17-.65q.011.324,0,.65Z"/><path class="q" d="M700.93,1409.2c-3.18,4.9-21.28,13.38-21.28,13.38s.33-20,3.51-24.89a10.59,10.59,0,0,1,17.77,11.51Z"/><path class="q" d="M700.17,1464.54c-5.22,2.64-25.13.82-25.13.82s10.37-17.09,15.59-19.72a10.59,10.59,0,0,1,9.54,18.9Z"/><path class="q" d="M690.16,1506.31c-4.7,3.47-24.63,5-24.63,5s7.34-18.6,12-22.08a10.59,10.59,0,0,1,12.59,17Z"/><path class="q" d="M657.42,1423.72c4.2,4.07,23.73,8.29,23.73,8.29s-4.78-19.41-9-23.48a10.59,10.59,0,0,0-14.75,15.19Z"/><path class="q" d="M646.34,1472.69c5.22,2.63,25.12.81,25.12.81s-10.37-17.09-15.59-19.72a10.59,10.59,0,0,0-9.53,18.91Z"/><path class="q" d="M642.09,1521.76c4.7,3.48,24.63,5,24.63,5s-7.34-18.6-12-22.07a10.59,10.59,0,0,0-12.59,17Z"/><path class="s" d="M637.77,1548.31s17.11-3.4,21.68-7.93,25.09-12.45,27.37-6.79,30.8,24.91,11.41,28.31-45.63,4.53-51.33,2.27S637.77,1548.31,637.77,1548.31Z"/><path class="t" d="M698.26,1559.77c-19.39,3.4-45.63,4.53-51.33,2.26-4.35-1.72-7.37-10-8.56-13.87l-.6.15s3.42,13.59,9.13,15.86,31.94,1.13,51.33-2.27c5.6-1,7.2-3.28,6.6-6.2C704.38,1557.57,702.43,1559.04,698.26,1559.77Z"/><path class="q" d="M1306.94,1499.22s5.5,7.19-2.53,18-14.65,20-12,26.77c0,0,12.12-20.15,22-20.43S1317.77,1511.31,1306.94,1499.22Z"/><path class="e" d="M1306.94,1499.22a9,9,0,0,1,1.13,2.26c9.62,11.3,14.74,21.85,5.49,22.11-8.61.25-18.94,15.65-21.42,19.54a9.323,9.323,0,0,0,.29.89s12.12-20.15,22-20.43S1317.77,1511.31,1306.94,1499.22Z"/><path class="u" d="M1317.16,1508.38c0,2.53-.29,4.58-.64,4.58s-.63-2-.63-4.58.35-1.34.7-1.34S1317.16,1505.85,1317.16,1508.38Z"/><path class="u" d="M1320.66,1511.4c-2.22,1.21-4.16,1.94-4.32,1.63s1.49-1.53,3.71-2.74,1.35-.33,1.52,0S1322.88,1510.19,1320.66,1511.4Z"/><path class="q" d="M1277.93,1499.22s-5.5,7.19,2.53,18,14.65,20,12,26.77c0,0-12.11-20.15-22-20.43S1267.08,1511.31,1277.93,1499.22Z"/><path class="e" d="M1277.93,1499.22a8.97,8.97,0,0,0-1.13,2.26c-9.62,11.3-14.74,21.85-5.49,22.11,8.61.25,18.94,15.65,21.42,19.54a7.173,7.173,0,0,1-.3.89s-12.11-20.15-22-20.43S1267.08,1511.31,1277.93,1499.22Z"/><path class="u" d="M1267.71,1508.38c0,2.53.29,4.58.64,4.58s.63-2,.63-4.58-.35-1.34-.7-1.34S1267.71,1505.85,1267.71,1508.38Z"/><path class="u" d="M1264.21,1511.4c2.22,1.21,4.15,1.94,4.32,1.63s-1.49-1.53-3.71-2.74-1.35-.33-1.52,0S1261.99,1510.19,1264.21,1511.4Z"/><path class="s" d="M1269.46,1543.08s15.36-.48,20-3.77,23.63-7.23,24.78-2,23.08,26.29,5.74,26.43-40.29-2.7-44.91-5.51S1269.46,1543.08,1269.46,1543.08Z"/><path class="t" d="M1320.28,1561.95c-17.34.14-40.29-2.7-44.91-5.51-3.52-2.14-4.93-9.83-5.39-13.38h-.52s1,12.39,5.6,15.2,27.57,5.65,44.91,5.51c5,0,6.73-1.82,6.64-4.45C1325.91,1560.93,1324,1561.92,1320.28,1561.95Z"/></g></svg>