<svg xmlns="http://www.w3.org/2000/svg" width="868.511" height="708.697" viewBox="0 0 868.511 708.697"><defs><style>.a{fill:none;stroke:#000;stroke-miterlimit:10;stroke-width:2.835px;}.b{font-size:42.52px;font-family:MyriadPro-Regular, Myriad Pro;}.c{fill:#f2f2f2;}.d{fill:#007bb7;}.e,.g{fill:#fa7268;}.e{opacity:0.34;}.f{fill:#3f3d56;}.h,.i,.s{fill:#6c63ff;}.i{opacity:0.4;}.j{fill:#2f2e41;}.k{fill:#ffb8b8;}.l{fill:#d0cde1;}.m{fill:#9f616a;}.n{opacity:0.2;}.o{fill:#00646b;}.p{fill:#ffb9b9;}.q{fill:#e6e6e6;}.r{fill:#fff;}.s,.w,.y{opacity:0.1;}.t{fill:#65617d;}.u{fill:#be6f72;}.v{fill:#fbbebe;}.x{fill:#e3e8f4;}</style></defs><g transform="translate(-576 -731.431)"><path class="a" d="M735.433,871.175s-175.76,236.979,44.039,231.79,361.269-114.5,389.8,75.788c27.494,183.341-31.262,166.166-44.374,161.748"/><text class="b" transform="translate(839.527 810.448)"><tspan x="0" y="0">The members</tspan></text><text class="b" transform="translate(1210.691 1085.441)"><tspan x="0" y="0">The mission </tspan></text><text class="b" transform="translate(1210.511 1343.434)"><tspan x="0" y="0">Your benefits</tspan></text><path class="c" d="M976.063,955.75l-18.9,36.858h3.815v30.056H941.757l-11.075,21.6,137.232,70.359,45.382-88.516Z"/><rect class="d" width="210.394" height="105.555" transform="translate(972.073 979.727)"/><rect class="e" width="155.291" height="0.358" transform="translate(1001.593 1017.655)"/><rect class="e" width="155.291" height="0.358" transform="translate(1001.772 1026.6)"/><rect class="e" width="155.291" height="0.358" transform="translate(1001.772 1044.491)"/><rect class="e" width="155.291" height="0.358" transform="translate(1001.772 1052.363)"/><rect class="e" width="155.291" height="0.358" transform="translate(1001.772 1035.546)"/><ellipse class="f" cx="66.553" cy="6.083" rx="66.553" ry="6.083" transform="translate(1066.894 1175.093)"/><path class="g" d="M1006.08,1052.622l-.494-.518,23.115-22.032,20.376,14.657,16.478-18.269,7.225,6.141,19.654-11.793,21.832,14.673,34.265-19.49.354.622-34.65,19.709-21.822-14.667-19.705,11.823-7.087-6.024-16.441,18.228L1028.765,1031Z"/><path class="f" d="M1072.646,1168.952c1.681,6.216,7.442,10.066,7.442,10.066s3.033-6.229,1.352-12.445-7.442-10.067-7.442-10.067S1070.964,1162.735,1072.646,1168.952Z"/><path class="h" d="M1075.117,1167.616c4.615,4.492,5.178,11.4,5.178,11.4s-6.918-.377-11.533-4.87-5.178-11.4-5.178-11.4S1070.5,1163.124,1075.117,1167.616Z"/><circle class="i" cx="4.473" cy="4.473" r="4.473" transform="translate(1167.439 1130.366)"/><circle class="i" cx="3.399" cy="3.399" r="3.399" transform="translate(1092.298 1154.697)"/><circle class="i" cx="4.473" cy="4.473" r="4.473" transform="translate(1079.775 1108.539)"/><circle class="h" cx="4.652" cy="4.652" r="4.652" transform="translate(1143.645 1013.182)"/><path class="j" d="M1118.073,1102.087l-3.944.438a53.066,53.066,0,0,0,0,18.4c1.753,10.515,3.944,21.03,3.944,21.03s1.752,34.175,2.628,34.614,8.763,3.067,9.2.438.439-62.655.439-62.655l6.134,28.918s.876,36.366,2.628,36.366,7.449-.439,7.449-3.506,1.314-43.376,1.314-43.376-.438-29.793-2.19-30.669S1118.073,1102.087,1118.073,1102.087Z"/><path class="j" d="M1121.578,1175.256s-3.944-.438-4.82,0a3.509,3.509,0,0,0,0,5.258c2.191,1.752,7.887,4.381,9.639,4.381a9.067,9.067,0,0,0,3.505-.876l-.876-7.448Z"/><path class="j" d="M1139.1,1177.447l.439,6.134s5.7.876,6.134,0,4.819-3.067,5.257-3.505.876-5.258-1.752-5.7-3.506.876-3.506.876Z"/><path class="k" d="M1102.3,1065.283s-10.515,10.077-9.2,15.335,11.829,20.592,11.829,20.592,10.078,5.258,11.392,0-7.01-3.943-7.01-3.943l-6.572-15.773,7.448-10.516Z"/><path class="k" d="M1149.285,1049.951s9.579-6.16,9.358-10.392-6-17.575-6-17.575-4.517-9.393-6.313-5.554,2.36,7.924,2.36,7.924l2.683,13.09-7.291,6.955Z"/><circle class="k" cx="7.887" cy="7.887" r="7.887" transform="translate(1117.634 1025.412)"/><path class="k" d="M1121.578,1038.118l1.314,8.325,9.639-1.753s-.438-8.325-.438-9.2S1121.578,1038.118,1121.578,1038.118Z"/><path class="l" d="M1121.14,1046.443s10.953-2.629,12.268-1.753,7.886,1.753,7.886,1.753l7.449,11.391-2.191,14.459s-.438,23.221.438,27.165,5.7,4.381-4.381,5.257-11.83-.438-18.841,1.315-12.706-.876-10.953-2.629,4.819-29.794,1.314-32.423-4.819-16.211-4.819-16.211S1121.14,1048.633,1121.14,1046.443Z"/><path class="l" d="M1139.98,1047.757l1.314-1.314,2.629-2.629s8.544,3.724,8.106,5.038-3.287,8.982-3.287,8.982l-3.943,1.315Z"/><path class="l" d="M1114.567,1055.644l-5.257-.877s-3.944,4.382-5.258,6.134-3.943,6.134-3.943,6.134l9.2,6.572,7.01-7.448Z"/><path class="j" d="M1128.273,1023.744l-.081-.632a4.974,4.974,0,0,0-1.578.248,2.581,2.581,0,0,1,.1-1.135,5.031,5.031,0,0,0-1.461.635l-.319-1.153-4.38,2.158c-1.572.775-3.23,1.627-4.129,3.132a6.646,6.646,0,0,0-.142,5.664,46.153,46.153,0,0,0,2.735,5.178,13,13,0,0,0,1.243,2.115,5.911,5.911,0,0,0,7.2,1.234,4.171,4.171,0,0,0,2-2.054,13.414,13.414,0,0,0,.4-1.7c.289-1.178.623-3.609,1.58-4.354.421-.328,1.255.759,1.6.356.9-1.038.709-2.638.152-3.891a28.405,28.405,0,0,0-1.869-3.645A17.228,17.228,0,0,0,1128.273,1023.744Z"/><path class="j" d="M953.425,1339.335c.224,13.814,5.386,15.31,11.727,13.869a23.3,23.3,0,0,0,16.118-13.63l2.02-4.707A12.84,12.84,0,0,0,976.556,1318h0a12.841,12.841,0,0,0-16.864,6.734h0C953.19,1327.291,951.905,1332.579,953.425,1339.335Z"/><path class="m" d="M994.194,1311.533l1.946-3.293a3.094,3.094,0,0,0-1.09-4.237,3.042,3.042,0,0,0-.658-.292h0a3.094,3.094,0,0,0-4.007,3.055l.114,3.54-9.145,25.063,4.987,1.041Z"/><path class="m" d="M946.08,1373.318l-2.4,2.983a3.094,3.094,0,0,0,.475,4.349,3.137,3.137,0,0,0,.61.382h0a3.094,3.094,0,0,0,4.4-2.453l.391-3.52,12.623-23.5-4.788-1.741Z"/><path class="j" d="M960.879,1398.129l.353,4.235.082.988,23.444-2.255a5.169,5.169,0,0,0,4.139-7.247l-7.56-16.231-2.612-5.607-11.317-2.611c-9.332,7.143-.936,15.025,9.628,23q.621.469,1.254.94Z"/><path class="j" d="M952.979,1412.794h0a1.684,1.684,0,0,0,1.537-.594l7.669-9.283-.435-4.353-2.615-1.569a1.719,1.719,0,0,0-2.358.59,1.653,1.653,0,0,0-.124.253l-5,12.671a1.681,1.681,0,0,0,1.328,2.285Z"/><path class="n" d="M959.573,1397.258l.435,5.223,1.224-.117,22.22-2.137a5.17,5.17,0,0,0,4.14-7.248l-6.255-14v-1.358l-2.612-5.607-11.317-2.611c-9.332,7.143-.936,15.025,9.628,23l-.052.069Z"/><path class="j" d="M950.8,1411.053h0a1.685,1.685,0,0,0,1.537-.594l7.668-9.283-.435-4.353-2.615-1.569a1.719,1.719,0,0,0-2.357.589,1.8,1.8,0,0,0-.125.254l-5,12.67a1.685,1.685,0,0,0,.948,2.186A1.662,1.662,0,0,0,950.8,1411.053Z"/><path class="j" d="M958.7,1396.388l.435,5.223,23.444-2.255a5.171,5.171,0,0,0,4.141-7.247l-6.257-14v-7.835l-15.234-2.611c-9.7,7.423-.249,15.646,10.881,23.94Z"/><circle class="m" cx="6.529" cy="6.529" r="6.529" transform="translate(966.973 1321.956)"/><path class="m" d="M964.8,1339.367l9.141,6.094,7.835-1.741-4.353-4.353v-6.529l-6.964-.435C970.309,1335.01,968.815,1337.4,964.8,1339.367Z"/><path class="d" d="M963.491,1369.836l16.975,2.176,3.918-18.281c1.82-4.853.775-9.14-2.594-12.968a2.907,2.907,0,0,0-2.763-2.336l-1.608.07c.182,5.772-4.071,4.382-10.446-.436l-.77.231a4.324,4.324,0,0,0-3.035,4.775l.7,4.739a32.428,32.428,0,0,0,1.382,5.524C966.992,1358.531,966.37,1364.038,963.491,1369.836Z"/><path class="o" d="M955.656,1350.249l7.835,2.612,3.482-12.623-1.18-.537a4.232,4.232,0,0,0-5.48,1.854Z"/><path class="o" d="M978.725,1338.5l4.353,4.788,5.223-8.27-6.529-3.482Z"/><path class="j" d="M965.885,1326.527c4.1,1.547,8.481,1.386,13.058,0V1321.3H965.885Z"/><path class="j" d="M1169.516,1416.189l-4.5,1.875-30.008-40.886-21.756,41.636-5.626-1.125,16.5-57.39h19.13Z"/><path class="j" d="M1175.555,1425.727h0a1.963,1.963,0,0,1-1.495-.193l-9.493-5.465a1.927,1.927,0,0,1-.708-2.631,1.957,1.957,0,0,1,.307-.4l.849-.848,4.5-.375,6.881,6.606a1.961,1.961,0,0,1-.842,3.307Z"/><path class="j" d="M1101.961,1427.227h0a1.963,1.963,0,0,0,1.495-.192l9.492-5.466a1.925,1.925,0,0,0,.708-2.63,1.874,1.874,0,0,0-.307-.4l-.848-.849-4.5-.375-6.881,6.606a1.961,1.961,0,0,0,.842,3.307Z"/><path class="p" d="M1111.375,1300.658l-1.875,1.126-3.887-6.316a2.84,2.84,0,0,1,1.834-4.268h0a2.841,2.841,0,0,1,3.365,2.194,2.8,2.8,0,0,1,.053.375Z"/><path class="p" d="M1163.329,1349.829l.778-2.044,6.96,2.561a2.841,2.841,0,0,1,1.2,4.488h0a2.84,2.84,0,0,1-4,.356,2.807,2.807,0,0,1-.274-.262Z"/><circle class="p" cx="5.626" cy="5.626" r="5.626" transform="translate(1128.255 1311.911)"/><path class="p" d="M1138.758,1329.541h-7.877v-8.627l6.752-.75Z"/><path class="o" d="M1144.384,1362.55H1123c.753-11.93,1.35-23.458,0-30.008l1.243-5.968a3.362,3.362,0,0,1,3.708-2.65l2.926.366c1.981,3.483,4.375,3.449,7.127.375h3.523a3.532,3.532,0,0,1,3.533,3.532v.07h0a44.649,44.649,0,0,1,.907,12.807Z"/><path class="f" d="M1108.375,1300.658l3-1.5,16.129,26.632-4.5,6.752Z"/><path class="f" d="M1163.372,1350.9l2.564-2.164-13.626-19.094a12.078,12.078,0,0,0-12.011-4.863l-.43.079,5.152,9.017,6.787,5.138Z"/><path class="j" d="M1140.388,1314.216a2.451,2.451,0,0,0-1.682-3.364s-2.313-3.785-6.939-1.262a5.21,5.21,0,0,0-3.154,4.626c0,3.365-1.051,4-1.051,4a10.172,10.172,0,0,0,1.986-2.868c.421-1.262,3.691-1.548,4.953-.287s4.416,1.052,4.416,1.052l-.211,4.626s1.052-2.734,1.472-2.734S1141.019,1314.216,1140.388,1314.216Z"/><ellipse class="q" cx="34.427" cy="1.793" rx="34.427" ry="1.793" transform="translate(1105.442 1436.542)"/><path class="g" d="M1107.012,1308.115l-110.627,9.914a2.059,2.059,0,0,1-2.232-1.865l-2.459-27.441a2.06,2.06,0,0,1,1.865-2.233l110.626-9.914a2.058,2.058,0,0,1,2.232,1.865l2.46,27.441A2.061,2.061,0,0,1,1107.012,1308.115Z"/><circle class="r" cx="8.639" cy="8.639" r="8.639" transform="translate(1000.674 1292.336)"/><path class="r" d="M1028.67,1293.457a1.44,1.44,0,0,0,.257,2.868l67.6-6.059a1.44,1.44,0,1,0-.253-2.868h0Z"/><path class="r" d="M1029.441,1302.062a1.44,1.44,0,1,0,.251,2.868h.006l67.6-6.059a1.44,1.44,0,0,0-.252-2.869h-.005Z"/><circle class="s" cx="9.128" cy="9.128" r="9.128" transform="translate(621.305 747.84)"/><circle class="s" cx="9.128" cy="9.128" r="9.128" transform="translate(777.482 749.595) rotate(-78.019)"/><circle class="s" cx="9.128" cy="9.128" r="9.128" transform="translate(923.986 769.492)"/><circle class="s" cx="15.297" cy="15.297" r="15.297" transform="translate(576 825.365)"/><circle class="s" cx="15.297" cy="15.297" r="15.297" transform="translate(590.664 900.902)"/><circle class="s" cx="15.297" cy="15.297" r="15.297" transform="translate(877.166 834.273)"/><path class="t" d="M765.966,878.215c-.541.051-1.089.026-1.625.11a7.4,7.4,0,0,0-2.532,1.017c-3.84,2.186-7.465,5.191-9.056,9.309a1.261,1.261,0,0,0-.118.823,1.388,1.388,0,0,0,.447.583l1.494,1.358a2.128,2.128,0,0,0,.662.465,2.17,2.17,0,0,0,1.224-.038c4.106-.941,8.47-2.026,11.352-5.1,1.367-1.456,2.629-3.461,4.642-3.515a21.321,21.321,0,0,1,2.464.422,1.8,1.8,0,0,0,2.03-1.068,2.245,2.245,0,0,0-.135-1.194l-1.241-4.132c-.337-1.131-3.743-1.19-4.878-.987C768.966,876.57,767.8,878.047,765.966,878.215Z"/><path class="t" d="M780.583,901.488a34.757,34.757,0,0,1-.177,4.246,12.362,12.362,0,0,1-1.051,3.186,20.912,20.912,0,0,1-2.869,4.519,8.9,8.9,0,0,1-3.929,2.954,4.142,4.142,0,0,1-4.515-1.194,5.983,5.983,0,0,1-.785-3.887,23.8,23.8,0,0,1,2.16-9.684c.642-1.266,1.456-2.473,2.11-3.752,1.368-2.654,2.148-5.8,4.507-7.634a14.8,14.8,0,0,0,4.684,1.287c.629.068,2.427.11,2.638.916.143.544-1.038,2.068-1.266,2.6A17.763,17.763,0,0,0,780.583,901.488Z"/><path class="f" d="M763.856,840.628a14.5,14.5,0,0,1,1.266,3.933c.084.844,0,1.688,0,2.532a16.566,16.566,0,0,0,.573,3.418l2.351,9.622a12.341,12.341,0,0,1,.519,4.384,23.232,23.232,0,0,0-.473,2.912,11.285,11.285,0,0,0,.355,2.207,13.594,13.594,0,0,1-.355,6.71,1,1,0,0,0-.071.519c.059.274.325.443.565.574a24.119,24.119,0,0,0,8.145,2.713,79.8,79.8,0,0,0,5.359-19.137c.6-3.984.89-8.018,1.658-11.972a.98.98,0,0,1,.275-.608c.287-.24.721-.089,1.059.072a94.559,94.559,0,0,1,12.411,7.174,15.506,15.506,0,0,0,2.865-12.833,26.594,26.594,0,0,0-2.11-5.52,31.153,31.153,0,0,0-3.587-6.022c-3.131-3.924-7.722-6.431-12.449-8.132-2.873-1.038-5.832-1.806-8.786-2.591-1.654-.443-4.426-1.886-6.034-.763-1.688,1.168-2.811,4.068-3.5,5.907a21.772,21.772,0,0,0-1.375,7.128A20.116,20.116,0,0,0,763.856,840.628Z"/><path class="f" d="M797.78,852.229c-.882.962-.139,2.5-.308,3.8a5.247,5.247,0,0,1-.621,1.667l-4.038,7.929a14.68,14.68,0,0,0-1.5,3.8c-.553,2.861.582,6.077-.87,8.6a9.083,9.083,0,0,0-1.388,2.435,19.442,19.442,0,0,0-.072,2.051,13.676,13.676,0,0,1-.759,2.283,15.813,15.813,0,0,0-.393,2.245,13.211,13.211,0,0,1-4.743,8.2,7.549,7.549,0,0,1-5.233,1.781,4.55,4.55,0,0,1-4.135-3.288,4.339,4.339,0,0,0-.5-1.84c-.557-.73-1.73-.759-2.266-1.506l2.076-3.418a8.083,8.083,0,0,0,1.409-3.4c.127-1.515-.6-3.025-.342-4.523.224-1.287,1.148-2.359,1.427-3.634.346-1.582-.346-3.182-.722-4.76-.92-3.886.11-7.938,1.135-11.816,1.363-5.131,2.76-10.343,5.52-14.879C786.964,846.924,792.028,849.773,797.78,852.229Z"/><path class="d" d="M797.83,771.847a6.876,6.876,0,0,1,.089,2.836c-.148,2.11.3,4.22.2,6.359A37.783,37.783,0,0,1,796.9,787.3c-1.295,5.937-.983,12.124-2.156,18.087-1.448,7.384-5.149,14.263-5.879,21.758-.232,2.38-.2,4.929-1.506,6.937a108.927,108.927,0,0,1-21.826-12.82c1.486-11.018,2.954-22.091,2.756-33.207a14.251,14.251,0,0,1,.278-4,12.325,12.325,0,0,1,1.5-3.115c1.633-2.654,3.43-5.2,5.224-7.748,1.148-1.628,2.388-3.338,4.22-4.1s4-.422,6-.059q3.6.657,7.2,1.316C794.21,770.628,797.189,770.1,797.83,771.847Z"/><path class="u" d="M740.047,814.068a22.585,22.585,0,0,0-3.208-2.663c1.5-1.823,1.2-4.461,1.57-6.794a22.435,22.435,0,0,1,1.363-4.418c.152-.4.367-.844.785-.95a1.375,1.375,0,0,1,.751.118c1.266.448,3.908.422,4.891,1.241,1.186,1,.1,3.08-.346,4.325C745.537,805.763,740.675,814.7,740.047,814.068Z"/><path class="t" d="M743.722,892.875a8.748,8.748,0,0,1,1.22,3.376,3.352,3.352,0,0,1-1.359,3.144,4.683,4.683,0,0,1-3.7.042,19.254,19.254,0,0,1-11.668-10.549,5.225,5.225,0,0,0-3.064-3.63,8.973,8.973,0,0,1-4.026-3.916,4.2,4.2,0,0,1,1.169-5.119,4.32,4.32,0,0,1,3.309-.422,12.786,12.786,0,0,1,3.131,1.364,31.224,31.224,0,0,1,5.064,2.844,32.583,32.583,0,0,1,3.481,3.68,51.556,51.556,0,0,1,3.473,4.431C741.1,888.571,744.013,892.466,743.722,892.875Z"/><path class="t" d="M712.79,884.018a29.306,29.306,0,0,1-1.118,6.266,5.807,5.807,0,0,1-1.743,3.073,6.387,6.387,0,0,1-2.663.974,1.908,1.908,0,0,1-2.372-1.038,18.075,18.075,0,0,1-3.376-6.1c-.844-3.279,0-6.794,1.465-9.857a10.09,10.09,0,0,1,2.257-3.288,8.657,8.657,0,0,1,4.144-1.861c1.558-.312,3.469-.979,3.583.916A87.92,87.92,0,0,1,712.79,884.018Z"/><path class="f" d="M736.139,804.7c2.912,1.507,6.144,3.423,6.752,6.643.375,1.966-.346,3.979-.228,5.979.1,1.76.844,3.461.751,5.216a24.256,24.256,0,0,1-.422,2.469,39.865,39.865,0,0,0-.164,4.718c-.14,3.545-1.326,6.954-1.9,10.453a30.553,30.553,0,0,0-.283,7.558c.139,1.628.422,3.249.422,4.886a21.509,21.509,0,0,1-.291,3.52,35.124,35.124,0,0,1-3.376,10.495c-2.03,4-1.743,9.153-1.528,13.63a3.377,3.377,0,0,1-.228,1.823c-.532.967-1.857,1.106-2.954,1.013a16.041,16.041,0,0,1-10.55-5.342,2.7,2.7,0,0,1-.768-1.423c-.093-.9.633-1.645,1.157-2.392,1.78-2.532,1.329-5.963,1.54-9.073a19.841,19.841,0,0,1,1.6-6.562,12.348,12.348,0,0,0,1.3-3.7,9.352,9.352,0,0,0-.629-3.591L725.07,847c-1.962-6.241-3.937-12.52-6.908-18.348a9.183,9.183,0,0,0-3.9,5.486c-1.1,3.975.469,8.415-1.038,12.238a11.313,11.313,0,0,0-.62,1.641,6.553,6.553,0,0,0-.1,1.473,120,120,0,0,0,.751,12.31,3.8,3.8,0,0,0,.506,1.76c.249.358.612.624.878.966.739.958.6,2.3.422,3.494l-.844,5.646a1.533,1.533,0,0,1-.274.8,1.5,1.5,0,0,1-.718.388,19.994,19.994,0,0,1-8.3.76,5.507,5.507,0,0,1-2.258-1.114c-.072-.844.979-1.406,1.017-2.245a1.942,1.942,0,0,0-.645-1.292c-1.57-1.772-3.444-3.654-3.427-6.021,0-.621.148-1.241.127-1.861-.055-1.591-1.152-2.954-1.536-4.486-.473-1.895.156-3.862.4-5.8a29.964,29.964,0,0,0-.422-7.854l-1.413-9.554a25.722,25.722,0,0,0-.878-4.38,34.168,34.168,0,0,0-1.87-4.11c-1.35-2.743-2.46-5.6-3.566-8.44a7.716,7.716,0,0,1-.654-2.444,5.955,5.955,0,0,1,1.612-3.928,12.289,12.289,0,0,1,6.752-4.094,2.956,2.956,0,0,1,1.355-.055,3.673,3.673,0,0,1,1.051.553,25.243,25.243,0,0,0,22.311,2.646,1.838,1.838,0,0,0,1.688-.046,21.708,21.708,0,0,0,3.65-2.532A21.733,21.733,0,0,1,736.139,804.7Z"/><path class="f" d="M648.672,913.072a5.766,5.766,0,0,0,1,1.777c1.527,1.992,3.658,3.582,4.642,5.908.206.5.358,1.021.548,1.527a10.055,10.055,0,0,0,2.743,3.976,16.908,16.908,0,0,0,3.026,2,12.2,12.2,0,0,0,6,1.882,6.5,6.5,0,0,0,1.266-.152,6.863,6.863,0,0,0,1.886-.692c1.363-.751,2.532-2.22,2.262-3.751a3.471,3.471,0,0,0-.274-.844,8.81,8.81,0,0,0-.773-1.22,9.164,9.164,0,0,0-2.489-2.633c-1.173-.718-2.65-.9-3.7-1.781a5.831,5.831,0,0,1-1.068-1.291,16.287,16.287,0,0,1-2.11-4.782c-.321-1.266-.536-2.654-1.46-3.582a8.917,8.917,0,0,0-4.693-1.473,3.574,3.574,0,0,1-1.793-.089c-.566-.282-.756-.683-1.439-.629a2.957,2.957,0,0,0-1.481.646A4.985,4.985,0,0,0,648.672,913.072Z"/><path class="v" d="M663.665,914.992a6.536,6.536,0,0,0,1.8,3.887c.705.607,1.688.987,2.039,1.844a3.01,3.01,0,0,1-.684,2.718,10.023,10.023,0,0,1-2.718,2.494,4.068,4.068,0,0,1-2.987.73,4.994,4.994,0,0,1-2.14-1.393,14.85,14.85,0,0,1-3.73-4.52c-.844-1.89-.887-4.08-1.807-5.941a19.514,19.514,0,0,1-1.688-3.2,2,2,0,0,1,0-1.3,1.833,1.833,0,0,1,1.655-.983,5.778,5.778,0,0,1,1.979.422,43.542,43.542,0,0,0,5.836,1.633c.789.148,1.266.144,1.688.907A9.073,9.073,0,0,1,663.665,914.992Z"/><path class="v" d="M668.561,927.087a4.643,4.643,0,0,0-.655,1.569,3.523,3.523,0,0,0-.046,1.326,6.833,6.833,0,0,0,1.886-.693c1.363-.751,2.532-2.219,2.262-3.751a3.389,3.389,0,0,0-.274-.844,1.179,1.179,0,0,0-1.123.35A9.325,9.325,0,0,0,668.561,927.087Z"/><path class="f" d="M653.436,895.023a2.082,2.082,0,0,0-.156,1.266c.194.844,1.059,1.33,1.84,1.714l7.423,3.629a15.5,15.5,0,0,1,1.5.8,22.154,22.154,0,0,1,3.342,2.878,8.76,8.76,0,0,0,3.714,2.3,6.276,6.276,0,0,0,4.22-.552,8.755,8.755,0,0,0,1.933-1.313,11.827,11.827,0,0,0,1.392-1.447,3.137,3.137,0,0,0,.756-1.363,2.99,2.99,0,0,0-.693-2.169,9.858,9.858,0,0,0-.844-1.047c-2.814-3.11-7.427-4.722-11.393-5.355a32.407,32.407,0,0,1-4.6-1.325,10.771,10.771,0,0,0-4.7-.621A4.661,4.661,0,0,0,653.436,895.023Z"/><path class="w" d="M653.436,895.023a2.082,2.082,0,0,0-.156,1.266c.194.844,1.059,1.33,1.84,1.714l7.423,3.629a15.5,15.5,0,0,1,1.5.8,22.154,22.154,0,0,1,3.342,2.878,8.76,8.76,0,0,0,3.714,2.3,6.276,6.276,0,0,0,4.22-.552,8.755,8.755,0,0,0,1.933-1.313,11.827,11.827,0,0,0,1.392-1.447,3.137,3.137,0,0,0,.756-1.363,2.99,2.99,0,0,0-.693-2.169,9.858,9.858,0,0,0-.844-1.047c-2.814-3.11-7.427-4.722-11.393-5.355a32.407,32.407,0,0,1-4.6-1.325,10.771,10.771,0,0,0-4.7-.621A4.661,4.661,0,0,0,653.436,895.023Z"/><path class="v" d="M672.012,897.34a8.422,8.422,0,0,1,1.393,2.148,2.409,2.409,0,0,1,.317,1.718,2.5,2.5,0,0,1-.773,1.012l-.738.684a2.955,2.955,0,0,1-.768.574,3.087,3.087,0,0,1-1.266.19,4.719,4.719,0,0,1-2.866-.6,3.173,3.173,0,0,1-.8-3.7,7.98,7.98,0,0,1,2.612-3.068C669.987,895.61,671.409,896.7,672.012,897.34Z"/><path class="v" d="M676.519,901.7a3.76,3.76,0,0,0,.19,2.088c.186.633.367,1.266.549,1.912v.025a11.823,11.823,0,0,0,1.392-1.447,3.126,3.126,0,0,0,.756-1.363,3,3,0,0,0-.692-2.169,10.222,10.222,0,0,0-.844-1.047c-.2.258-.372.511-.515.676A3.733,3.733,0,0,0,676.519,901.7Z"/><path class="f" d="M657.129,870.252c-.874,3.672-.5,7.512-.038,11.259.354,2.853.751,5.807-.093,8.554a6.876,6.876,0,0,0-.616,3.127c.358,2,2.764,2.764,4.756,3.14a4.694,4.694,0,0,0,1.759.105,4.185,4.185,0,0,0,1.6-.844,17.536,17.536,0,0,0,6.174-8.208,30.384,30.384,0,0,0,1.228-6.861,48.062,48.062,0,0,0,.211-11.719c-.169-1.14-.422-2.266-.528-3.414a24.681,24.681,0,0,1,.329-5.971,96.308,96.308,0,0,1,3.292-14.407,19.422,19.422,0,0,1-11.681-2.11c.692.371-.1,6.292-.186,7.123A48.422,48.422,0,0,1,662,857.369C660.825,861.871,658.2,865.779,657.129,870.252Z"/><path class="w" d="M657.129,870.252c-.874,3.672-.5,7.512-.038,11.259.354,2.853.751,5.807-.093,8.554a6.876,6.876,0,0,0-.616,3.127c.358,2,2.764,2.764,4.756,3.14a4.694,4.694,0,0,0,1.759.105,4.185,4.185,0,0,0,1.6-.844,17.536,17.536,0,0,0,6.174-8.208,30.384,30.384,0,0,0,1.228-6.861,48.062,48.062,0,0,0,.211-11.719c-.169-1.14-.422-2.266-.528-3.414a24.681,24.681,0,0,1,.329-5.971,96.308,96.308,0,0,1,3.292-14.407,19.422,19.422,0,0,1-11.681-2.11c.692.371-.1,6.292-.186,7.123A48.422,48.422,0,0,1,662,857.369C660.825,861.871,658.2,865.779,657.129,870.252Z"/><path class="f" d="M679.039,848.739c1.688,4.891,1.316,10.233.586,15.356s-1.806,10.246-1.489,15.407c.122,2.026.451,4.106-.14,6.043a13.223,13.223,0,0,1-1.295,2.7l-13.466,23.286a4.189,4.189,0,0,1-3.376,2.11,9.79,9.79,0,0,1-4.2-.9,7.554,7.554,0,0,1-2.443-1.355,2.891,2.891,0,0,1-1.03-2.473c.6-4.042,1.511-8.182,2.182-12.238a21.183,21.183,0,0,1,2.929-7.752c1.042-1.688,2.325-3.2,3.224-4.958,2.582-5.03,1.688-11.166-.3-16.458s-4.959-10.2-6.541-15.614a17.931,17.931,0,0,1-.8-4.642,12.381,12.381,0,0,1,3.528-8.8,3.1,3.1,0,0,1,1.22-.844,3.412,3.412,0,0,1,1.662.03C666.792,839.088,676.562,841.514,679.039,848.739Z"/><path class="v" d="M800.08,775.721a8.478,8.478,0,0,1-1.372,5.317,15.037,15.037,0,0,1-18.272,5.853,29.191,29.191,0,0,1-7.056-4.924,6.279,6.279,0,0,1-1.869-2.191,4.256,4.256,0,0,1,1.422-4.6,12.1,12.1,0,0,1,4.612-2.191C783.018,771.282,798.776,765.905,800.08,775.721Z"/><path class="f" d="M796.877,769.855c4.983,4.009,12.238,7.828,17.884,10.8,1.92,1.013,4.051,2.152,4.743,4.22a8.228,8.228,0,0,1,.127,3.473,23.456,23.456,0,0,1-1.346,6.6c-1.017,2.435-2.815,4.444-4.258,6.655-2.532,3.874-4.018,8.44-7.145,11.862,2.11,7.009,4.418,14.01,5.17,21.286a.981.981,0,0,1-.064.6,1.014,1.014,0,0,1-.329.3l-5.249,3.444a5.892,5.892,0,0,0-1.515,1.266c-.929,1.207-.806,2.9-1.38,4.308a5.6,5.6,0,0,1-3.25,2.954,10,10,0,0,1-4.469.473,10.4,10.4,0,0,1-5.334-1.878,14.773,14.773,0,0,1-3.211-3.836,14.938,14.938,0,0,1-1.688-3.076,13.867,13.867,0,0,1-.574-4.9,51.8,51.8,0,0,1,.9-9.381c.245-1.228.549-2.439.743-3.675.388-2.49.312-5.03.6-7.533a50.641,50.641,0,0,1,1.878-8.3,42.95,42.95,0,0,0,1.1-5.106,56.058,56.058,0,0,1,2.46-8.862l1.688-4.983c.359-1.076.722-2.148,1.148-3.2a24.9,24.9,0,0,0,2.085-5.967c.3-2.283-2.165-4.992-1.334-7.136C796.32,770.016,796.687,769.7,796.877,769.855Z"/><path class="f" d="M818.154,783.7a4.788,4.788,0,0,1,2.232,3,17,17,0,0,1,.658,8.524,15.415,15.415,0,0,0-.337,2.178,14.538,14.538,0,0,0,.249,2.532c.422,3.228,0,6.507.139,9.765.144,3.663.941,7.533-.595,10.862a15.522,15.522,0,0,1-4.861,5.351,97.281,97.281,0,0,1-23.282,13.436,6.1,6.1,0,0,0,.507-6.372,11.853,11.853,0,0,0-4.642-4.76,29.9,29.9,0,0,0,6.984-2.494c4.422-2.245,8.212-5.532,11.955-8.786a3.632,3.632,0,0,0,1.24-1.57c.38-1.266-.666-2.468-1.392-3.578-2.2-3.376-1.688-7.786-.768-11.694,1.025-4.283,2.532-8.549,5.279-11.993A11.861,11.861,0,0,1,818.154,783.7Z"/><path class="v" d="M791.986,839.451a5.786,5.786,0,0,1-1.452,1.6c-1.266.844-3,.523-4.418-.076a12.889,12.889,0,0,1-3.587-2.283,5.63,5.63,0,0,0-1.591-1.182c-1.106-.422-2.65-.1-3.271-1.122a.6.6,0,0,1-.1-.363c.038-.367.519-.468.891-.49a11.035,11.035,0,0,0,4.882-1.506,4.673,4.673,0,0,1-1.2-1.266.984.984,0,0,1-.2-.6,1.076,1.076,0,0,1,.367-.6,9.4,9.4,0,0,1,10.331-1.721,2.061,2.061,0,0,1,.844.633,2.358,2.358,0,0,1,.308.844c.274,1.181,1.266,2.954.907,4.148C794.3,836.834,792.8,838.29,791.986,839.451Z"/><path class="f" d="M763.21,834.129c5.25-6.064,7.6-14.044,9.773-21.762l1.557-5.486,3.756-13.213c.553-1.949,1.106-3.9,1.473-5.886a54.466,54.466,0,0,0,.65-10.424,11.291,11.291,0,0,0-.975-4.186c-.367-.911-.544-1.882-.844-2.823a14.078,14.078,0,0,0-1.692-3.709,3.865,3.865,0,0,0-.764-.912,4.425,4.425,0,0,0-1.726-.7,15.176,15.176,0,0,0-4.131-.629,5.127,5.127,0,0,0-3.748,1.6,19.521,19.521,0,0,0-1.548,2.785,10.876,10.876,0,0,0-.688,1.169,5.9,5.9,0,0,0-.38,1.916q-.328,3.988-.561,7.984c-.072,1.211-.135,2.431-.089,3.646.038.946.139,1.887.241,2.828l1,9.216c.232,2.165.067,4.191.261,6.36.473,5.237-.654,10.474-1.81,15.613a28.067,28.067,0,0,1-2.3,7.132c-1.042,1.958-2.6,3.946-2.19,6.128a21.336,21.336,0,0,1,.586,2.236,4.521,4.521,0,0,0,.14,1.414,1.688,1.688,0,0,0,1.8.844A4.184,4.184,0,0,0,763.21,834.129Z"/><path class="v" d="M763.851,809.86c.161,1.212.038,2.44.1,3.659a24.716,24.716,0,0,0,.844,4.642c.422,1.688.963,3.579,2.452,4.515a7.815,7.815,0,0,1,1.068.671,1.038,1.038,0,0,1,.346,1.131l-1.161-.194a1.177,1.177,0,1,1-1.62,1.688,2.74,2.74,0,0,1-.106,1.131.919.919,0,0,1-.844.633,1.362,1.362,0,0,1-.6-.253l-3.03-1.878a5.594,5.594,0,0,1-2.182-2.11l-1.325-2a4.771,4.771,0,0,1-.688-1.266c-.493-1.688.887-3.562.169-5.152a6.839,6.839,0,0,0-.755-1.106c-1.532-2.11-1.435-4.98-1.266-7.6.055-.882.215-1.929,1.013-2.313a2.081,2.081,0,0,1,1.979.351,8.384,8.384,0,0,0,1.772,1.118c.422.143.886.16,1.308.312.591.207,1.14,1.013,1.536,1.49A4.941,4.941,0,0,1,763.851,809.86Z"/><path class="u" d="M726.872,771.936a7.52,7.52,0,0,1-1.486,2.219,2.871,2.871,0,0,1-2.447.844,4.316,4.316,0,0,1-2.245-1.688,29.406,29.406,0,0,1-4.351-6.085c-1.663-3.431-1.928-7.347-2.169-11.149a3.963,3.963,0,0,1,3.38-4.916l6.436-2.406a2.509,2.509,0,0,1,1.266-.232c1.008.169,1.38,1.385,1.654,2.368a14.761,14.761,0,0,0,2.405,4.9c1.443,1.924,4.68,4.515,2.832,6.916A53.047,53.047,0,0,0,726.872,771.936Z"/><path class="x" d="M735.1,760.955c2.819,2.651,3.773,6.778,3.638,10.639s-1.207,7.625-1.819,11.44-.734,7.887.924,11.394a28.712,28.712,0,0,1,1.743,3.587,11.27,11.27,0,0,1,.333,3.853,10.994,10.994,0,0,1-.768,3.983c-.9,1.992-2.747,3.376-4.515,4.642-3.608,2.608-7.288,5.259-11.525,6.622a35.287,35.287,0,0,1-8.912,1.392,28.372,28.372,0,0,1-6.1-.173,16.573,16.573,0,0,1-9.262-4.9,5.192,5.192,0,0,1-1.051-1.448,6.009,6.009,0,0,1-.367-2.194q-.152-4.156.05-8.314a36.617,36.617,0,0,1,1.085-7.828c.806-2.954,2.2-5.722,3.262-8.6,3.688-10.005,3.317-21.391,8.44-30.734,1.106-2.017,2.954-4.14,5.233-3.819a1.752,1.752,0,0,1,1.156.532,2.435,2.435,0,0,1,.422,1.3c.544,4.54,1.317,9.2,3.456,13.3.844,1.607,2.11,4.055,4.055,4.485s3.094-1.426,4.136-2.742A33.7,33.7,0,0,1,735.1,760.955Z"/><path class="f" d="M748.6,754.123a8.437,8.437,0,0,1,1.6,1.123,6.464,6.464,0,0,1,1.721,4.773,37.073,37.073,0,0,1-.675,5.173c-.679,4.642-.1,9.394.169,14.095a6.823,6.823,0,0,1-.135,2.27c-.207.709-.633,1.334-.907,2.022-.806,2.034-.2,4.355-.671,6.49-.507,2.274-2.241,4.342-1.916,6.651.131.9.565,1.734.751,2.629a2.312,2.312,0,0,1-.747,2.456c-.772.481-1.9.13-2.815.4a8.7,8.7,0,0,0-1.088.49,5.35,5.35,0,0,1-4.52-.279,13.668,13.668,0,0,1-3.65-2.895,14.993,14.993,0,0,1-3.87-5.638c-1.03-3.173-.114-6.629,1-9.777s2.452-6.33,2.254-9.677a42.791,42.791,0,0,0-1.055-5.515,35.292,35.292,0,0,1-.469-7.723,13.744,13.744,0,0,1,1-5.549,7.645,7.645,0,0,1,6.043-4.135C743.57,751.182,746.1,752.688,748.6,754.123Z"/><path class="w" d="M740.616,794.913a12.864,12.864,0,0,0,.718,3.963,15.771,15.771,0,0,0,.945-5.528,108.575,108.575,0,0,1,3.376-18.787c-1.11.844-1.735,2.953-2.266,4.219A37.215,37.215,0,0,0,740.616,794.913Z"/><path class="f" d="M712.17,749.954c-2.034.536-3.8,1.743-5.769,2.532a43.09,43.09,0,0,1-6.4,1.722c-4.971,1.207-9.963,3.447-12.963,7.6-2.212,3.051-3.127,6.819-4.642,10.275-1.266,2.9-2.954,5.617-3.887,8.634-1.219,3.937-1.08,8.157-.781,12.268.245,3.376.617,6.79,2.148,9.781.8,1.57,1.908,2.976,2.71,4.545.962,1.887,1.468,3.967,2.27,5.908a9.432,9.432,0,0,0,3.84,4.895l3.081-1.8c4.6-2.689,9.191-5.381,13.643-8.3,3.882-2.532,7.8-5.44,9.866-9.6,1.832-3.676,2.013-7.972,1.54-12.053s-1.553-8.072-2.11-12.141a48.919,48.919,0,0,1,.317-15.407c.422-2.295,1.544-4.667,1.776-6.954C717.069,749.41,713.929,749.49,712.17,749.954Z"/><path class="v" d="M693.125,817.039c2.359,2.232,5.752,2.882,8.7,4.22a18.658,18.658,0,0,1,5.811,4.22c.908.995,1.785,2.35,1.33,3.616a4.034,4.034,0,0,1-2.642,2.051,6.008,6.008,0,0,1-4.178.443,15.011,15.011,0,0,1-2.139-1.325c-1.769-1.051-4-1.055-5.811-2.026-2.558-1.367-3.832-4.376-6.237-6-1.317-.887-3.136-1.612-3.271-3.195a3.855,3.855,0,0,1,.355-1.658c.485-1.292,1.312-5.727,3.16-5.609C690.217,811.907,691.627,815.971,693.125,817.039Z"/><path class="v" d="M680.765,797.26a20.191,20.191,0,0,0,4.426,7.347c1.338,1.582,2.807,3.3,2.853,5.376a5.666,5.666,0,0,1-2.954,4.76,12.508,12.508,0,0,1-5.629,1.447,14.179,14.179,0,0,1-4.668-.325c-3.857-1.046-6.532-4.409-9.566-7.009-1.8-1.54-3.828-2.882-5.208-4.811s-1.962-4.7-.6-6.642a9.63,9.63,0,0,1,1.688-1.688,28.216,28.216,0,0,0,5.819-6.984,7.525,7.525,0,0,1,2.275-2.844c1.506-.916,3.439-.5,5.144-.051,1.852.486,7.073,1.435,7.435,3.8.148.971-1.055,2.482-1.236,3.524A9.323,9.323,0,0,0,680.765,797.26Z"/><path class="g" d="M690.306,802.551a17.818,17.818,0,0,1,1.359,3.144c1.287,4.474-1.013,9.082-2.11,13.606-1.4,5.794-.806,11.853-.874,17.816-.029,2.726-.32,5.727-2.283,7.617a7.077,7.077,0,0,0-1.456,1.494,6.187,6.187,0,0,0-.468,1.4,7.2,7.2,0,0,1-10.432,4.3c-1.6-.891-2.987-2.435-4.819-2.482a14.118,14.118,0,0,0-1.717.19,11.772,11.772,0,0,1-5.318-1.156,3.475,3.475,0,0,1-1.122-.6c-.308-.283-.507-.663-.789-.967-1.043-1.122-2.823-.928-4.326-1.24a6.056,6.056,0,0,1-4.587-4.587,11.841,11.841,0,0,1,.207-4.419l1.131-6.524a59.915,59.915,0,0,0,.983-7.245,30.388,30.388,0,0,0-.7-8.191,65.7,65.7,0,0,1-1.511-6.579,16.073,16.073,0,0,1,2.954-11.314,3.508,3.508,0,0,1,2.35-1.688,3.951,3.951,0,0,1,2.262.772q9.128,5.4,18.382,10.58a21.75,21.75,0,0,0,5.3,2.371c.566.144,1.376.085,1.456-.489a1.067,1.067,0,0,0-.164-.62c-1.055-2.03-2.583-3.773-3.8-5.706a9.676,9.676,0,0,1-1.794-6.465c.49-3.106,3.376-5.161,5.735-2.726C686.8,795.6,688.572,799.154,690.306,802.551Z"/><path class="v" d="M671.409,841.936c4.95.317,10.01.654,14.593,2.553,1.472.608,3.034,1.393,4.582,1.017a6.1,6.1,0,0,0,2.11-1.131,48.343,48.343,0,0,0,5.394-4.6c-.169-.924-1.423-1.051-2.359-1.043a14.1,14.1,0,0,1-6.567-1.578,11.062,11.062,0,0,0-2.11-.983c-2-.553-4.047.5-6.059,1.017-2.98.759-6.119.316-9.162-.131l-8.212-1.211a2.934,2.934,0,0,0-2.232.274,2.722,2.722,0,0,0-.8,1.431c-1,3.376-.523,3.659,2.819,3.87Z"/><circle class="w" cx="13.504" cy="13.504" r="13.504" transform="translate(770.038 756.339)"/><circle class="v" cx="13.504" cy="13.504" r="13.504" transform="translate(767.952 780.422) rotate(-80.783)"/><path class="f" d="M794.843,752.11a7.208,7.208,0,0,1,2.8,2.507,12.6,12.6,0,0,1,.721,2.363c.739,2.532,2.7,4.731,2.824,7.368.13,2.891-2.039,5.4-4.495,6.917a3.336,3.336,0,0,1-1.932.65,6.222,6.222,0,0,1-1.984-.781c-2.772-1.232-5.874.329-8.811,1.046a15.8,15.8,0,0,1-9.2-.54,8.7,8.7,0,0,1-4.11-2.848,4.509,4.509,0,0,1-.5-4.764c.422-.752,1.122-1.431,1.076-2.288a11.717,11.717,0,0,0-.422-1.485,3.419,3.419,0,0,1,.717-2.279,32.956,32.956,0,0,1,7.3-8.258,5.219,5.219,0,0,1,2.924-1.418c2.22-.1,4.128,1.557,6.41,1.565A12,12,0,0,1,794.843,752.11Z"/><circle class="w" cx="13.926" cy="13.926" r="13.926" transform="translate(719.808 738.552)"/><circle class="u" cx="13.926" cy="13.926" r="13.926" transform="translate(720.052 738.21)"/><path class="f" d="M741.418,760a9.3,9.3,0,0,0,6.587.485,8.869,8.869,0,0,0,3.461-1.46,4.175,4.175,0,0,0,1.743-3.207c0-1.414-.929-2.688-1.043-4.1-.139-1.781,1.022-3.427,1.144-5.216s-.76-3.4-1.621-4.937a27.638,27.638,0,0,0-5.274-7.326c-2.254-2.017-5.377-3.3-8.331-2.625-1.451.333-2.8,1.114-4.279,1.266a18.053,18.053,0,0,1-3.929-.443,4.51,4.51,0,0,0-3.726.844c-.515.506-.844,1.219-1.447,1.591a8.67,8.67,0,0,1-1.266.468c-1.524.612-2.22,2.33-2.76,3.874l-3.621,10.377a29,29,0,0,0,4,1.878,4.834,4.834,0,0,1,2.882,3.14c.207,1.1-.186,2.367.456,3.287a2.854,2.854,0,0,0,2.793.844,10.535,10.535,0,0,1,3.043-.338c2.532.384,3.473,1.937,5.815,0S739.241,758.778,741.418,760Z"/><circle class="w" cx="12.66" cy="12.66" r="12.66" transform="translate(662.138 770.881)"/><circle class="v" cx="12.66" cy="12.66" r="12.66" transform="translate(662.627 770.193)"/><path class="f" d="M684.98,770.476a33.367,33.367,0,0,0-10.014-5.267,12.249,12.249,0,0,0-7.174-.574c-3.181.907-7.439,2.262-9.41,4.925a14.079,14.079,0,0,0-2.422,4.22c-.937,3.148.4,6.5.308,9.786-.106,3.827-2.136,7.322-4.351,10.444s-2.663,7.6-3.971,11.2c-.447,1.237-.591,2.954.561,3.574,1.013.562,2.237-.139,3.174-.814l5.633-4.072a4.3,4.3,0,0,1,1.486-.794c1.16-.27,2.295.456,3.266,1.144l11.816,8.355a3.625,3.625,0,0,0,.055-3.072,11.91,11.91,0,0,1,2.89,1.925c.975.658,2.456.873,3.165-.047s.173-2.156-.616-2.9-1.827-1.186-2.6-1.95c-1.532-1.523-1.688-3.928-2.655-5.853-.692-1.35-1.81-2.481-2.3-3.92-.8-2.35.244-4.882,1.266-7.144,1.219-2.684,2.6-5.55,5.194-6.951.874-.472,1.84-.751,2.735-1.181a14.747,14.747,0,0,0,6.1-5.845C688.069,773.662,686.6,771.725,684.98,770.476Z"/><path class="w" d="M665.818,812.312c1.211.773,2.578,1.266,3.768,2.072a4.6,4.6,0,0,1,2.266,3.465,6.093,6.093,0,0,1-1.688,3.663L659.884,835l5.241,1.388a13.692,13.692,0,0,0-1.5,4.018c-.438,1.367-1.266,2.789-2.667,3.148-1.266.325-2.591-.342-3.9-.266-.966.059-1.878.515-2.844.553a6.043,6.043,0,0,1-3.439-1.3c-2.313-1.549-4.609-3.768-4.592-6.554a9.9,9.9,0,0,1,.562-2.759c1.515-4.942,3.084-10,6.224-14.112a44.366,44.366,0,0,1,5.815-5.887,5.434,5.434,0,0,1,1.629-1.127c1.35-.506,2.823.119,4.22.524s3.156.464,3.963-.73"/><path class="g" d="M665.374,811.481c1.212.768,2.579,1.266,3.769,2.072a4.616,4.616,0,0,1,2.27,3.46,5.927,5.927,0,0,1-1.688,3.667l-10.284,13.479,5.241,1.388a13.649,13.649,0,0,0-1.5,4.018c-.439,1.371-1.266,2.789-2.667,3.148-1.266.325-2.591-.342-3.9-.266-.966.055-1.878.515-2.844.549a6.043,6.043,0,0,1-3.439-1.3c-2.313-1.545-4.609-3.769-4.588-6.55a9.744,9.744,0,0,1,.557-2.759c1.515-4.946,3.085-10.006,6.225-14.112a45.511,45.511,0,0,1,5.815-5.908,5.578,5.578,0,0,1,1.629-1.127c1.35-.506,2.823.119,4.22.528s3.156.464,3.962-.73"/><g class="y"><path d="M771.1,765.994a8.69,8.69,0,0,0,4.11,2.848,15.746,15.746,0,0,0,9.2.541c2.954-.718,6.038-2.279,8.811-1.047a6.214,6.214,0,0,0,1.979.785,3.376,3.376,0,0,0,1.937-.654,9.982,9.982,0,0,0,4.03-4.4,1.1,1.1,0,0,0,.025.283c.131,2.891-2.038,5.4-4.494,6.917a3.337,3.337,0,0,1-1.933.65,6.226,6.226,0,0,1-1.983-.781c-2.772-1.232-5.874.329-8.811,1.046a15.8,15.8,0,0,1-9.2-.54,8.7,8.7,0,0,1-4.11-2.848,4.509,4.509,0,0,1-.5-4.764l.063-.106A5.174,5.174,0,0,0,771.1,765.994Z"/><path d="M771.658,758.942a2.959,2.959,0,0,1-.734,1.748,2.742,2.742,0,0,1-.122-.422,3.253,3.253,0,0,1,.637-2.153A2.8,2.8,0,0,1,771.658,758.942Z"/></g><path class="w" d="M721.664,737.838l-3.62,10.373a28.585,28.585,0,0,0,4,1.878,4.826,4.826,0,0,1,2.882,3.14c.207,1.1-.185,2.367.456,3.291a2.866,2.866,0,0,0,2.794.844,10.663,10.663,0,0,1,3.042-.337c2.532.384,3.473,1.937,5.815.021s3.191.358,5.368,1.582a9.25,9.25,0,0,0,6.587.485,8.86,8.86,0,0,0,3.461-1.455,5.687,5.687,0,0,0,.422-.384,4.7,4.7,0,0,1-1.418,1.755,8.872,8.872,0,0,1-3.46,1.46c-2.2.5-4.642.616-6.588-.485-2.177-1.224-3.072-3.456-5.368-1.583s-3.291.363-5.815,0a10.584,10.584,0,0,0-3.042.338,2.854,2.854,0,0,1-2.794-.844c-.641-.92-.249-2.186-.456-3.287a4.826,4.826,0,0,0-2.882-3.14,29.039,29.039,0,0,1-4-1.878l3.637-10.4a8.436,8.436,0,0,1,1.731-3.2A14.171,14.171,0,0,0,721.664,737.838Z"/><g class="y"><path d="M674.878,809.987a2.211,2.211,0,0,0,2.7-.3c.662-.844.173-2.152-.617-2.9s-1.827-1.186-2.6-1.95c-1.532-1.519-1.688-3.924-2.654-5.848-.692-1.355-1.811-2.486-2.3-3.925-.8-2.346.244-4.882,1.266-7.14,1.219-2.684,2.6-5.549,5.194-6.95.874-.473,1.84-.752,2.735-1.182a14.757,14.757,0,0,0,6.1-5.849c.916-1.9-.376-3.751-1.912-5.005.747.486,1.477,1,2.186,1.541,1.625,1.266,3.089,3.186,2.11,5.182a14.745,14.745,0,0,1-6.1,5.844c-.894.422-1.861.709-2.734,1.182-2.6,1.4-3.975,4.266-5.2,6.95-1.025,2.262-2.068,4.794-1.266,7.145.49,1.439,1.608,2.57,2.3,3.92.979,1.924,1.122,4.33,2.654,5.853.772.764,1.811,1.2,2.6,1.95s1.266,2.038.616,2.9-2.2.683-3.165.046C676.144,811,675.549,810.422,674.878,809.987Z"/><path d="M649.284,806.244l5.633-4.068a4.323,4.323,0,0,1,1.486-.8c1.16-.266,2.295.46,3.266,1.148l11.816,8.356a3.636,3.636,0,0,0,.055-3.077,11.815,11.815,0,0,1,2.815,1.874,3.182,3.182,0,0,0-.422-.156,3.624,3.624,0,0,1-.055,3.072l-11.816-8.356c-.971-.687-2.11-1.413-3.266-1.143a4.3,4.3,0,0,0-1.486.793l-5.634,4.072c-.936.676-2.16,1.376-3.173.815a1.853,1.853,0,0,1-.882-1.629A6.124,6.124,0,0,0,649.284,806.244Z"/></g><path class="x" d="M790.032,833.8s-24.18,1.937-28.991-1.489l22.121-3.41Z"/><path class="w" d="M790.032,833.8s-24.18,1.937-28.991-1.489l22.121-3.41Z"/><path class="x" d="M790.032,833.8l-6.773-4.287s-20.2,5.807-25.742,3.41l5.634-7.9,20.019,3.9Z"/><path class="f" d="M759.986,776.953a11.879,11.879,0,0,0-1.777,3.119c-.194.595-.291,1.215-.456,1.819a14,14,0,0,1-2.109,4.182c-2.081,3.025-4.68,5.945-5.2,9.579a16.175,16.175,0,0,0,.38,5.393,14.545,14.545,0,0,0,1,3.405c.536,1.157,1.334,2.174,1.945,3.292a23.36,23.36,0,0,1,1.41,3.41,16.711,16.711,0,0,0,1.726-2.532A3.251,3.251,0,0,1,759.353,807c1.173,0,2.139.97,3.3,1.122a.932.932,0,0,0,.54-.051c.422-.2.456-.768.422-1.223-.333-3.186-2.156-6.33-1.295-9.419.793-2.857,3.629-4.642,5.118-7.2a16.529,16.529,0,0,0,1.688-6.19,38.372,38.372,0,0,0,.562-7.7c-.081-1.295-1.11-9.482-2.992-8.625-.654.295-1.224,1.548-1.634,2.11l-1.687,2.392Z"/><path class="x" d="M709.477,829.766,695.9,840.818,678.435,837.7l11.761-9.233Z"/><path class="w" d="M709.967,829.078,696.391,840.13l-17.466-3.123,11.761-9.233Z"/><path class="x" d="M709.87,828.492l-13.576,11.048-17.471-3.119,11.765-9.237Z"/><path class="w" d="M710.262,827.213l-13.58,11.052-17.466-3.123,11.765-9.233Z"/><path class="x" d="M710.161,826.626l-13.576,11.052-17.466-3.123,11.761-9.233Z"/></g></svg>