<svg xmlns="http://www.w3.org/2000/svg" width="442.536" height="444.672" viewBox="0 0 442.536 444.672"><defs><style>.a{fill:#ff6584;}.b{fill:#e6e6e6;}.c{fill:#f2f2f2;}.d{fill:#6c63ff;}.e{fill:#3f3d56;}.f{fill:#2f2e41;}.g{fill:#ffb9b9;}.h{fill:#d0cde1;}.i{opacity:0.1;}.j{fill:#007bb7;}.k{fill:#464646;font-size:68px;font-family:Arial-BoldMT, Arial;font-weight:700;}</style></defs><g transform="translate(-979.754 -2713.569)"><g transform="translate(994.697 2713.569)"><ellipse class="a" cx="15.031" cy="15.031" rx="15.031" ry="15.031" transform="translate(0.112 9.759)"/><path class="b" d="M109.815,104.78V98.859H87.04v5.921H82.485V21.425H33.747V161.262h88.821V104.78Z" transform="translate(-18.375 -11.666)"/><path class="c" d="M529.047,171l-.084.082V171l0,.084c-1.152,1.12-13.98,13.778-18.957,26.617-1.652-1.838-2.82-2.959-2.82-2.959l-.055.053v0c-.939.913-13.709,13.515-13.709,23.5,0,9.641,5.331,13.446,12.192,13.932l-.5,9.51H506.5l.153-9.462c.175,0,.35.007.527.007,5.07,0,9.5-1.614,11.885-5.761a24.566,24.566,0,0,0,7.578,1.672l-.76,14.51h2.122l.234-14.436c.267.006.535.01.8.01,11.6,0,21-5.522,21-21.339S529.047,171,529.047,171Z" transform="translate(-268.669 -93.113)"/><path class="c" d="M335.787,138.1v-8.322H310.279V138.1H298.436V105.179H287.049V92.425H261.541v12.754H249.7v51.679a70.326,70.326,0,0,0-5.516-6.129l-.055.053v0c-.939.913-13.709,13.514-13.709,23.5,0,9.641,5.331,13.446,12.192,13.932l-.5,9.51H243.5l.153-9.462q.262.006.527.006a18.268,18.268,0,0,0,5.516-.779v12.431h97.476V138.1Z" transform="translate(-125.464 -50.326)"/><path class="c" d="M764.738,119.008l-.084.082v-.082l0,.083c-1.192,1.16-14.894,14.68-19.451,27.967v-6.586L701.474,74.425l-43.727,66.047V190.12H745.2V164.45c2.795,7.814,9.312,11.2,17.136,11.752l-.76,14.509H763.7l.235-14.436c.267.006.535.01.8.01,11.6,0,21-5.523,21-21.34S764.738,119.008,764.738,119.008Z" transform="translate(-358.147 -40.525)"/><ellipse class="c" cx="57.62" cy="5.311" rx="57.62" ry="5.311" transform="translate(11.955 156.883)"/><ellipse class="c" cx="25.697" cy="2.369" rx="25.697" ry="2.369" transform="translate(363.408 227.107)"/><ellipse class="c" cx="25.697" cy="2.369" rx="25.697" ry="2.369" transform="translate(88.289 185.657)"/><path class="d" d="M857.163,464.856c0,6.641-3.948,8.961-8.819,8.961q-.169,0-.338,0c-.225,0-.449-.015-.67-.031-4.4-.311-7.811-2.749-7.811-8.926,0-6.392,8.169-14.458,8.782-15.055h0l.036-.034S857.163,458.215,857.163,464.856Z" transform="translate(-457.126 -244.9)"/><path class="e" d="M853.944,472.8l3.225-4.507-3.233,5-.009.517c-.225,0-.449-.015-.67-.031l.347-6.645,0-.051.006-.01.033-.628-3.241-5.014,3.252,4.544.007.133.263-5.02-2.775-5.181,2.808,4.3.274-10.408v0l-.046,8.208,2.762-3.254-2.774,3.961-.073,4.495,2.58-4.314-2.591,4.975-.041,2.5,3.745-6-3.759,6.876Z" transform="translate(-463.047 -244.9)"/><ellipse class="c" cx="47.94" cy="4.419" rx="47.94" ry="4.419" transform="translate(0 307.106)"/><path class="d" d="M110.685,611.285c0,12.39-7.365,16.716-16.452,16.716q-.316,0-.63-.007c-.421-.009-.838-.029-1.25-.057-8.2-.58-14.571-5.129-14.571-16.652,0-11.925,15.239-26.972,16.384-28.086l0,0,.066-.064S110.685,598.895,110.685,611.285Z" transform="translate(-42.353 -317.519)"/><path class="e" d="M104.679,626.106,110.7,617.7l-6.032,9.331-.016.965c-.421-.009-.838-.029-1.25-.057l.649-12.4-.005-.1.011-.018.061-1.171L98.067,604.9l6.066,8.476.014.249.49-9.366-5.177-9.666,5.24,8.022.511-19.417,0-.066v.064l-.085,15.312,5.154-6.07-5.175,7.39-.136,8.386,4.812-8.048-4.832,9.282-.077,4.662,6.986-11.2-7.012,12.828Z" transform="translate(-53.398 -317.519)"/><path class="d" d="M213.21,155.281c0,26.157-15.55,35.289-34.731,35.289s-34.731-9.133-34.731-35.289,34.731-59.432,34.731-59.432S213.21,129.125,213.21,155.281Z" transform="translate(-78.271 -52.19)"/><path class="e" d="M200.532,186.57l.356-21.891,14.8-27.082-14.748,23.648.16-9.843,10.2-19.594L201.146,148.8h0l.288-17.7,10.925-15.6-10.88,12.815.18-32.461-1.13,42.973.093-1.773-11.108-17,10.93,20.405-1.035,19.771-.031-.525-12.8-17.892,12.766,19.746-.129,2.472-.023.037.01.2-2.625,50.161h3.508l.421-25.909,12.735-19.7Z" transform="translate(-101.59 -52.19)"/><path class="d" d="M79.492,155.281c0,26.157-15.55,35.289-34.731,35.289S10.03,181.438,10.03,155.281,44.761,95.849,44.761,95.849,79.492,129.125,79.492,155.281Z" transform="translate(-5.461 -52.19)"/><path class="e" d="M66.815,186.57l.356-21.891,14.8-27.082L67.226,161.245l.16-9.843,10.2-19.594L67.429,148.8h0l.288-17.7,10.925-15.6L67.762,128.31l.179-32.461-1.129,42.973.093-1.773-11.108-17,10.93,20.405-1.035,19.771-.031-.525-12.8-17.892,12.766,19.746-.129,2.472-.023.037.01.2-2.625,50.161h3.508l.421-25.909,12.735-19.7Z" transform="translate(-28.78 -52.19)"/><path class="c" d="M152.961,80.367c0,35.37-21.027,47.72-46.966,47.72S59.03,115.737,59.03,80.367,106,0,106,0,152.961,45,152.961,80.367Z" transform="translate(-32.142)"/><path class="e" d="M135.817,122.676l.481-29.6,20.018-36.622L136.374,88.431l.216-13.31,13.8-26.5L136.647,71.6h0l.389-23.939,14.773-21.093L137.1,43.9,137.34,0l-1.527,58.11.125-2.4-15.02-22.991L135.7,60.314,134.3,87.05l-.041-.71L116.941,62.146l17.263,26.7-.175,3.343-.031.05.015.275-3.551,67.83h4.744l.569-35.036L153,98.675Z" transform="translate(-63.675)"/><path class="e" d="M249.087,394.345a5.9,5.9,0,0,1-.339,1.984,5.969,5.969,0,0,1-1.6,2.406,5.9,5.9,0,0,1-2.691,1.389,5.8,5.8,0,0,1-1.286.143,5.911,5.911,0,0,1-5.133-2.966,5.922,5.922,0,1,1,11.054-2.955Z" transform="translate(-129.179 -211.498)"/><path class="c" d="M238.95,392.8l.53-.067,1.009,1.327-.643,1.537-1.653.21-.5-.656Z" transform="translate(-129.427 -213.845)"/><path class="c" d="M244.551,403.278l-1.653.21-1.009-1.327.645-1.537,1.653-.21,1.009,1.326Z" transform="translate(-131.71 -218.028)"/><path class="c" d="M241.457,408.832l-.409.974a5.972,5.972,0,0,1-2.07-2.115l1.469-.186Z" transform="translate(-130.125 -221.889)"/><path class="c" d="M248.688,393.232l-1.653.21-1.009-1.327.644-1.537,1.653-.21,1.008,1.327Z" transform="translate(-133.963 -212.558)"/><path class="c" d="M254.006,400.914l-1.653.211-1.009-1.327.644-1.537,1.653-.21,1.009,1.327Z" transform="translate(-136.858 -216.741)"/><path class="c" d="M249.923,410.6l-.366.875a5.792,5.792,0,0,1-1.286.143,5.872,5.872,0,0,1-1.311-.148l-.342-.449.644-1.537,1.652-.21Z" transform="translate(-134.285 -222.854)"/><path class="c" d="M258.687,392.725l-1.6.2-1.009-1.327.5-1.187A5.927,5.927,0,0,1,258.687,392.725Z" transform="translate(-139.433 -212.584)"/><path class="c" d="M259.967,405.78a5.969,5.969,0,0,1-1.6,2.406l-.516-.681.643-1.537Z" transform="translate(-140.399 -220.95)"/><ellipse class="c" cx="110.685" cy="6.491" rx="110.685" ry="6.491" transform="translate(138.355 354.568)"/><path class="b" d="M374.4,723.86l-23.352,20.951c-10.47-4.591-17.422-12.4-20.951-23.352l23.352-20.951C353.6,714.274,360.723,721.932,374.4,723.86Z" transform="translate(-179.739 -381.431)"/><rect class="e" width="20.744" height="0.455" transform="translate(155.355 341.984) rotate(-40.499)"/><rect class="e" width="20.472" height="0.455" transform="translate(157.51 345.046) rotate(-42.059)"/><path class="c" d="M408.911,547.468l-31.2,3.3c-5.8-9.855-6.854-20.259-3.3-31.2l31.2-3.3C397.665,527.512,398.957,537.894,408.911,547.468Z" transform="translate(-202.755 -281.111)"/><rect class="e" width="20.744" height="0.455" transform="translate(174.561 242.971) rotate(-4.641)"/><rect class="e" width="20.472" height="0.455" transform="translate(174.514 246.716) rotate(-6.201)"/><path class="b" d="M365.027,386.638,344.17,363.2c4.633-10.452,12.475-17.372,23.436-20.857l20.857,23.436C374.7,365.873,367.01,372.97,365.027,386.638Z" transform="translate(-187.403 -186.409)"/><rect class="e" width="0.455" height="20.744" transform="matrix(0.763, -0.646, 0.646, 0.763, 177.881, 161.22)"/><rect class="e" width="0.455" height="20.472" transform="translate(174.818 163.373) rotate(-41.827)"/><rect class="e" width="24.597" height="60.581" transform="translate(179.744 101.499) rotate(-30)"/><rect class="d" width="19.76" height="0.455" transform="matrix(0.858, -0.514, 0.514, 0.858, 187.856, 112.056)"/><rect class="d" width="19.76" height="0.455" transform="matrix(0.858, -0.514, 0.514, 0.858, 190.553, 115.822)"/><rect class="d" width="19.76" height="0.455" transform="matrix(0.858, -0.514, 0.514, 0.858, 192.375, 119.01)"/><rect class="d" width="19.76" height="0.455" transform="matrix(0.858, -0.514, 0.514, 0.858, 195.108, 123.109)"/><rect class="d" width="19.76" height="0.455" transform="matrix(0.858, -0.514, 0.514, 0.858, 199.207, 129.031)"/><path class="f" d="M579.435,266.193s11.725-5.639,20.069-3.537l-20.069-54.124v-5.558l28.406,67.586h0c7.1,13.387,16.081,43.9.772,46.348-17.368,2.779-48.63,13.2-48.63,13.2l-6.947-60.44Z" transform="translate(-301.131 -110.521)"/><path class="g" d="M431.819,281.711s-18.757-23.62-23.62-15.284,21.839,22.359,21.839,22.359Z" transform="translate(-221.944 -144.101)"/><path class="h" d="M459.541,298.654l-7.642-4.168s-4.863,12.5-4.863,14.589,7.642,2.779,7.642,2.779Z" transform="translate(-243.414 -160.349)"/><ellipse class="g" cx="18.063" cy="18.063" rx="18.063" ry="18.063" transform="translate(224.382 82.099) rotate(-80.008)"/><path class="g" d="M543.576,143.492s7.642,22.925,13.2,24.315-21.536,11.81-21.536,11.81-8.336-19.452-12.5-24.315S543.576,143.492,543.576,143.492Z" transform="translate(-284.377 -78.132)"/><path class="i" d="M610.925,383.522c14.974-2.4,6.709-31.645-.306-45.449a9.217,9.217,0,0,1,1.695,1.682c6.947,9.032,20.842,47.935,3.474,50.714s-48.63,13.2-48.63,13.2l-.945-8.223C575.146,392.578,597.306,385.7,610.925,383.522Z" transform="translate(-308.306 -184.083)"/><path class="f" d="M680.453,700.185s17.368,13.894,15.978,15.284-15.978,23.621-28.483,25.7-18.062,2.084-18.062,0,3.473-6.947,9.726-9.031,6.947-15.978,6.252-18.757S680.453,700.185,680.453,700.185Z" transform="translate(-353.867 -381.255)"/><path class="f" d="M566.064,472.932l11.116,52.1s45.851,51.409,44.461,52.1-15.284,14.589-18.063,14.589-50.714-54.187-50.714-54.187L535.5,492.384Z" transform="translate(-291.581 -257.514)"/><path class="i" d="M566.064,472.932l11.116,52.1s45.851,51.409,44.461,52.1-15.284,14.589-18.063,14.589-50.714-54.187-50.714-54.187L535.5,492.384Z" transform="translate(-291.581 -257.514)"/><path class="f" d="M526.459,433.375s-5.558,23.62-20.842,39.6-22.231,48.63-22.231,48.63l-15.284,65.3s-27.094-3.474-25.7-10.421l14.589-57.661s16.673-79.892,25.7-85.45S526.459,433.375,526.459,433.375Z" transform="translate(-240.86 -234.63)"/><path class="f" d="M431.829,753.718s4.168,13.2,1.389,14.589-52.1,4.168-54.882-5.558c0,0-1.389-4.863,9.726-4.863s22.926-10.421,22.926-10.421Z" transform="translate(-205.976 -406.999)"/><path class="j" d="M524.526,196.678S542.589,178.616,547.452,180s4.863,8.337,4.863,8.337,15.284,2.084,13.894,52.1,12.5,55.577,7.642,58.356-60.44,15.284-62.524,2.779-1.39-60.44,4.168-75.724S528,200.846,524.526,196.678Z" transform="translate(-277.832 -97.972)"/><path class="j" d="M515.68,225.711s20.842,9.726,9.031,28.483S503.87,293.1,491.366,292.4s-31.957-12.5-37.514-12.5,2.084-20.147,6.252-20.842,23.621,11.115,23.621,11.115S490.671,222.932,515.68,225.711Z" transform="translate(-246.061 -122.837)"/><path class="f" d="M520.316,112.836a24.264,24.264,0,0,0-4.576.632,11.58,11.58,0,0,1-12.378-8.634,6.641,6.641,0,0,0-.633-2.063c-.843-1.376-2.762-1.638-4.343-1.321s-3.081,1.057-4.692,1.141a7.183,7.183,0,0,1-6.2-3.51,11.9,11.9,0,0,1-1.522-7.187l1.192,1.251a6.054,6.054,0,0,0,.54-3.291,3.818,3.818,0,0,1,3.618.926c1.051.112.258-1.95,1.039-2.663a1.806,1.806,0,0,1,1.271-.238c2.236.021,4.046-1.689,5.808-3.066a24.683,24.683,0,0,1,10.425-4.755,13.713,13.713,0,0,1,7.607.368,16.252,16.252,0,0,1,5.137,3.644c3.75,3.606,7.071,7.843,8.631,12.806a21.555,21.555,0,0,1,.1,12.5c-.629,2.122-2.523,9.388-5.3,9.557C522.562,119.145,524.654,113.094,520.316,112.836Z" transform="translate(-264.592 -43.396)"/></g><text class="k" transform="translate(979.754 3143.241)"><tspan x="0" y="0">29 years old</tspan></text></g></svg>