<svg xmlns="http://www.w3.org/2000/svg" width="850.723" height="469.523" viewBox="0 0 850.723 469.523"><defs><style>.a{fill:#e6e6e6;}.b{fill:#ffb8b8;}.c{fill:#575a89;}.d{fill:#007bb7;}.e{fill:#2f2e41;}.f{fill:#cfcce0;}.g{opacity:0.2;}.h{fill:#a0616a;}.i{fill:#ffb9b9;}.j{fill:#00646b;}.k{fill:#fa7268;}.l{fill:#3f3d56;}</style></defs><g transform="translate(0 0)"><ellipse class="a" cx="116.078" cy="16" rx="116.078" ry="16" transform="translate(618.566 435.835)"/><ellipse class="a" cx="116.417" cy="16" rx="116.417" ry="16" transform="translate(0 437.524)"/><path class="b" d="M200.838,222.624l2.994,6.188s17,22.685,6.5,26.238-16.072-21.515-16.072-21.515l-2.776-3.508Z" transform="translate(-6.83 -7.941)"/><path class="c" d="M180.2,101.066,183,99.884s3.307,1.182,3.307,6.266-4.067,79.306-4.067,79.306l8.134,40.671-11.184,2.034L161.9,190.541Z" transform="translate(-5.775 -3.563)"/><path class="d" d="M180.2,101.066,183,99.884s3.307,1.182,3.307,6.266-4.067,79.306-4.067,79.306L204.1,220.535,189.862,230.7,161.9,190.541Z" transform="translate(-5.775 -3.563)"/><path class="e" d="M174.935,223.266s13.218,5.084,12.2,14.234S172.9,428.65,172.9,428.65l4.068,20.335L138.332,450l-1.016-131.161L109.863,450H71.226L98.679,219.2Z" transform="translate(-2.541 -7.819)"/><path class="e" d="M174.4,453.268l9.151,9.151s21.352,4.068,16.268,11.184-57.955-2.034-57.955-2.034l1.017-16.267Z" transform="translate(-5.06 -16.168)"/><path class="e" d="M105.871,453.268l9.151,9.151s21.351,4.068,16.268,11.184-57.955-2.034-57.955-2.034L74.351,455.3Z" transform="translate(-2.616 -16.168)"/><circle class="b" cx="24.402" cy="24.402" r="24.402" transform="translate(115.456 12.096)"/><path class="b" d="M159.606,52.609,157.572,94.3l-31.519-18.3,4.067-23.386Z" transform="translate(-4.496 -1.877)"/><path class="f" d="M125,66.316l29.485,21.352,5.084-15.252,9.151,24.4-5.084,43.721Z" transform="translate(-4.459 -2.366)"/><path class="d" d="M123.908,63.153l32.536,44.737,1.178-37.373L167.628,78.4v8.134l14.234,13.218-5.083,50.838-1.017,59.989s6.1,5.084,4.068,8.134-10.168,10.167-19.318,10.167S94.422,221.767,94.422,217.7s2.034-56.938,2.034-56.938V89.588l24.4-18.3Z" transform="translate(-3.368 -2.253)"/><path class="b" d="M92.313,237.914l13.218,19.318,5.084-22.369-6.1-4.067Z" transform="translate(-3.293 -8.233)"/><rect class="g" width="56.438" height="2.034" transform="matrix(0.346, -0.938, 0.938, 0.346, 133.592, 311.76)"/><path class="e" d="M129.325,12.6S132.376-2.647,149.661.4L147.627,1.42S163.9-.613,161.862,8.537c0,0,13.218,8.134,10.168,17.285a103.465,103.465,0,0,0-4.068,16.268l-3.05-3.05s-3.05-20.335-21.352-18.3c-13.726,1.525-19.318,8.007-20.748,12.677a41.277,41.277,0,0,1-2.512,6.391l-1.142.25S113.057,17.688,129.325,12.6Z" transform="translate(-4.21 0)"/><path class="d" d="M106.431,89.5l-9.256-.429-1.929,1.446a60.746,60.746,0,0,0-6.1,7.118c-2.034,3.05-28.47,77.274-28.47,77.274a25.916,25.916,0,0,0,2.034,13.217c3.05,7.118,27.453,49.821,27.453,49.821l18.3-11.184-24.4-49.821,17.285-24.4Z" transform="translate(-2.159 -3.177)"/><path class="h" d="M726.044,420.319v27.387h16.432l2.191-27.387Z" transform="translate(-25.898 -14.993)"/><path class="h" d="M766.372,421.456l6.572,15.337,10.955,4.382L786.09,410.5l-8.764-4.381Z" transform="translate(-27.337 -14.486)"/><path class="e" d="M780.718,434.684s-.929-6.915-10.323-4l1.559,20.437s-7.667,23,3.286,20.813,17.528-23,17.528-23l7.668-35.055-18.518-5.424Z" transform="translate(-27.443 -14.569)"/><path class="e" d="M709.164,194.827s-15.336,116.119-9.858,129.264,62.989,98.043,62.989,98.043l25.2-32.863-56.416-70.657,52.582-72.3,4.382-43.818Z" transform="translate(-24.902 -6.95)"/><path class="e" d="M770.248,237.994l14.462,7.653-.221,2.206-35.6,178.012L721.5,420.388l18.075-125.43Z" transform="translate(-25.736 -8.489)"/><path class="e" d="M723.874,440.2l-6.573,9.859s-14.24,24.1,1.1,24.1,21.91,0,23.005-5.477a72.177,72.177,0,0,1,3.286-10.954l-1.1-14.241Z" transform="translate(-25.372 -15.702)"/><circle class="i" cx="24.1" cy="24.1" r="24.1" transform="translate(717.125 13.699)"/><path class="i" d="M747.859,47.15s3.286,18.622-6.573,21.909,12.05,47.1,12.05,47.1l25.2-41.627s-6.573-14.241-2.191-20.813Z" transform="translate(-26.351 -1.682)"/><path class="j" d="M752.093,98.085l-5.947-35.7L734.566,69.6,703.893,87.13l12.049,51.487-4.382,31.769s-5.477,9.858-4.382,14.24-1.1,6.573,0,7.668,55.868,9.859,72.3,16.432,18.623,8.764,17.528,3.286-13.146-31.769-13.146-31.769l9.859-43.818,13.146-38.341L774.953,68.633Z" transform="translate(-25.108 -2.225)"/><path class="i" d="M801.945,149.226l7.668,20.814L789.9,206.19l-6.434,5a6.574,6.574,0,0,0-2.321,6.86l4.373,16.617,11.462-17.021s31.261-37.752,30.165-47.61-4.381-25.2-4.381-25.2Z" transform="translate(-27.856 -5.167)"/><path class="i" d="M688.733,131.212,683.256,158.6l-20.814,51.487s-23,21.909-12.049,26.291,24.1-21.909,24.1-21.909l26.291-49.3,9.858-29.578Z" transform="translate(-23.094 -4.68)"/><path class="j" d="M798.017,97.1l8.818-.792,3.232,2.983S828.689,140.922,826.5,145.3s-24.1,6.573-24.1,6.573l-8.764-26.291Z" transform="translate(-28.309 -3.435)"/><path class="j" d="M710.92,89.093l-5.434-2.372L703.253,88s-21.91,43.818-16.432,46.009,31.768,5.477,31.768,5.477Z" transform="translate(-24.468 -3.093)"/><path class="g" d="M735.223,328.6l-6.678,46.34-6.216-9.548Z" transform="translate(-25.766 -11.721)"/><path class="e" d="M783.4,23.665s2.427,6.389-8.839,3.114c0,0-4.463,2.176-4.2-1.537,0,0-6.152,5.789-7.323,1.975s-4.376.938-4.376.938l-2.427-6.389-3.119,3.513-10.01-.7S741.972-.375,776.116,4.5s14.52,42.917,14.52,42.917.216-7.06-2.9-3.547S783.4,23.665,783.4,23.665Z" transform="translate(-26.507 -0.138)"/><path class="k" d="M209.6,228.429v105.19H649.015V228.429ZM472.875,315.97H236.785V301.144h236.09Zm0-27.533H236.785V273.612h236.09ZM621.836,260.9H236.785V246.078H621.836Z" transform="translate(-7.477 -8.148)"/><path class="l" d="M458.549,178.086h-59.3v-59.3h40.241V120.2H400.66v56.478h56.478V148.435h1.412Z" transform="translate(-14.241 -4.237)"/><path class="d" d="M429.256,162.453c-1.37-4.046-18.556-17.8-8.025-20.114l8.636,11.515,39.7-39.7,3.993,3.992Z" transform="translate(-14.904 -4.072)"/></g></svg>