<svg xmlns="http://www.w3.org/2000/svg" width="1074.104" height="741.414" viewBox="0 0 1074.104 741.414"><defs><style>.a{fill:#00646b;}.b{fill:#fff;font-size:43.31px;font-family:Arial-BoldMT, Arial;font-weight:700;}.c{fill:#fa7268;}.d{fill:#3f3d56;}.e{fill:#2f2e41;}.f{opacity:0.1;}.g{fill:#007bb7;}.h{fill:#575a89;}.i{fill:#a0616a;}.j{fill:none;stroke:#fa7268;stroke-miterlimit:10;}</style></defs><g transform="translate(-460 151.738)"><rect class="a" width="796.238" height="132.202" rx="19.33" transform="translate(460 423)"/><text class="b" transform="translate(475.103 436.676)"><tspan x="0" y="39">The European Parliament,</tspan><tspan x="0" y="90.972" xml:space="preserve"> is close to you more than ever!</tspan></text><circle class="c" cx="33.316" cy="33.316" r="33.316" transform="translate(1149.439 65.337)"/><path class="a" d="M1082.441,258.992c0,64.347-38.253,86.814-85.44,86.814s-85.44-22.467-85.44-86.814S997,112.787,997,112.787,1082.441,194.646,1082.441,258.992Z"/><path class="d" d="M993.889,335.963l.875-53.852,36.417-66.623L994.9,273.663l.393-24.214,25.1-48.2L995.4,243.041h0l.708-43.55,26.875-38.374-26.765,31.526.442-79.856L993.881,218.5l.228-4.361-27.325-41.825,26.887,50.2-2.546,48.638-.076-1.291-31.5-44.015,31.405,48.575-.319,6.083-.057.092.026.5-6.46,123.4h8.63l1.035-63.738,31.328-48.456Z"/><path class="a" d="M1335.633,225.234c0,78.611-46.733,106.058-104.38,106.058s-104.381-27.447-104.381-106.058S1231.253,46.619,1231.253,46.619,1335.633,146.624,1335.633,225.234Z"/><path class="d" d="M1227.45,319.268l1.069-65.79,44.49-81.391-44.322,71.071.481-29.582,30.662-58.886-30.535,51.057h0l.864-53.2,32.834-46.881-32.7,38.514.54-97.557-3.394,129.149.279-5.328-33.382-51.1,32.847,61.324-3.111,59.42-.092-1.577L1185.5,184.739l38.367,59.343-.389,7.431-.069.112.032.61-7.892,150.753h10.543l1.266-77.867,38.273-59.2Z"/><ellipse class="d" cx="160.332" cy="5.726" rx="160.332" ry="5.726" transform="translate(959.435 397.454)"/><ellipse class="d" cx="73.919" cy="7.028" rx="73.919" ry="7.028" transform="translate(1271.25 435.455)"/><rect class="e" width="18.74" height="175.949" transform="translate(1110.397 227.231)"/><path class="c" d="M1205.659,267.314H1090.616V235.04h115.043l33.316,16.137Z"/><path class="f" d="M1205.659,264.711H1090.616v2.6h115.043l33.316-16.137-2.687-1.3Z"/><path class="c" d="M1034.4,310h115.043V277.725H1034.4l-33.316,16.137Z"/><path class="f" d="M1003.766,292.561l-2.687,1.3L1034.4,310h115.043v-2.6H1034.4Z"/><rect class="g" width="19.781" height="19.781" transform="translate(1155.165 241.286)"/><circle class="g" cx="9.891" cy="9.891" r="9.891" transform="translate(1065.629 283.972)"/><circle class="e" cx="5.726" cy="5.726" r="5.726" transform="translate(1114.041 244.41)"/><circle class="e" cx="5.726" cy="5.726" r="5.726" transform="translate(1114.041 287.095)"/><path class="g" d="M1081.246,383.574c0,11.7-6.953,15.78-15.53,15.78-.2,0-.4,0-.6-.007-.4-.008-.791-.027-1.18-.054-7.741-.548-13.755-4.841-13.755-15.719,0-11.257,14.386-25.462,15.466-26.513l0,0,.063-.061S1081.246,371.878,1081.246,383.574Z"/><path class="d" d="M1065.15,397.565l5.68-7.937-5.694,8.808-.016.911c-.4-.008-.791-.027-1.18-.054l.613-11.7-.005-.09.01-.017.058-1.106-5.708-8.83,5.726,8,.013.234.463-8.841-4.887-9.125,4.947,7.573.481-18.33,0-.063v.061l-.08,14.454,4.865-5.73-4.885,6.976-.129,7.916,4.543-7.6-4.562,8.762-.072,4.4,6.595-10.574-6.619,12.11Z"/><path class="h" d="M1321.244,429.684s-7.37,6.207-11.249,5.819-11.25-.388-8.147,3.879,15.905,6.6,21.336,6.983,17.457.776,16.681-1.552-1.552-13.19-4.655-13.965S1321.244,429.684,1321.244,429.684Z"/><path class="h" d="M1363.548,423.59s-5.431,7.959-9.272,8.628-10.94,2.65-6.8,5.926,17.092,2.078,22.427.992,17.023-3.945,15.65-5.978-5.039-12.287-8.237-12.2S1363.548,423.59,1363.548,423.59Z"/><path class="e" d="M1316.927,309.759s-4.993,34.193-3.829,40.4,1.94,15.9,1.94,15.9-.776,8.146,0,12.025,5.431,40.733,5.431,41.509-.776,3.1,0,5.043,2.327.388,0,3.491-.776,3.879-.388,3.879,15.517,1.552,16.293,0-.388-1.939,0-3.879.775-2.327,1.551-2.715,2.328.388,1.164-1.552-3.879-4.267-3.1-5.431-.388-9.7-.388-9.7-.776-19.009-1.164-30.647,3.491-23.663,3.491-23.663a44.384,44.384,0,0,0,10.086,25.991c10.086,12.026,15.13,34.526,15.13,34.526s2.327,3.491,1.163,6.594-4.655,1.164-1.163,3.1,15.517-.776,16.68-1.94-1.551-2.715-.775-5.819,3.879-2.327,1.163-3.879-3.491-1.164-3.491-2.716-6.983-35.3-17.845-45l-.775-35.3s9.7-24.827-.388-27.154S1316.927,309.759,1316.927,309.759Z"/><path class="i" d="M1323.96,217.875s6.6,16.293,5.043,18.621,19.008-7.759,19.008-7.759-6.594-16.293-6.594-18.232S1323.96,217.875,1323.96,217.875Z"/><circle class="i" cx="14.353" cy="14.353" r="14.353" transform="translate(1314.456 193.242)"/><path class="g" d="M1348.011,222.143s-10.086-1.164-15.129,5.043-5.819,7.758-5.819,7.758-12.025,19.4-9.7,29.1a28.229,28.229,0,0,1,1.552,2.715c.776,1.552.776,23.276,0,26.767s-1.552,4.655-.776,9.7-6.207,13.19,1.94,14.742,14.353.388,17.068-3.1.388-5.819,8.923-5.819a20.528,20.528,0,0,0,13.965-5.819s-4.267-4.655-2.715-5.431,0-2.715-.776-4.655-.776-3.491.388-3.491.388-.776-.388-2.715,13.577-35.3,5.043-45-12.8-15.129-12.8-15.129S1350.339,220.979,1348.011,222.143Z"/><path class="i" d="M1325.9,259v17.069l-12.414,41.12s-8.147,21.336,0,21.336,7.71-20.365,7.71-20.365l17.505-30.842s6.983-24.439,6.207-26.379S1325.9,259,1325.9,259Z"/><path class="g" d="M1332.494,233.78s-11.637,4.656-8.534,17.069,0,12.026,0,12.026,15.905-1.552,20.948,1.94l1.164-4.655S1350.727,233.392,1332.494,233.78Z"/><path class="e" d="M1323.908,196.82a5.727,5.727,0,0,1-5.38-.837,4.334,4.334,0,0,1-1.222-5.116,6.843,6.843,0,0,1,3.855-2.854,35.82,35.82,0,0,1,10.5-2.371,9.554,9.554,0,0,1,5.05.681c.758.388,1.416.948,2.166,1.35a25.72,25.72,0,0,0,4.477,1.378,11.207,11.207,0,0,1,6.848,6.295,13.481,13.481,0,0,1,.844,3.125,17.413,17.413,0,0,1-.905,8.713c-1.654,4.4-5.122,8.252-5.318,12.951-2.123-1.54-2.91-4.32-4.611-6.316a8.594,8.594,0,0,0-4.9-2.844,2.725,2.725,0,0,1-1.462-.533,2.356,2.356,0,0,1-.534-1.245l-1.452-6.858c-.3-1.4-.669-2.917-1.816-3.766a5.518,5.518,0,0,0-2.368-.834,37.139,37.139,0,0,0-6.064-.553"/><path class="j" d="M1314.886-151.738"/></g></svg>